<svg width="116" height="121" viewBox="0 0 116 121" fill="none" xmlns="http://www.w3.org/2000/svg">
<path d="M15.78 29.06C23.1143 29.06 29.06 23.1143 29.06 15.78C29.06 8.44566 23.1143 2.5 15.78 2.5C8.44566 2.5 2.5 8.44566 2.5 15.78C2.5 23.1143 8.44566 29.06 15.78 29.06Z" stroke="#C99D72" stroke-width="5" stroke-miterlimit="10"/>
<path d="M57.9 29.06C65.2343 29.06 71.18 23.1143 71.18 15.78C71.18 8.44566 65.2343 2.5 57.9 2.5C50.5657 2.5 44.62 8.44566 44.62 15.78C44.62 23.1143 50.5657 29.06 57.9 29.06Z" stroke="#C99D72" stroke-width="5" stroke-miterlimit="10"/>
<path d="M100.03 29.06C107.364 29.06 113.31 23.1143 113.31 15.78C113.31 8.44566 107.364 2.5 100.03 2.5C92.6957 2.5 86.75 8.44566 86.75 15.78C86.75 23.1143 92.6957 29.06 100.03 29.06Z" stroke="#C99D72" stroke-width="5" stroke-miterlimit="10"/>
<path d="M15.78 73.4799C23.1143 73.4799 29.06 67.5343 29.06 60.1999C29.06 52.8656 23.1143 46.9199 15.78 46.9199C8.44566 46.9199 2.5 52.8656 2.5 60.1999C2.5 67.5343 8.44566 73.4799 15.78 73.4799Z" stroke="#C99D72" stroke-width="5" stroke-miterlimit="10"/>
<path d="M57.9 73.4799C65.2343 73.4799 71.18 67.5343 71.18 60.1999C71.18 52.8656 65.2343 46.9199 57.9 46.9199C50.5657 46.9199 44.62 52.8656 44.62 60.1999C44.62 67.5343 50.5657 73.4799 57.9 73.4799Z" stroke="#C99D72" stroke-width="5" stroke-miterlimit="10"/>
<path d="M100.03 73.4799C107.364 73.4799 113.31 67.5343 113.31 60.1999C113.31 52.8656 107.364 46.9199 100.03 46.9199C92.6957 46.9199 86.75 52.8656 86.75 60.1999C86.75 67.5343 92.6957 73.4799 100.03 73.4799Z" stroke="#C99D72" stroke-width="5" stroke-miterlimit="10"/>
<path d="M15.78 117.91C23.1143 117.91 29.06 111.964 29.06 104.63C29.06 97.2958 23.1143 91.3501 15.78 91.3501C8.44566 91.3501 2.5 97.2958 2.5 104.63C2.5 111.964 8.44566 117.91 15.78 117.91Z" stroke="#C99D72" stroke-width="5" stroke-miterlimit="10"/>
<path d="M57.9 117.91C65.2343 117.91 71.18 111.964 71.18 104.63C71.18 97.2958 65.2343 91.3501 57.9 91.3501C50.5657 91.3501 44.62 97.2958 44.62 104.63C44.62 111.964 50.5657 117.91 57.9 117.91Z" stroke="#C99D72" stroke-width="5" stroke-miterlimit="10"/>
<path d="M100.03 117.91C107.364 117.91 113.31 111.964 113.31 104.63C113.31 97.2958 107.364 91.3501 100.03 91.3501C92.6957 91.3501 86.75 97.2958 86.75 104.63C86.75 111.964 92.6957 117.91 100.03 117.91Z" stroke="#C99D72" stroke-width="5" stroke-miterlimit="10"/>
</svg>
