<svg width="355" height="341" viewBox="0 0 355 341" fill="none" xmlns="http://www.w3.org/2000/svg">
<path d="M329.261 2.37158H291.096C277.335 2.37158 266.179 13.5275 266.179 27.289V65.4542C266.179 79.2157 277.335 90.3716 291.096 90.3716H329.261C343.023 90.3716 354.179 79.2157 354.179 65.4542V27.289C354.179 13.5275 343.023 2.37158 329.261 2.37158Z" fill="#B5B5B5"/>
<path fill-rule="evenodd" clip-rule="evenodd" d="M170.3 340.5C141.963 340.509 114.072 333.444 89.1563 319.947C64.2404 306.45 43.0874 286.946 27.6156 263.206C12.1439 239.465 2.84296 212.238 0.555606 183.993C-1.73175 155.748 3.06692 127.378 14.5169 101.457C25.9669 75.5361 43.7062 52.8831 66.1255 35.5523C88.5449 18.2214 114.935 6.76088 142.904 2.20992C170.873 -2.34105 199.536 0.161478 226.293 9.49059C253.05 18.8197 277.055 34.6803 296.132 55.6342L301.525 61.5541V34.6203C301.525 33.4448 301.992 32.3175 302.823 31.4863C303.654 30.6551 304.782 30.1882 305.957 30.1882C307.133 30.1882 308.259 30.6551 309.091 31.4863C309.922 32.3175 310.389 33.4448 310.389 34.6203V74.9125C310.386 75.853 310.085 76.7684 309.528 77.5262C308.971 78.2839 308.187 78.8448 307.29 79.1276C306.862 79.2774 306.411 79.3508 305.957 79.3446C305.245 79.3464 304.543 79.1753 303.911 78.846C303.28 78.5167 302.737 78.0391 302.33 77.454C280.201 45.9518 247.539 23.4001 210.239 13.871C172.94 4.34185 133.462 8.4633 98.9355 25.4912C64.4086 42.5192 37.108 71.3313 21.9625 106.725C6.81709 142.119 4.82493 181.762 16.3465 218.495C27.8681 255.229 52.144 286.633 84.7903 307.036C117.437 327.439 156.301 335.497 194.368 329.754C232.435 324.012 267.194 304.848 292.37 275.722C317.545 246.597 331.477 209.43 331.651 170.932V170.188C331.744 169.072 332.252 168.033 333.076 167.275C333.9 166.517 334.978 166.096 336.098 166.096C337.217 166.096 338.296 166.517 339.12 167.275C339.944 168.033 340.452 169.072 340.545 170.188C340.504 215.334 322.556 258.62 290.64 290.549C258.723 322.478 215.445 340.442 170.3 340.5Z" fill="#C79B70"/>
<path fill-rule="evenodd" clip-rule="evenodd" d="M170.3 204.839C169.124 204.839 167.997 204.372 167.166 203.541C166.335 202.71 165.867 201.583 165.867 200.407V189.404L163.791 188.66C161.051 187.68 158.562 186.104 156.504 184.046C154.446 181.988 152.87 179.499 151.89 176.759L151.177 174.713H140.144C139.028 174.62 137.988 174.111 137.23 173.287C136.473 172.463 136.052 171.385 136.052 170.265C136.052 169.146 136.473 168.068 137.23 167.244C137.988 166.42 139.028 165.911 140.144 165.818H151.177L151.89 163.772C152.874 161.034 154.451 158.547 156.509 156.49C158.566 154.432 161.053 152.855 163.791 151.87L165.867 151.127V94.9036C165.867 93.7281 166.335 92.6008 167.166 91.7696C167.997 90.9384 169.124 90.4714 170.3 90.4714C171.475 90.4714 172.602 90.9384 173.433 91.7696C174.264 92.6008 174.732 93.7281 174.732 94.9036V151.127L176.808 151.87C179.543 152.86 182.027 154.44 184.084 156.496C186.141 158.553 187.72 161.037 188.71 163.772L189.422 165.818H245.675C246.79 165.911 247.83 166.42 248.588 167.244C249.346 168.068 249.767 169.146 249.767 170.265C249.767 171.385 249.346 172.463 248.588 173.287C247.83 174.111 246.79 174.62 245.675 174.713H189.422L188.679 176.759C187.709 179.5 186.141 181.991 184.087 184.05C182.034 186.109 179.547 187.684 176.808 188.66L174.732 189.404V200.407C174.732 200.989 174.617 201.565 174.394 202.103C174.171 202.641 173.845 203.13 173.433 203.541C173.022 203.953 172.533 204.279 171.996 204.502C171.458 204.725 170.882 204.839 170.3 204.839ZM170.3 159.619C168.19 159.613 166.126 160.233 164.368 161.401C162.611 162.569 161.239 164.232 160.428 166.179C159.616 168.127 159.4 170.272 159.808 172.342C160.216 174.412 161.229 176.315 162.719 177.809C164.209 179.303 166.108 180.322 168.177 180.736C170.246 181.15 172.391 180.94 174.341 180.134C176.291 179.328 177.959 177.962 179.132 176.208C180.305 174.454 180.93 172.391 180.93 170.281C180.93 167.459 179.812 164.751 177.819 162.753C175.826 160.754 173.122 159.627 170.3 159.619Z" fill="#C79B70"/>
<path fill-rule="evenodd" clip-rule="evenodd" d="M170.299 310.374C142.592 310.374 115.507 302.157 92.4699 286.764C69.4324 271.37 51.4764 249.491 40.8734 223.892C30.2704 198.294 27.4965 170.125 32.9019 142.95C38.3073 115.775 51.6497 90.8127 71.2416 71.2204C90.8334 51.6281 115.795 38.2855 142.969 32.88C170.144 27.4745 198.311 30.2488 223.909 40.8521C249.507 51.4554 271.386 69.4114 286.779 92.4496C302.172 115.488 310.388 142.573 310.388 170.281C310.339 207.421 295.564 243.025 269.303 269.287C243.042 295.549 207.438 310.324 170.299 310.374ZM170.299 271.352C171.475 271.352 172.602 271.819 173.433 272.65C174.264 273.482 174.731 274.609 174.731 275.784V301.54L178.017 301.354C195.813 300.348 213.211 295.685 229.124 287.655L232.038 286.198L219.207 263.945C218.915 263.438 218.727 262.879 218.652 262.299C218.578 261.719 218.618 261.13 218.772 260.566C218.919 260.008 219.176 259.485 219.527 259.028C219.878 258.57 220.317 258.187 220.818 257.901C221.494 257.499 222.264 257.285 223.05 257.281C223.83 257.285 224.594 257.493 225.268 257.884C225.943 258.276 226.503 258.837 226.893 259.513L239.724 281.735L242.483 279.938C257.348 270.129 270.064 257.402 279.86 242.528L281.689 239.8L259.436 226.969C258.596 226.473 257.941 225.715 257.572 224.812C257.203 223.909 257.141 222.91 257.394 221.967C257.647 221.025 258.203 220.192 258.974 219.595C259.746 218.998 260.692 218.671 261.667 218.663C262.453 218.666 263.223 218.88 263.899 219.282L286.12 232.114L287.608 229.169C295.628 213.264 300.281 195.876 301.277 178.091L301.493 174.806H275.8C274.685 174.713 273.645 174.204 272.887 173.38C272.129 172.556 271.708 171.478 271.708 170.358C271.708 169.239 272.129 168.161 272.887 167.337C273.645 166.513 274.685 166.004 275.8 165.911H301.493L301.277 162.811C300.285 145.016 295.632 127.617 287.608 111.702L286.12 108.758L263.899 121.589C263.223 121.992 262.453 122.206 261.667 122.209C260.692 122.201 259.746 121.874 258.974 121.277C258.203 120.68 257.647 119.846 257.394 118.904C257.141 117.962 257.203 116.963 257.572 116.06C257.941 115.156 258.596 114.399 259.436 113.903L281.689 101.071L279.86 98.3439C270.072 83.4634 257.355 70.7343 242.483 60.9342L239.724 59.1365L226.893 81.3592C226.503 82.0344 225.943 82.5958 225.268 82.9874C224.594 83.3789 223.83 83.5869 223.05 83.5907C222.269 83.5825 221.502 83.3801 220.818 83.0018C220.302 82.704 219.85 82.3065 219.489 81.8323C219.128 81.3581 218.864 80.8168 218.714 80.2399C218.564 79.6631 218.531 79.0622 218.615 78.4721C218.699 77.8821 218.901 77.3147 219.207 76.8031L232.038 54.5494L229.124 53.0927C213.209 45.0671 195.812 40.404 178.017 39.3934L174.731 39.2074V64.8704C174.731 66.0459 174.264 67.1732 173.433 68.0044C172.602 68.8356 171.475 69.3026 170.299 69.3026C169.124 69.3026 167.996 68.8356 167.165 68.0044C166.334 67.1732 165.867 66.0459 165.867 64.8704V39.2074L162.582 39.3934C144.787 40.404 127.39 45.0671 111.474 53.0927L108.561 54.5494L121.392 76.8031C121.698 77.3147 121.899 77.8821 121.983 78.4721C122.068 79.0622 122.034 79.6631 121.884 80.2399C121.734 80.8168 121.471 81.3581 121.11 81.8323C120.749 82.3065 120.297 82.704 119.78 83.0018C119.097 83.3801 118.33 83.5825 117.549 83.5907C116.77 83.5838 116.006 83.3745 115.332 82.9833C114.658 82.5921 114.098 82.0324 113.706 81.3592L100.874 59.1365L98.1162 60.9342C83.2507 70.7424 70.5339 83.47 60.7382 98.3439L58.9101 101.071L81.163 113.903C82.0031 114.399 82.6573 115.156 83.0259 116.06C83.3946 116.963 83.4576 117.962 83.2045 118.904C82.9514 119.846 82.3963 120.68 81.6246 121.277C80.8529 121.874 79.9071 122.201 78.9316 122.209C78.1458 122.206 77.3753 121.992 76.7002 121.589L54.4776 108.758L52.9899 111.702C44.9662 127.617 40.3134 145.016 39.3222 162.811L39.1361 165.911H64.7985C65.914 166.004 66.9539 166.513 67.7117 167.337C68.4695 168.161 68.8898 169.239 68.8898 170.358C68.8898 171.478 68.4695 172.556 67.7117 173.38C66.9539 174.204 65.914 174.713 64.7985 174.806H39.1361L39.3222 178.06C40.3134 195.856 44.9662 213.255 52.9899 229.169L54.4776 232.114L76.7002 219.282C77.3753 218.88 78.1458 218.666 78.9316 218.663C79.9071 218.671 80.8529 218.998 81.6246 219.595C82.3963 220.192 82.9514 221.025 83.2045 221.967C83.4576 222.91 83.3946 223.909 83.0259 224.812C82.6573 225.715 82.0031 226.473 81.163 226.969L58.9101 239.8L60.7382 242.528C70.5356 257.375 83.2534 270.072 98.1162 279.845L100.874 281.642L113.706 259.42C114.098 258.746 114.658 258.187 115.332 257.795C116.006 257.404 116.77 257.195 117.549 257.188C118.335 257.192 119.105 257.406 119.78 257.808C120.281 258.094 120.72 258.477 121.071 258.935C121.423 259.392 121.679 259.915 121.826 260.473C121.98 261.037 122.021 261.626 121.947 262.206C121.872 262.786 121.684 263.345 121.392 263.852L108.561 286.105L111.474 287.562C127.39 295.588 144.787 300.251 162.582 301.261L165.867 301.447V275.784C165.867 275.202 165.982 274.626 166.204 274.088C166.427 273.551 166.754 273.062 167.165 272.65C167.577 272.239 168.065 271.912 168.603 271.69C169.141 271.467 169.717 271.352 170.299 271.352Z" fill="#C79B70"/>
</svg>
