<svg width="380" height="352" viewBox="0 0 380 352" fill="none" xmlns="http://www.w3.org/2000/svg">
<path d="M355.052 25.0001H316.886C303.125 25.0001 291.969 36.156 291.969 49.9175V88.0826C291.969 101.844 303.125 113 316.886 113H355.052C368.813 113 379.969 101.844 379.969 88.0826V49.9175C379.969 36.156 368.813 25.0001 355.052 25.0001Z" fill="#B5B5B5"/>
<path d="M29.7845 155.063H24.0508V160.797H29.7845V155.063Z" fill="#C79B70"/>
<path d="M53.6493 155.063H47.9155V160.797H53.6493V155.063Z" fill="#C79B70"/>
<path d="M41.7165 113.066H36.0759V107.363H41.8096L41.7165 113.066Z" fill="#C79B70"/>
<path d="M41.7169 107.363H35.9832V113.066H41.7169V107.363Z" fill="#C79B70"/>
<path d="M41.7169 107.363H35.9832V113.066H41.7169V107.363Z" fill="#C79B70"/>
<path d="M65.5816 113.066H59.8479V107.363H65.5816V113.066Z" fill="#C79B70"/>
<path d="M65.5816 107.363H59.8479V113.066H65.5816V107.363Z" fill="#C79B70"/>
<path d="M65.5816 107.363H59.8479V113.066H65.5816V107.363Z" fill="#C79B70"/>
<path d="M77.483 155.063H71.7803V160.797H77.483V155.063Z" fill="#C79B70"/>
<path d="M155.028 113.314H149.294V119.048H155.028V113.314Z" fill="#C79B70"/>
<path d="M178.862 113.314H173.128V119.048H178.862V113.314Z" fill="#C79B70"/>
<path d="M202.726 113.314H196.993V119.048H202.726V113.314Z" fill="#C79B70"/>
<path d="M155.028 137.179H149.294V142.913H155.028V137.179Z" fill="#C79B70"/>
<path d="M178.862 137.179H173.128V142.913H178.862V137.179Z" fill="#C79B70"/>
<path d="M202.726 137.179H196.993V142.913H202.726V137.179Z" fill="#C79B70"/>
<path d="M155.028 161.014H149.294V166.748H155.028V161.014Z" fill="#C79B70"/>
<path d="M178.862 161.014H173.128V166.748H178.862V161.014Z" fill="#C79B70"/>
<path d="M202.726 161.014H196.993V166.748H202.726V161.014Z" fill="#C79B70"/>
<path d="M29.7845 178.897H24.0508V184.631H29.7845V178.897Z" fill="#C79B70"/>
<path d="M53.6493 178.897H47.9155V184.631H53.6493V178.897Z" fill="#C79B70"/>
<path d="M77.483 178.897H71.7803V184.631H77.483V178.897Z" fill="#C79B70"/>
<path d="M29.7845 202.763H24.0508V208.497H29.7845V202.763Z" fill="#C79B70"/>
<path d="M53.6493 202.763H47.9155V208.497H53.6493V202.763Z" fill="#C79B70"/>
<path d="M77.514 202.763H71.7803V208.497H77.514V202.763Z" fill="#C79B70"/>
<path d="M29.7845 226.628H24.0508V232.362H29.7845V226.628Z" fill="#C79B70"/>
<path d="M53.6493 226.628H47.9155V232.362H53.6493V226.628Z" fill="#C79B70"/>
<path d="M77.514 226.628H71.7803V232.362H77.514V226.628Z" fill="#C79B70"/>
<path d="M29.7845 250.462H24.0508V256.196H29.7845V250.462Z" fill="#C79B70"/>
<path d="M53.6493 250.462H47.9155V256.196H53.6493V250.462Z" fill="#C79B70"/>
<path d="M77.514 250.462H71.7803V256.196H77.514V250.462Z" fill="#C79B70"/>
<path d="M131.163 256.444H125.429V262.178H131.163V256.444Z" fill="#C79B70"/>
<path d="M155.028 256.444H149.294V262.147H155.028V256.444Z" fill="#C79B70"/>
<path d="M178.862 256.444H173.128V262.147H178.862V256.444Z" fill="#C79B70"/>
<path d="M202.726 256.444H196.993V262.147H202.726V256.444Z" fill="#C79B70"/>
<path d="M226.56 256.444H220.826V262.147H226.56V256.444Z" fill="#C79B70"/>
<path d="M131.163 280.279H125.429V286.012H131.163V280.279Z" fill="#C79B70"/>
<path d="M155.028 280.279H149.294V286.012H155.028V280.279Z" fill="#C79B70"/>
<path d="M178.862 280.279H173.128V286.012H178.862V280.279Z" fill="#C79B70"/>
<path d="M202.726 280.279H196.993V286.012H202.726V280.279Z" fill="#C79B70"/>
<path d="M226.56 280.279H220.826V286.012H226.56V280.279Z" fill="#C79B70"/>
<path d="M29.7845 274.328H24.0508V280.062H29.7845V274.328Z" fill="#C79B70"/>
<path d="M53.6493 274.328H47.9155V280.062H53.6493V274.328Z" fill="#C79B70"/>
<path d="M77.514 274.328H71.7803V280.062H77.514V274.328Z" fill="#C79B70"/>
<path d="M29.7845 298.162H24.0508V303.896H29.7845V298.162Z" fill="#C79B70"/>
<path d="M53.6493 298.162H47.9155V303.896H53.6493V298.162Z" fill="#C79B70"/>
<path d="M77.514 298.162H71.7803V303.896H77.514V298.162Z" fill="#C79B70"/>
<path d="M29.7845 322.027H24.0508V327.761H29.7845V322.027Z" fill="#C79B70"/>
<path d="M53.6493 322.027H47.9155V327.761H53.6493V322.027Z" fill="#C79B70"/>
<path d="M77.514 322.027H71.7803V327.761H77.514V322.027Z" fill="#C79B70"/>
<path d="M348.673 131.198H339.623V86.3493C339.615 85.5902 339.308 84.8649 338.768 84.3311C338.228 83.7972 337.5 83.4977 336.741 83.4978H265.209C264.45 83.4977 263.721 83.7972 263.181 84.3311C262.642 84.8649 262.334 85.5902 262.326 86.3493V131.198H253.276C252.517 131.206 251.792 131.513 251.258 132.053C250.724 132.592 250.425 133.321 250.425 134.08V230.657L232.294 220.894V92.3311C232.287 91.8092 232.149 91.2975 231.891 90.8434L214.008 61.0271C213.736 60.6136 213.369 60.2711 212.938 60.0285C212.506 59.7858 212.023 59.6501 211.528 59.6325H202.478V32.6987C202.478 32.3202 202.404 31.9453 202.259 31.5956C202.114 31.2459 201.902 30.9281 201.634 30.6605C201.367 30.3928 201.049 30.1805 200.699 30.0356C200.349 29.8908 199.975 29.8163 199.596 29.8163H178.645V0H172.911V29.8163H151.929C151.17 29.8244 150.444 30.1317 149.911 30.6713C149.377 31.211 149.077 31.9396 149.077 32.6987V59.6325H139.996C139.507 59.6549 139.03 59.7931 138.604 60.0355C138.179 60.2779 137.817 60.6177 137.548 61.0271L119.665 90.8434C119.392 91.291 119.252 91.807 119.262 92.3311V220.894L101.131 230.657V134.08C101.131 133.321 100.832 132.592 100.298 132.053C99.7638 131.513 99.0383 131.206 98.2792 131.198H89.1984V86.3803C89.1985 85.6211 88.8988 84.8926 88.365 84.3529C87.8311 83.8132 87.106 83.5059 86.3469 83.4978H14.7838C14.0247 83.5059 13.2996 83.8132 12.7658 84.3529C12.2319 84.8926 11.9323 85.6211 11.9323 86.3803V131.198H2.85151C2.09244 131.206 1.36733 131.513 0.833471 132.053C0.299608 132.592 -4.38808e-05 133.321 4.81946e-09 134.08V348.744C4.82017e-09 349.5 0.300627 350.226 0.835363 350.761C1.3701 351.295 2.09528 351.596 2.85151 351.596H348.704C349.463 351.596 350.192 351.296 350.731 350.762C351.271 350.229 351.579 349.503 351.587 348.744V134.08C351.587 133.699 351.511 133.321 351.364 132.97C351.217 132.618 351.002 132.299 350.731 132.031C350.46 131.763 350.139 131.551 349.786 131.408C349.433 131.265 349.054 131.193 348.673 131.198ZM17.4802 89.2317H83.3097V131.198H17.4802V89.2317ZM95.242 345.862H5.70264V136.807H95.3661L95.242 345.862ZM154.656 35.5501H196.621V59.6325H154.78L154.656 35.5501ZM141.484 65.3664H209.669L224.112 89.4487H126.917L141.484 65.3664ZM124.841 95.1826H226.436V217.795L176.847 191.171C176.425 190.954 175.958 190.838 175.483 190.83C175.009 190.838 174.542 190.954 174.12 191.171L124.531 217.795L124.841 95.1826ZM175.638 196.936L230.961 226.752L229.505 232.579H121.772L120.285 226.752L175.638 196.936ZM202.571 345.862H148.674V309.847H202.571V345.862ZM250.301 345.862H208.305V306.995C208.305 306.239 208.005 305.514 207.47 304.979C206.935 304.444 206.21 304.144 205.454 304.144H145.823C145.064 304.144 144.335 304.443 143.796 304.977C143.256 305.511 142.949 306.236 142.941 306.995V345.862H101.162V238.313H250.487L250.301 345.862ZM267.936 89.2317H333.766V131.198H267.936V89.2317ZM345.698 345.862H256.128V136.807H345.822L345.698 345.862Z" fill="#C79B70"/>
<path d="M327.939 155.063H322.205V160.797H327.939V155.063Z" fill="#C79B70"/>
<path d="M304.074 155.063H298.371V160.797H304.074V155.063Z" fill="#C79B70"/>
<path d="M316.006 107.363H310.273V113.097H316.006V107.363Z" fill="#C79B70"/>
<path d="M292.173 107.363H286.439V113.066H292.173V107.363Z" fill="#C79B70"/>
<path d="M280.24 155.063H274.507V160.797H280.24V155.063Z" fill="#C79B70"/>
<path d="M327.939 178.897H322.205V184.631H327.939V178.897Z" fill="#C79B70"/>
<path d="M304.105 178.897H298.371V184.631H304.105V178.897Z" fill="#C79B70"/>
<path d="M280.24 178.897H274.507V184.631H280.24V178.897Z" fill="#C79B70"/>
<path d="M327.939 202.763H322.205V208.497H327.939V202.763Z" fill="#C79B70"/>
<path d="M304.105 202.763H298.371V208.497H304.105V202.763Z" fill="#C79B70"/>
<path d="M280.24 202.763H274.507V208.497H280.24V202.763Z" fill="#C79B70"/>
<path d="M327.939 226.628H322.205V232.362H327.939V226.628Z" fill="#C79B70"/>
<path d="M304.105 226.628H298.371V232.362H304.105V226.628Z" fill="#C79B70"/>
<path d="M280.24 226.628H274.507V232.362H280.24V226.628Z" fill="#C79B70"/>
<path d="M327.939 250.462H322.205V256.196H327.939V250.462Z" fill="#C79B70"/>
<path d="M304.105 250.462H298.371V256.196H304.105V250.462Z" fill="#C79B70"/>
<path d="M280.24 250.462H274.507V256.196H280.24V250.462Z" fill="#C79B70"/>
<path d="M327.939 274.328H322.205V280.062H327.939V274.328Z" fill="#C79B70"/>
<path d="M304.105 274.328H298.371V280.062H304.105V274.328Z" fill="#C79B70"/>
<path d="M280.24 274.328H274.507V280.062H280.24V274.328Z" fill="#C79B70"/>
<path d="M327.939 298.162H322.205V303.896H327.939V298.162Z" fill="#C79B70"/>
<path d="M304.105 298.162H298.371V303.896H304.105V298.162Z" fill="#C79B70"/>
<path d="M280.24 298.162H274.507V303.896H280.24V298.162Z" fill="#C79B70"/>
<path d="M327.939 322.027H322.205V327.761H327.939V322.027Z" fill="#C79B70"/>
<path d="M304.105 322.027H298.371V327.761H304.105V322.027Z" fill="#C79B70"/>
<path d="M280.24 322.027H274.507V327.761H280.24V322.027Z" fill="#C79B70"/>
<path d="M29.7845 178.928H24.0508V184.662H29.7845V178.928Z" fill="#C79B70"/>
<path d="M53.6493 178.928H47.9155V184.662H53.6493V178.928Z" fill="#C79B70"/>
<path d="M77.483 178.928H71.7803V184.662H77.483V178.928Z" fill="#C79B70"/>
<path d="M29.7845 202.794H24.0508V208.528H29.7845V202.794Z" fill="#C79B70"/>
<path d="M53.6493 202.794H47.9155V208.528H53.6493V202.794Z" fill="#C79B70"/>
<path d="M77.483 202.794H71.7803V208.528H77.483V202.794Z" fill="#C79B70"/>
<path d="M29.7845 226.69H24.0508V232.424H29.7845V226.69Z" fill="#C79B70"/>
<path d="M53.6493 226.69H47.9155V232.424H53.6493V226.69Z" fill="#C79B70"/>
<path d="M77.483 226.69H71.7803V232.424H77.483V226.69Z" fill="#C79B70"/>
<path d="M29.7845 250.555H24.0508V256.289H29.7845V250.555Z" fill="#C79B70"/>
<path d="M53.6493 250.555H47.9155V256.289H53.6493V250.555Z" fill="#C79B70"/>
<path d="M77.483 250.555H71.7803V256.289H77.483V250.555Z" fill="#C79B70"/>
<path d="M29.7845 274.421H24.0508V280.155H29.7845V274.421Z" fill="#C79B70"/>
<path d="M53.6493 274.421H47.9155V280.155H53.6493V274.421Z" fill="#C79B70"/>
<path d="M77.483 274.421H71.7803V280.155H77.483V274.421Z" fill="#C79B70"/>
<path d="M29.7845 298.286H24.0508V304.02H29.7845V298.286Z" fill="#C79B70"/>
<path d="M53.6493 298.286H47.9155V304.02H53.6493V298.286Z" fill="#C79B70"/>
<path d="M77.483 298.286H71.7803V304.02H77.483V298.286Z" fill="#C79B70"/>
<path d="M29.7845 322.151H24.0508V327.885H29.7845V322.151Z" fill="#C79B70"/>
<path d="M53.6493 322.151H47.9155V327.885H53.6493V322.151Z" fill="#C79B70"/>
<path d="M77.483 322.151H71.7803V327.885H77.483V322.151Z" fill="#C79B70"/>
<path d="M155.028 137.086H149.294V142.82H155.028V137.086Z" fill="#C79B70"/>
<path d="M178.862 137.086H173.128V142.82H178.862V137.086Z" fill="#C79B70"/>
<path d="M202.726 137.086H196.993V142.82H202.726V137.086Z" fill="#C79B70"/>
<path d="M155.028 160.921H149.294V166.655H155.028V160.921Z" fill="#C79B70"/>
<path d="M178.862 160.921H173.128V166.655H178.862V160.921Z" fill="#C79B70"/>
<path d="M202.726 160.921H196.993V166.655H202.726V160.921Z" fill="#C79B70"/>
<path d="M155.028 160.828H149.294V166.562H155.028V160.828Z" fill="#C79B70"/>
<path d="M178.862 160.828H173.128V166.562H178.862V160.828Z" fill="#C79B70"/>
<path d="M202.726 160.828H196.993V166.562H202.726V160.828Z" fill="#C79B70"/>
</svg>
