<svg id="Layer_1" data-name="Layer 1" xmlns="http://www.w3.org/2000/svg" viewBox="0 0 1080 1080"><defs><style>.cls-1{fill:#47acc3;opacity:0.35;}.cls-2{fill:#e5e0c3;}.cls-3{fill:#f0eacc;}.cls-4{fill:#dccdab;}.cls-5{fill:#fbfbea;}.cls-6{fill:#e9605d;}.cls-7{fill:#7bc4b3;}.cls-8{fill:#184655;}.cls-9{fill:#33997e;}.cls-10{fill:#285261;}.cls-11{fill:#c34f58;}.cls-12{fill:#ec9271;}.cls-13{fill:#0e242b;}.cls-14{fill:#f2eef7;}.cls-15{fill:#f99e4e;}.cls-16{fill:#fbc14d;}.cls-17{fill:#bde1e9;}</style></defs><path class="cls-1" d="M168.08,967.38H940.72c90.09,0,142.82-103.56,87.88-175q-1.44-1.87-2.95-3.7c-22.81-27.74-55.23-48.89-68-82.59-16.24-42.78,4.11-93.66-14.14-135.6-22.64-52-91-64.06-129.18-105.82-27.89-30.54-36.81-73.81-57.14-110-32-56.87-94.69-94.67-159.32-96S469,292.48,434.72,348c-22.59,36.53-34.29,82.41-69.1,107.22C343.93,470.63,316,475.5,295.11,492c-35.49,28.09-40.54,80.2-65.6,118.1-42.68,64.53-136,78.5-179,142.8a134.27,134.27,0,0,0-11.16,20.34C-1.1,864.75,68.08,967.38,168.08,967.38Z"/><path class="cls-2" d="M288.57,361.83l-33.9-21.55V936.61a30.8,30.8,0,0,0,30.76,30.77h371.3a8.8,8.8,0,0,0,8.79-8.79V361.83Z"/><path class="cls-3" d="M665.51,361.83V958.59a8.78,8.78,0,0,1-8.78,8.78H285.44a30.74,30.74,0,0,1-26.23-14.73L661.47,361.83Z"/><path class="cls-4" d="M596.63,361.83H268.48V321.65H596.63C584.69,334.32,584,347.67,596.63,361.83Z"/><path class="cls-5" d="M656.73,371H285.43a30.77,30.77,0,0,1,0-61.53H600a8.79,8.79,0,0,1,0,17.58H285.43a13.19,13.19,0,0,0,0,26.37h371.3a8.79,8.79,0,0,1,0,17.58Z"/><path class="cls-6" d="M344.59,470.75v7.52q0,6.87-3.35,10.54t-9.9,3.68q-6.55,0-9.9-3.68t-3.36-10.54V448.85q0-6.87,3.36-10.54t9.9-3.68q6.54,0,9.9,3.68t3.35,10.54v5.5h-8.4v-6.06c0-2.05-.42-3.49-1.26-4.33a5.11,5.11,0,0,0-6.7,0c-.84.84-1.26,2.28-1.26,4.33v30.54q0,3.07,1.26,4.29a5.24,5.24,0,0,0,6.7,0q1.26-1.22,1.26-4.29v-8.08Z"/><path class="cls-6" d="M349.28,448.85q0-6.87,3.47-10.54t10-3.68q6.56,0,10,3.68t3.48,10.54v29.42q0,6.87-3.48,10.54t-10,3.68q-6.54,0-10-3.68t-3.47-10.54Zm8.89,30c0,2.05.41,3.49,1.25,4.33a5.11,5.11,0,0,0,6.7,0c.84-.84,1.26-2.28,1.26-4.33V448.29c0-2.05-.42-3.49-1.26-4.33a5.11,5.11,0,0,0-6.7,0c-.84.84-1.25,2.28-1.25,4.33Z"/><path class="cls-6" d="M389.92,450.87v41h-8V435.27h11.16l9.13,33.87V435.27h7.92v56.57H401Z"/><path class="cls-6" d="M413.92,435.27H441.4v8.09h-9.29v48.48h-8.89V443.36h-9.3Z"/><path class="cls-6" d="M471,491.84h-9l-1.54-10.26H449.56L448,491.84h-8.16l9.05-56.57h13ZM450.69,473.9h8.57L455,445.3Z"/><path class="cls-6" d="M500.8,470.75v7.52q0,6.87-3.36,10.54t-9.9,3.68q-6.54,0-9.89-3.68t-3.36-10.54V448.85q0-6.87,3.36-10.54t9.89-3.68q6.56,0,9.9,3.68t3.36,10.54v5.5h-8.41v-6.06c0-2.05-.41-3.49-1.25-4.33a5.13,5.13,0,0,0-6.71,0c-.83.84-1.25,2.28-1.25,4.33v30.54c0,2.05.42,3.48,1.25,4.29a5.26,5.26,0,0,0,6.71,0c.84-.81,1.25-2.24,1.25-4.29v-8.08Z"/><path class="cls-6" d="M503.63,435.27H531.1v8.09h-9.29v48.48h-8.89V443.36h-9.29Z"/><path class="cls-6" d="M556,435.27v43.64c0,2,.42,3.48,1.25,4.29a5.26,5.26,0,0,0,6.71,0c.84-.81,1.25-2.24,1.25-4.29V435.27h8.41v43.08q0,6.87-3.36,10.54t-9.9,3.68q-6.54,0-9.89-3.68t-3.36-10.54V435.27Z"/><path class="cls-6" d="M578.54,448.85q0-6.87,3.27-10.54t9.82-3.68q6.54,0,9.82,3.68t3.27,10.54v1.78h-8.4v-2.34c0-2.05-.4-3.49-1.18-4.33a4.9,4.9,0,0,0-6.54,0c-.78.84-1.17,2.28-1.17,4.33a10,10,0,0,0,1.29,5.13,21.42,21.42,0,0,0,3.23,4.2c1.3,1.32,2.68,2.64,4.16,4a39.67,39.67,0,0,1,4.17,4.32,22.09,22.09,0,0,1,3.23,5.34,17.61,17.61,0,0,1,1.29,7q0,6.87-3.35,10.54t-9.9,3.68q-6.56,0-9.9-3.68t-3.36-10.54v-3.48h8.41v4c0,2.05.42,3.48,1.25,4.29a5.26,5.26,0,0,0,6.71,0c.83-.81,1.25-2.24,1.25-4.29a10,10,0,0,0-1.29-5.13,21.42,21.42,0,0,0-3.23-4.2c-1.3-1.32-2.68-2.64-4.17-4a40.54,40.54,0,0,1-4.16-4.32,22.09,22.09,0,0,1-3.23-5.34A17.61,17.61,0,0,1,578.54,448.85Z"/><path class="cls-6" d="M598.52,533.44H321.66a4.6,4.6,0,0,1-4.6-4.6h0a4.6,4.6,0,0,1,4.6-4.61H598.52a4.6,4.6,0,0,1,4.61,4.61h0A4.6,4.6,0,0,1,598.52,533.44Z"/><path class="cls-6" d="M598.52,570.3H321.66a4.6,4.6,0,0,1-4.6-4.61h0a4.6,4.6,0,0,1,4.6-4.6H598.52a4.6,4.6,0,0,1,4.61,4.6h0A4.6,4.6,0,0,1,598.52,570.3Z"/><path class="cls-6" d="M598.52,607.15H321.66a4.6,4.6,0,0,1-4.6-4.6h0a4.6,4.6,0,0,1,4.6-4.6H598.52a4.6,4.6,0,0,1,4.61,4.6h0A4.6,4.6,0,0,1,598.52,607.15Z"/><path class="cls-6" d="M598.52,644H321.66a4.6,4.6,0,0,1-4.6-4.6h0a4.6,4.6,0,0,1,4.6-4.61H598.52a4.6,4.6,0,0,1,4.61,4.61h0A4.6,4.6,0,0,1,598.52,644Z"/><path class="cls-6" d="M598.52,680.87H321.66a4.6,4.6,0,0,1-4.6-4.61h0a4.6,4.6,0,0,1,4.6-4.6H598.52a4.6,4.6,0,0,1,4.61,4.6h0A4.6,4.6,0,0,1,598.52,680.87Z"/><path class="cls-7" d="M950.2,741.54c15.91,11.77,21,34.54,15.61,53.58s-19.49,34.59-35.57,46.13S896,861,878.48,870.22a448,448,0,0,0-114.05,86.26c7.29-40.22,17.06-80.35,34.76-117.19s43.87-70.44,78.7-91.82c11-6.72,22.88-12.26,35.61-14.05S939.87,733.9,950.2,741.54Z"/><path class="cls-8" d="M760.55,960.63C791.73,879.56,852.14,810.08,928.1,768c-72.26,46-130.28,116-161.65,195.72C763.94,962.28,763.06,962,760.55,960.63Z"/><path class="cls-9" d="M976.73,875c6.94,13.85,2.42,31.54-8.08,42.94s-25.85,17.25-41.17,19.61-30.9,1.63-46.4,1.9a351.23,351.23,0,0,0-110.17,19.85c19.33-25.49,40.36-50.06,65.76-69.52s55.58-33.64,87.47-36.24c10-.82,20.31-.46,29.83,2.8S972.22,866,976.73,875Z"/><path class="cls-8" d="M766.73,960.8a295.41,295.41,0,0,1,185.21-75.21c-66.75,6.55-132,34.86-182.16,79.42C768.52,963.15,768,962.66,766.73,960.8Z"/><path class="cls-10" d="M343.61,504.06H231a28.65,28.65,0,0,0-28.67,28.65V590a28.63,28.63,0,0,0,25.07,28.41v18.09l35.85-17.85h80.35a25,25,0,0,0,3.59-.24A28.65,28.65,0,0,0,372.26,590V532.71A28.65,28.65,0,0,0,343.61,504.06Z"/><path class="cls-2" d="M237.84,560.54a9.75,9.75,0,1,1-9.75-9.75A9.75,9.75,0,0,1,237.84,560.54Z"/><circle class="cls-2" cx="257.69" cy="560.54" r="9.75"/><circle class="cls-2" cx="287.3" cy="560.54" r="9.75"/><circle class="cls-2" cx="316.9" cy="560.54" r="9.75"/><path class="cls-2" d="M356.26,560.54a9.76,9.76,0,1,1-9.76-9.75A9.76,9.76,0,0,1,356.26,560.54Z"/><path class="cls-10" d="M620.3,944.09l-.4-11.22c26.13-.94,50.6-18.76,59.52-43.34,6.13-16.91,5.74-37.25-1.16-60.46-4-13.46-9.76-26.72-15.32-39.55-2.89-6.65-5.87-13.53-8.61-20.41-7-17.69-14.85-41.17-12.86-65.81,2.06-25.61,15.43-47.87,34.9-58.1l5.22,9.93c-16.09,8.46-27.17,27.26-28.93,49.07-1.8,22.33,5.52,44.2,12.11,60.76,2.67,6.73,5.61,13.52,8.46,20.09,5.7,13.13,11.6,26.71,15.79,40.82,7.6,25.57,7.92,48.27,1,67.49C679.53,922.13,650.89,943,620.3,944.09Z"/><path class="cls-6" d="M822.59,492.54,713.25,634a64.49,64.49,0,0,1-90.35,11.58l-11-8.53a20.43,20.43,0,0,1-3.69-28.67l12.87-16.66a20.49,20.49,0,0,1,28.69-3.68,14.18,14.18,0,0,0,19.87-2.54l95-122.95a14.22,14.22,0,0,0-2.56-19.89A20.47,20.47,0,0,1,758.42,414l12.87-16.66A20.48,20.48,0,0,1,800,393.69l11,8.53A64.47,64.47,0,0,1,822.59,492.54Z"/><path class="cls-11" d="M788.08,470.58,683.25,606.27a61.8,61.8,0,0,1-79.26,16,20.35,20.35,0,0,1,4.22-13.81l12.87-16.66a20.49,20.49,0,0,1,28.69-3.68,14.18,14.18,0,0,0,19.87-2.54l95-122.95a14.22,14.22,0,0,0-2.56-19.89A20.47,20.47,0,0,1,758.42,414l12.87-16.66a20.35,20.35,0,0,1,12.23-7.55A61.79,61.79,0,0,1,788.08,470.58Z"/><path class="cls-12" d="M738.36,623.41a56,56,0,0,1,10.69-71.25c-5.46-4.56-11.33-9.52-17.07-14.34a12.86,12.86,0,0,1-2.68-16.55l.13-.21a12.86,12.86,0,0,1,17.76-4.2l39.2,24.39c11.24,7,15.11,21.79,8.26,33.12l-.13.22c-4.4,7.2-9.57,14-13,21.66s-5.16,16.66-2.18,24.56A88,88,0,0,1,738.36,623.41Z"/><path class="cls-12" d="M728.75,547.76,704,529.12a10.88,10.88,0,0,1-2.14-15.24h0a10.88,10.88,0,0,1,15.24-2.14l24.72,18.64A10.89,10.89,0,0,1,744,545.62h0A10.88,10.88,0,0,1,728.75,547.76Z"/><path class="cls-12" d="M715.64,565.14,690.93,546.5a10.89,10.89,0,0,1-2.13-15.25h0A10.89,10.89,0,0,1,704,529.12l24.71,18.64A10.88,10.88,0,0,1,730.88,563h0A10.89,10.89,0,0,1,715.64,565.14Z"/><path class="cls-12" d="M702.54,582.51l-24.72-18.64a10.89,10.89,0,0,1-2.13-15.24h0a10.88,10.88,0,0,1,15.24-2.13l24.71,18.64a10.88,10.88,0,0,1,2.14,15.24h0A10.88,10.88,0,0,1,702.54,582.51Z"/><path class="cls-12" d="M689.43,599.89l-24.71-18.64A10.88,10.88,0,0,1,662.58,566h0a10.88,10.88,0,0,1,15.24-2.14l24.72,18.64a10.88,10.88,0,0,1,2.13,15.24h0A10.88,10.88,0,0,1,689.43,599.89Z"/><rect class="cls-10" x="712.99" y="664.03" width="73.67" height="303.35"/><path class="cls-13" d="M713,664v16h29.42a23,23,0,0,1,23,23V967.38h21.22V664Z"/><rect class="cls-14" x="697.92" y="609.67" width="103.8" height="56.88" rx="5.32"/><path class="cls-10" d="M786.65,631a7.12,7.12,0,1,1-7.11-7.11A7.11,7.11,0,0,1,786.65,631Z"/><rect class="cls-15" x="628.66" y="435.12" width="89.66" height="47.3"/><rect class="cls-5" x="636.08" y="389.43" width="74.83" height="84.05"/><path class="cls-16" d="M628.66,435.12a13.72,13.72,0,0,0-4.74,10.33v44.83a13.7,13.7,0,0,0,4.74,10.33l44.83-32.74Z"/><path class="cls-16" d="M718.32,435.12l-44.83,32.75,44.83,32.74a13.67,13.67,0,0,0,4.74-10.33V445.45A13.69,13.69,0,0,0,718.32,435.12Z"/><path class="cls-15" d="M628.66,500.61a13.68,13.68,0,0,0,9.06,3.46h71.55a13.65,13.65,0,0,0,9.05-3.46l-44.83-32.74Z"/><rect class="cls-10" x="646.26" y="405.06" width="54.46" height="6.16"/><rect class="cls-10" x="646.26" y="418.79" width="54.46" height="6.16"/><rect class="cls-10" x="646.26" y="432.53" width="54.46" height="6.16"/><path class="cls-16" d="M934.31,664H836l-17.54,12.23V548.18a21.26,21.26,0,0,1,21.26-21.26h94.59a21.26,21.26,0,0,1,21.26,21.26v94.59A21.26,21.26,0,0,1,934.31,664Z"/><path class="cls-10" d="M887,612.47a30.24,30.24,0,0,1-30.21-30.21v-9.41h60.42v9.41A30.24,30.24,0,0,1,887,612.47ZM861.3,577.34v4.92a25.72,25.72,0,0,0,51.44,0v-4.92Z"/><path class="cls-10" d="M887,595.89h0a13.63,13.63,0,0,1-13.63-13.63V560.75A13.62,13.62,0,0,1,887,547.13h0a13.62,13.62,0,0,1,13.62,13.62v21.51A13.62,13.62,0,0,1,887,595.89Z"/><rect class="cls-10" x="884.77" y="610.23" width="4.49" height="25.34"/><path class="cls-10" d="M898.73,641.3H875.3a6.21,6.21,0,0,1-6.21-6.21h0a6.22,6.22,0,0,1,6.21-6.22h23.43a6.22,6.22,0,0,1,6.21,6.22h0A6.21,6.21,0,0,1,898.73,641.3Z"/><path class="cls-17" d="M211,666.54H70.92c-1.62-9.22,2.84-19.27,11.15-23.57A22.77,22.77,0,0,1,108,647.06c-4.91-6.69-3.94-16.28,1.49-22.55a19.06,19.06,0,0,1,22.66-4.22c-.89-8.49,4.28-17.14,11.42-21.83a23.44,23.44,0,0,1,36.29,20.4,18.73,18.73,0,0,1,16.43,7.45,17.39,17.39,0,0,1,1.24,17.31C206.43,644.93,210.59,657.55,211,666.54Z"/><path class="cls-17" d="M1018,433.68H877.85c-1.63-9.22,2.83-19.28,11.15-23.58a22.75,22.75,0,0,1,25.91,4.1c-4.91-6.69-3.93-16.28,1.5-22.56a19,19,0,0,1,22.65-4.21c-.88-8.49,4.29-17.14,11.43-21.83A23.42,23.42,0,0,1,986.77,386a18.72,18.72,0,0,1,16.44,7.45,17.44,17.44,0,0,1,1.24,17.31C1013.35,412.07,1017.51,424.69,1018,433.68Z"/><polygon class="cls-16" points="737.98 301.47 725.13 309.51 740.19 312.02 737.98 301.47"/><rect class="cls-16" x="799.52" y="394.54" width="39.14" height="4.49" transform="translate(116.87 975.77) rotate(-65.35)"/><rect class="cls-16" x="786.64" y="388.11" width="39.14" height="4.49" transform="translate(115.21 960.32) rotate(-65.35)"/><path class="cls-7" d="M758.05,334.18c-5.79-8.26-17.4-12.15-20.56-21.74-1.72-5.24-.3-11.24,3.06-15.62a24.85,24.85,0,0,1,13.81-8.58,32.09,32.09,0,0,1,26.77,5.5c5.54,4.2,9.51,10.08,14.21,15.2a69.61,69.61,0,0,0,35.47,20.65c5.87,1.36,11.92,1.94,17.7,3.65S860,338,863.24,343.06c5.19,8,2.77,19.34-3.63,26.45s-15.85,10.71-25.23,12.6c-13.41,2.71-27.66,2.38-40.42-2.57S770.09,364.75,765.11,352C762.78,346,761.73,339.43,758.05,334.18Z"/><path class="cls-9" d="M801.93,315.28a72.38,72.38,0,0,0-2.33,33.9c.93,5.45,2.65,11.07,6.66,14.88a15.74,15.74,0,0,0,26-7.18c.56,4.54,6.73,7.18,11,5.43s6.55-6.65,6.34-11.22-2.51-8.82-5.3-12.44a45.2,45.2,0,0,0-13-11.41C822.48,322.11,811.92,317.21,801.93,315.28Z"/><path class="cls-7" d="M854.68,346a45.6,45.6,0,0,1,12.93-38.87c3.94-3.86,9.73-7.13,14.77-4.89,4.33,1.92,6.2,7.33,5.52,12S884.58,323,882,327c4.48-2.39,9.79-4.21,14.86-4.25S907.42,326,908.08,331c.52,3.91-2,7.74-5.42,9.78s-7.42,2.63-11.36,2.91c3.68.75,8,5.2,9.07,8.79a10.72,10.72,0,0,1-2.56,10.44c-3.15,3.2-8,4.05-12.49,3.9C872.05,366.34,856.71,359.08,854.68,346Z"/><path class="cls-10" d="M764.47,300.09a4.82,4.82,0,1,1-4.81-4.81A4.81,4.81,0,0,1,764.47,300.09Z"/><path class="cls-16" d="M227.74,776.33c-12.19-2.17-22.64-9.82-32-17.91s-18.3-17-29.35-22.56-25-7.26-35.5-.66c-12.63,8-16.12,25.54-12.39,40s13,26.71,21.54,39,16.64,25.71,17.42,40.63c.85,16-6.95,31.9-4.3,47.72,3.16,18.85,20.72,32.52,39.15,37.6s37.92,3.43,57,3,39.14.52,55.69,10.08a446,446,0,0,0-3.44-124.47c-1.72-10.16-3.85-20.4-8.5-29.58s-12.17-17.32-21.9-20.72C257.42,773.59,242.09,778.89,227.74,776.33Z"/><path class="cls-8" d="M294.2,935.05C270.52,865.87,218,807.05,152,775.72c61.78,43,110.89,102.46,144.19,170A37.78,37.78,0,0,0,294.2,935.05Z"/><path class="cls-8" d="M305.17,939.44a203.16,203.16,0,0,0-56.69-139.89C279,839.3,296.6,890.21,296.36,940.3,299.35,940.14,302.18,939.6,305.17,939.44Z"/><path class="cls-8" d="M308.36,938.15a203.17,203.17,0,0,0-141-53.75c49.87,4.75,99.15,26.5,135.68,60.78C304.91,942.89,306.45,940.44,308.36,938.15Z"/><rect class="cls-6" x="407.06" y="704.52" width="38.87" height="49.39"/><rect class="cls-6" x="480.29" y="704.52" width="38.87" height="49.39"/><rect class="cls-11" x="407.06" y="728.7" width="38.87" height="25.22"/><rect class="cls-11" x="480.29" y="728.7" width="38.87" height="25.22"/><path class="cls-6" d="M585.2,790.9v-.31A49.23,49.23,0,0,0,536,741.36H390.24A49.23,49.23,0,0,0,341,790.59v.31c0,12.24-7.4,23-18.49,28.17a61.5,61.5,0,0,0-35.63,55.81v70.73a21.77,21.77,0,0,0,21.76,21.77h308.9a21.77,21.77,0,0,0,21.76-21.77V874.88a61.5,61.5,0,0,0-35.63-55.81C592.6,813.91,585.2,803.14,585.2,790.9Z"/><path class="cls-11" d="M603.43,819A31,31,0,0,1,585.2,790.9v-.53H370.64a12.72,12.72,0,0,0-12.73,12.72h0a12.72,12.72,0,0,0,12.73,12.72H538.2a34.44,34.44,0,0,1,30.12,17.75h0c12.71,23-3.89,51.11-30.12,51.11H286.9v60.94a21.77,21.77,0,0,0,21.76,21.77h308.9a21.77,21.77,0,0,0,21.76-21.77V874.88A61.5,61.5,0,0,0,603.43,819Z"/><circle class="cls-8" cx="462.37" cy="848.66" r="58.32" transform="translate(-350.15 325.38) rotate(-28.64)"/><path class="cls-6" d="M436,835.93a10.33,10.33,0,1,1-4.82-13.79A10.35,10.35,0,0,1,436,835.93Z"/><path class="cls-6" d="M507.37,870.38a10.33,10.33,0,1,1-4.82-13.8A10.35,10.35,0,0,1,507.37,870.38Z"/><path class="cls-6" d="M488.9,817.46a10.33,10.33,0,1,1-4.82-13.79A10.36,10.36,0,0,1,488.9,817.46Z"/><path class="cls-6" d="M454.45,888.85a10.33,10.33,0,1,1-4.81-13.79A10.33,10.33,0,0,1,454.45,888.85Z"/><path class="cls-6" d="M434.26,866.22a10.34,10.34,0,1,1,.44-7.9A10.29,10.29,0,0,1,434.26,866.22Z"/><path class="cls-6" d="M509.09,840.09a10.25,10.25,0,0,1-5.9,5.27,10.33,10.33,0,1,1,6.35-13.16A10.25,10.25,0,0,1,509.09,840.09Z"/><path class="cls-6" d="M458.61,815.74a10.33,10.33,0,1,1,.45-7.9A10.26,10.26,0,0,1,458.61,815.74Z"/><path class="cls-6" d="M484.74,890.57a10.33,10.33,0,1,1,.45-7.89A10.28,10.28,0,0,1,484.74,890.57Z"/><polygon class="cls-8" points="522.19 872.22 494.63 864.23 518.03 880.83 522.19 872.22"/></svg>