<?xml version="1.0" encoding="utf-8"?>
<!-- Generator: Adobe Illustrator 26.0.2, SVG Export Plug-In . SVG Version: 6.00 Build 0)  -->
<svg version="1.1" id="Layer_1" xmlns="http://www.w3.org/2000/svg" xmlns:xlink="http://www.w3.org/1999/xlink" x="0px" y="0px"
	 viewBox="0 0 638.8 544.4" style="enable-background:new 0 0 638.8 544.4;" xml:space="preserve">
<style type="text/css">
	.st0{opacity:0.25;fill:#FCB97C;}
	.st1{fill:#FFFFFF;}
	.st2{fill:none;stroke:#DCEEF7;stroke-width:1.5906;stroke-linecap:round;stroke-miterlimit:10;}
	.st3{fill:none;stroke:#F4E8DC;stroke-width:1.5906;stroke-linecap:round;stroke-miterlimit:10;}
	.st4{fill:#F4E8DC;}
	.st5{fill:#FCB97C;}
	.st6{fill:#C79B70;}
	.st7{fill:#442D1E;}
	.st8{fill:#684B2A;}
	.st9{fill:#F9DA93;}
	.st10{fill:#BA853E;}
	.st11{fill:#A36F36;}
	.st12{opacity:0.32;fill:#BA853E;}
	.st13{fill:#B5803A;}
	.st14{fill:#915E30;}
	.st15{fill:#DDBC9E;}
	.st16{fill:#B6813C;}
	.st17{fill:#B7813B;}
	.st18{opacity:0.47;fill:#B6813C;}
	.st19{fill:none;stroke:#684B2A;stroke-width:0.9259;stroke-miterlimit:10;}
	.st20{fill:#E5CCC7;}
	.st21{fill:none;stroke:#442D1E;stroke-miterlimit:10;}
	.st22{fill:none;stroke:#FFFFFF;stroke-width:0.4855;stroke-linecap:round;stroke-linejoin:round;stroke-miterlimit:10;}
	.st23{fill:#EDF1F7;}
	.st24{fill:#44301E;}
	.st25{fill:none;}
	.st26{fill:#C18823;}
	.st27{fill:#A0A0A0;}
	.st28{opacity:0.33;fill:#937E50;enable-background:new    ;}
	.st29{opacity:0.29;fill:#44301E;enable-background:new    ;}
	.st30{opacity:0.35;fill:#EDF1F7;enable-background:new    ;}
</style>
<g>
	<path class="st0" d="M85.3,508.1c-54.6-51.8-70-218.1-43.8-296.5c28.1-84.1,64.9-105.7,172.2-65.4s111.6-75.9,215.7-84.2
		s227.7,96.1,193.6,292c-15.7,90.2-49.7,130.8-81.8,148.3L85.3,508.1z"/>
	<ellipse class="st0" cx="332.9" cy="505.2" rx="260.8" ry="12.7"/>
	<g>
		<g>
			<polygon class="st1" points="318.7,134.5 318.7,335.8 444.9,335.8 444.9,161.2 417.9,134.5 			"/>
			<g>
				<line class="st2" x1="358" y1="305" x2="408.3" y2="305"/>
				<line class="st3" x1="338.8" y1="157.7" x2="384.4" y2="157.4"/>
				<line class="st3" x1="338.8" y1="169" x2="384.5" y2="168.7"/>
				<line class="st3" x1="338.9" y1="188.4" x2="428.2" y2="187.8"/>
				<line class="st3" x1="339" y1="200.3" x2="428.3" y2="199.8"/>
				<line class="st3" x1="339" y1="212.3" x2="428.3" y2="211.7"/>
				<line class="st3" x1="339.1" y1="224.2" x2="428.4" y2="223.7"/>
				<line class="st2" x1="339.1" y1="236.2" x2="428.4" y2="235.6"/>
				<line class="st2" x1="339.2" y1="248.1" x2="428.5" y2="247.6"/>
				<line class="st2" x1="339.3" y1="260.1" x2="428.5" y2="259.5"/>
				<line class="st2" x1="339.3" y1="272.1" x2="428.6" y2="271.5"/>
				<line class="st2" x1="339.4" y1="284" x2="428.7" y2="283.5"/>
			</g>
			<polygon class="st4" points="417.9,134.5 444.8,161.3 417.9,161.3 			"/>
		</g>
		<g>
			<path class="st5" d="M467,200.3h-61.5c-3.4,0-6.1,2.8-6.1,6.1v4.7c0,3.4,2.8,6.1,6.1,6.1h52.8l4.2,7.4c0.6,1,2,0.7,2.3-0.4
				l1.3-7.1h0.9c3.4,0,6.1-2.8,6.1-6.1v-4.7C473.1,203.1,470.4,200.3,467,200.3z"/>
			<polygon class="st1" points="412.1,211.9 409.8,210.6 407.5,211.8 408,209.2 406.1,207.4 408.7,207 409.9,204.7 411,207.1 
				413.6,207.5 411.7,209.3 			"/>
			<polygon class="st1" points="426.8,211.9 424.5,210.6 422.2,211.8 422.7,209.2 420.8,207.4 423.4,207 424.6,204.7 425.7,207.1 
				428.3,207.5 426.4,209.3 			"/>
			<polygon class="st1" points="441,211.9 438.7,210.6 436.4,211.8 436.8,209.2 435,207.4 437.6,207 438.7,204.7 439.9,207.1 
				442.4,207.5 440.6,209.3 			"/>
			<polygon class="st1" points="454.3,211.9 452,210.6 449.6,211.8 450.1,209.2 448.2,207.4 450.8,207 452,204.7 453.1,207.1 
				455.7,207.5 453.8,209.3 			"/>
			<polygon class="st1" points="466.7,211.9 464.4,210.6 462.1,211.8 462.6,209.2 460.7,207.4 463.3,207 464.5,204.7 465.6,207.1 
				468.2,207.5 466.3,209.3 			"/>
		</g>
		<g>
			<g>
				<g>
					<g>
						<g>
							<rect x="217.4" y="175" class="st6" width="119.8" height="327.3"/>
						</g>
					</g>
					<rect x="214.1" y="175" class="st7" width="126.5" height="12.3"/>
				</g>
				<g>
					<g>
						<g>
							<rect x="233.1" y="204.5" class="st8" width="35.2" height="23.4"/>
							<rect x="230.2" y="225.4" class="st9" width="41.3" height="5"/>
							<rect x="248.7" y="204.5" class="st9" width="3.1" height="20.9"/>
						</g>
						<g>
							<rect x="286" y="204.5" class="st8" width="35.2" height="23.4"/>
							<rect x="283.1" y="225.4" class="st9" width="41.3" height="5"/>
							<rect x="301.6" y="204.5" class="st9" width="3.1" height="20.9"/>
						</g>
					</g>
					<g>
						<g>
							<rect x="233.1" y="254.3" class="st8" width="35.2" height="23.4"/>
							<rect x="230.2" y="275.2" class="st9" width="41.3" height="5"/>
							<rect x="248.7" y="254.3" class="st9" width="3.1" height="20.9"/>
						</g>
						<g>
							<rect x="286" y="254.3" class="st8" width="35.2" height="23.4"/>
							<rect x="283.1" y="275.2" class="st9" width="41.3" height="5"/>
							<rect x="301.6" y="254.3" class="st9" width="3.1" height="20.9"/>
						</g>
					</g>
					<g>
						<g>
							<rect x="233.1" y="304.1" class="st8" width="35.2" height="23.4"/>
							<rect x="230.2" y="325" class="st9" width="41.3" height="5"/>
							<rect x="248.7" y="304.1" class="st9" width="3.1" height="20.9"/>
						</g>
						<g>
							<rect x="286" y="304.1" class="st8" width="35.2" height="23.4"/>
							<rect x="283.1" y="325" class="st9" width="41.3" height="5"/>
							<rect x="301.6" y="304.1" class="st9" width="3.1" height="20.9"/>
						</g>
					</g>
					<g>
						<g>
							<rect x="233.1" y="353.9" class="st8" width="35.2" height="23.4"/>
							<rect x="230.2" y="374.8" class="st9" width="41.3" height="5"/>
							<rect x="248.7" y="353.9" class="st9" width="3.1" height="20.9"/>
						</g>
						<g>
							<rect x="286" y="353.9" class="st8" width="35.2" height="23.4"/>
							<rect x="283.1" y="374.8" class="st9" width="41.3" height="5"/>
							<rect x="301.6" y="353.9" class="st9" width="3.1" height="20.9"/>
						</g>
					</g>
					<g>
						<g>
							<rect x="233.1" y="403.8" class="st8" width="35.2" height="23.4"/>
							<rect x="230.2" y="424.7" class="st9" width="41.3" height="5"/>
							<rect x="248.7" y="403.8" class="st9" width="3.1" height="20.9"/>
						</g>
						<g>
							<rect x="286" y="403.8" class="st8" width="35.2" height="23.4"/>
							<rect x="283.1" y="424.7" class="st9" width="41.3" height="5"/>
							<rect x="301.6" y="403.8" class="st9" width="3.1" height="20.9"/>
						</g>
					</g>
					<g>
						<g>
							<rect x="233.1" y="453.6" class="st8" width="35.2" height="23.4"/>
							<rect x="230.2" y="474.5" class="st9" width="41.3" height="5"/>
							<rect x="248.7" y="453.6" class="st9" width="3.1" height="20.9"/>
						</g>
						<g>
							<rect x="286" y="453.6" class="st8" width="35.2" height="23.4"/>
							<rect x="283.1" y="474.5" class="st9" width="41.3" height="5"/>
							<rect x="301.6" y="453.6" class="st9" width="3.1" height="20.9"/>
						</g>
					</g>
				</g>
			</g>
			<g>
				<g>
					<g>
						<rect x="486.6" y="175" class="st6" width="82.9" height="327.3"/>
					</g>
				</g>
				<rect x="484.3" y="175" class="st7" width="87.5" height="12.3"/>
				<g>
					<g>
						<path class="st10" d="M554.1,230v-13.3c0-0.6,0.5-1.1,1.1-1.1l0,0c0.6,0,1.1,0.5,1.1,1.1V230"/>
						<g>
							<rect x="505.7" y="201.9" class="st8" width="46" height="28"/>
							<rect x="503.6" y="232.6" class="st11" width="50" height="2.9"/>
							<path class="st10" d="M501.1,230v-13.3c0-0.6,0.5-1.1,1.1-1.1l0,0c0.6,0,1.1,0.5,1.1,1.1V230"/>
							<rect x="503.3" y="217.9" class="st12" width="50.8" height="12.1"/>
							<rect x="499.5" y="229.9" class="st13" width="58.3" height="2.9"/>
							<rect x="527.3" y="201.9" class="st14" width="2" height="28"/>
						</g>
					</g>
					<g>
						<path class="st10" d="M553.8,290.1v-13.3c0-0.6,0.5-1.1,1.1-1.1l0,0c0.6,0,1.1,0.5,1.1,1.1v13.3"/>
						<g>
							<rect x="505.4" y="262.1" class="st8" width="46" height="28"/>
							<rect x="503.3" y="292.8" class="st11" width="50" height="2.9"/>
							<path class="st10" d="M500.8,290.1v-13.3c0-0.6,0.5-1.1,1.1-1.1l0,0c0.6,0,1.1,0.5,1.1,1.1v13.3"/>
							<rect x="502.9" y="278" class="st12" width="50.8" height="12.1"/>
							<rect x="499.2" y="290.1" class="st13" width="58.3" height="2.9"/>
							<rect x="527" y="262.1" class="st14" width="2" height="28"/>
						</g>
					</g>
					<g>
						<path class="st10" d="M553.5,350.3V337c0-0.6,0.5-1.1,1.1-1.1l0,0c0.6,0,1.1,0.5,1.1,1.1v13.3"/>
						<g>
							<rect x="505.1" y="322.2" class="st8" width="46" height="28"/>
							<rect x="503" y="352.9" class="st11" width="50" height="2.9"/>
							<path class="st10" d="M500.5,350.3V337c0-0.6,0.5-1.1,1.1-1.1l0,0c0.6,0,1.1,0.5,1.1,1.1v13.3"/>
							<rect x="502.6" y="338.2" class="st12" width="50.8" height="12.1"/>
							<rect x="498.9" y="350.2" class="st13" width="58.3" height="2.9"/>
							<rect x="526.7" y="322.2" class="st14" width="2" height="28"/>
						</g>
					</g>
					<g>
						<path class="st10" d="M553.1,410.5v-13.3c0-0.6,0.5-1.1,1.1-1.1l0,0c0.6,0,1.1,0.5,1.1,1.1v13.3"/>
						<g>
							<rect x="504.8" y="382.4" class="st8" width="46" height="28"/>
							<rect x="502.7" y="413.1" class="st11" width="50" height="2.9"/>
							<path class="st10" d="M500.2,410.5v-13.3c0-0.6,0.5-1.1,1.1-1.1l0,0c0.6,0,1.1,0.5,1.1,1.1v13.3"/>
							<rect x="502.3" y="398.4" class="st12" width="50.8" height="12.1"/>
							<rect x="498.6" y="410.4" class="st13" width="58.3" height="2.9"/>
							<rect x="526.4" y="382.4" class="st14" width="2" height="28"/>
						</g>
					</g>
					<g>
						<path class="st10" d="M552.8,470.6v-13.3c0-0.6,0.5-1.1,1.1-1.1l0,0c0.6,0,1.1,0.5,1.1,1.1v13.3"/>
						<g>
							<rect x="504.5" y="442.6" class="st8" width="46" height="28"/>
							<rect x="502.4" y="473.3" class="st11" width="50" height="2.9"/>
							<path class="st10" d="M499.9,470.6v-13.3c0-0.6,0.5-1.1,1.1-1.1l0,0c0.6,0,1.1,0.5,1.1,1.1v13.3"/>
							<rect x="502" y="458.5" class="st12" width="50.8" height="12.1"/>
							<rect x="498.2" y="470.6" class="st13" width="58.3" height="2.9"/>
							<rect x="526.1" y="442.6" class="st14" width="2" height="28"/>
						</g>
					</g>
				</g>
			</g>
			<g>
				<rect x="337.2" y="230.4" class="st15" width="152.2" height="271.9"/>
				<rect x="332.9" y="230.4" class="st7" width="160.7" height="10.2"/>
				<g>
					<g>
						<g>
							<path class="st16" d="M380.6,277.6c0,0.7-0.6,1.2-1.3,1.2c-0.7,0-1.3-0.5-1.3-1.2c0-0.7,0.6-1.2,1.3-1.2
								C380,276.4,380.6,277,380.6,277.6z"/>
							<g>
								<rect x="351.4" y="278" class="st16" width="0.4" height="16"/>
								<g>
									<rect x="353.8" y="255.8" class="st8" width="23.2" height="39.7"/>
									<rect x="350.2" y="294" class="st17" width="30.3" height="3"/>
									<rect x="379.2" y="278" class="st16" width="0.4" height="16"/>
									<ellipse class="st16" cx="351.6" cy="277.6" rx="1.3" ry="1.2"/>
								</g>
								<rect x="351.6" y="278.5" class="st18" width="27.5" height="15.5"/>
							</g>
						</g>
						<g>
							<ellipse class="st16" cx="427.2" cy="277.6" rx="1.3" ry="1.2"/>
							<g>
								<rect x="399.3" y="278" class="st16" width="0.4" height="16"/>
								<g>
									<rect x="401.7" y="255.8" class="st8" width="23.2" height="39.7"/>
									<rect x="398" y="294" class="st17" width="30.3" height="3"/>
									<rect x="427" y="278" class="st16" width="0.4" height="16"/>
									<path class="st16" d="M400.7,277.6c0,0.7-0.6,1.2-1.3,1.2c-0.7,0-1.3-0.5-1.3-1.2c0-0.7,0.6-1.2,1.3-1.2
										C400.2,276.4,400.7,277,400.7,277.6z"/>
								</g>
								<rect x="399.4" y="278.5" class="st18" width="27.5" height="15.5"/>
							</g>
						</g>
						<g>
							<ellipse class="st16" cx="475" cy="277.6" rx="1.3" ry="1.2"/>
							<g>
								<rect x="447.1" y="278" class="st16" width="0.4" height="16"/>
								<g>
									<rect x="449.5" y="255.8" class="st8" width="23.2" height="39.7"/>
									<rect x="445.9" y="294" class="st17" width="30.3" height="3"/>
									<rect x="474.8" y="278" class="st16" width="0.4" height="16"/>
									<path class="st16" d="M448.6,277.6c0,0.7-0.6,1.2-1.3,1.2c-0.7,0-1.3-0.5-1.3-1.2c0-0.7,0.6-1.2,1.3-1.2
										C448,276.4,448.6,277,448.6,277.6z"/>
								</g>
								<rect x="447.3" y="278.5" class="st18" width="27.5" height="15.5"/>
							</g>
						</g>
					</g>
					<g>
						<g>
							<path class="st16" d="M380.6,342.1c0,0.7-0.6,1.2-1.3,1.2c-0.7,0-1.3-0.5-1.3-1.2c0-0.7,0.6-1.2,1.3-1.2
								C380.1,340.9,380.6,341.4,380.6,342.1z"/>
							<g>
								<rect x="351.5" y="342.5" class="st16" width="0.4" height="16"/>
								<g>
									<rect x="353.9" y="320.3" class="st8" width="23.2" height="39.7"/>
									<rect x="350.2" y="358.5" class="st17" width="30.3" height="3"/>
									<rect x="379.2" y="342.5" class="st16" width="0.4" height="16"/>
									<path class="st16" d="M352.9,342.1c0,0.7-0.6,1.2-1.3,1.2c-0.7,0-1.3-0.5-1.3-1.2c0-0.7,0.6-1.2,1.3-1.2
										C352.3,340.9,352.9,341.4,352.9,342.1z"/>
								</g>
								<rect x="351.6" y="343" class="st18" width="27.5" height="15.5"/>
							</g>
						</g>
						<g>
							<ellipse class="st16" cx="427.2" cy="342.1" rx="1.3" ry="1.2"/>
							<g>
								<rect x="399.3" y="342.5" class="st16" width="0.4" height="16"/>
								<g>
									<rect x="401.7" y="320.3" class="st8" width="23.2" height="39.7"/>
									<rect x="398" y="358.5" class="st17" width="30.3" height="3"/>
									<rect x="427" y="342.5" class="st16" width="0.4" height="16"/>
									<ellipse class="st16" cx="399.5" cy="342.1" rx="1.3" ry="1.2"/>
								</g>
								<rect x="399.5" y="343" class="st18" width="27.5" height="15.5"/>
							</g>
						</g>
						<g>
							<path class="st16" d="M476.3,342.1c0,0.7-0.6,1.2-1.3,1.2c-0.7,0-1.3-0.5-1.3-1.2c0-0.7,0.6-1.2,1.3-1.2
								C475.7,340.9,476.3,341.4,476.3,342.1z"/>
							<g>
								<rect x="447.1" y="342.5" class="st16" width="0.4" height="16"/>
								<g>
									<rect x="449.5" y="320.3" class="st8" width="23.2" height="39.7"/>
									<rect x="445.9" y="358.5" class="st17" width="30.3" height="3"/>
									<rect x="474.8" y="342.5" class="st16" width="0.4" height="16"/>
									<path class="st16" d="M448.6,342.1c0,0.7-0.6,1.2-1.3,1.2c-0.7,0-1.3-0.5-1.3-1.2c0-0.7,0.6-1.2,1.3-1.2
										C448,340.9,448.6,341.4,448.6,342.1z"/>
								</g>
								<rect x="447.3" y="343" class="st18" width="27.5" height="15.5"/>
							</g>
						</g>
					</g>
					<g>
						<g>
							<path class="st16" d="M380.7,406.6c0,0.7-0.6,1.2-1.3,1.2c-0.7,0-1.3-0.5-1.3-1.2c0-0.7,0.6-1.2,1.3-1.2
								C380.1,405.4,380.7,405.9,380.7,406.6z"/>
							<g>
								<rect x="351.5" y="407" class="st16" width="0.4" height="16"/>
								<g>
									<rect x="353.9" y="384.8" class="st8" width="23.2" height="39.7"/>
									<rect x="350.2" y="422.9" class="st17" width="30.3" height="3"/>
									<rect x="379.2" y="407" class="st16" width="0.4" height="16"/>
									<ellipse class="st16" cx="351.6" cy="406.6" rx="1.3" ry="1.2"/>
								</g>
								<rect x="351.6" y="407.4" class="st18" width="27.5" height="15.5"/>
							</g>
						</g>
						<g>
							<ellipse class="st16" cx="427.2" cy="406.6" rx="1.3" ry="1.2"/>
							<g>
								<rect x="399.3" y="407" class="st16" width="0.4" height="16"/>
								<g>
									<rect x="401.7" y="384.8" class="st8" width="23.2" height="39.7"/>
									<rect x="398" y="422.9" class="st17" width="30.3" height="3"/>
									<rect x="427" y="407" class="st16" width="0.4" height="16"/>
									<path class="st16" d="M400.8,406.6c0,0.7-0.6,1.2-1.3,1.2c-0.7,0-1.3-0.5-1.3-1.2c0-0.7,0.6-1.2,1.3-1.2
										C400.2,405.4,400.8,405.9,400.8,406.6z"/>
								</g>
								<rect x="399.5" y="407.4" class="st18" width="27.5" height="15.5"/>
							</g>
						</g>
						<g>
							<ellipse class="st16" cx="475" cy="406.6" rx="1.3" ry="1.2"/>
							<g>
								<rect x="447.1" y="407" class="st16" width="0.4" height="16"/>
								<g>
									<rect x="449.5" y="384.8" class="st8" width="23.2" height="39.7"/>
									<rect x="445.9" y="422.9" class="st17" width="30.3" height="3"/>
									<rect x="474.8" y="407" class="st16" width="0.4" height="16"/>
									<path class="st16" d="M448.6,406.6c0,0.7-0.6,1.2-1.3,1.2c-0.7,0-1.3-0.5-1.3-1.2c0-0.7,0.6-1.2,1.3-1.2
										C448,405.4,448.6,405.9,448.6,406.6z"/>
								</g>
								<rect x="447.3" y="407.4" class="st18" width="27.5" height="15.5"/>
							</g>
						</g>
					</g>
					<g>
						<g>
							<ellipse class="st16" cx="379.4" cy="471.1" rx="1.3" ry="1.2"/>
							<g>
								<rect x="351.5" y="471.5" class="st16" width="0.4" height="16"/>
								<g>
									<rect x="353.9" y="449.3" class="st8" width="23.2" height="39.7"/>
									<rect x="350.2" y="487.4" class="st17" width="30.3" height="3"/>
									<rect x="379.2" y="471.5" class="st16" width="0.4" height="16"/>
									<path class="st16" d="M353,471.1c0,0.7-0.6,1.2-1.3,1.2c-0.7,0-1.3-0.5-1.3-1.2c0-0.7,0.6-1.2,1.3-1.2
										C352.4,469.9,353,470.4,353,471.1z"/>
								</g>
								<rect x="351.7" y="471.9" class="st18" width="27.5" height="15.5"/>
							</g>
						</g>
						<g>
							<path class="st16" d="M428.5,471.1c0,0.7-0.6,1.2-1.3,1.2c-0.7,0-1.3-0.5-1.3-1.2c0-0.7,0.6-1.2,1.3-1.2
								C427.9,469.9,428.5,470.4,428.5,471.1z"/>
							<g>
								<rect x="399.3" y="471.5" class="st16" width="0.4" height="16"/>
								<g>
									<rect x="401.7" y="449.3" class="st8" width="23.2" height="39.7"/>
									<rect x="398.1" y="487.4" class="st17" width="30.3" height="3"/>
									<rect x="427" y="471.5" class="st16" width="0.4" height="16"/>
									<ellipse class="st16" cx="399.5" cy="471.1" rx="1.3" ry="1.2"/>
								</g>
								<rect x="399.5" y="471.9" class="st18" width="27.5" height="15.5"/>
							</g>
						</g>
						<g>
							<ellipse class="st16" cx="475" cy="471.1" rx="1.3" ry="1.2"/>
							<g>
								<rect x="447.1" y="471.5" class="st16" width="0.4" height="16"/>
								<g>
									<rect x="449.5" y="449.3" class="st8" width="23.2" height="39.7"/>
									<rect x="445.9" y="487.4" class="st17" width="30.3" height="3"/>
									<rect x="474.8" y="471.5" class="st16" width="0.4" height="16"/>
									<path class="st16" d="M448.6,471.1c0,0.7-0.6,1.2-1.3,1.2c-0.7,0-1.3-0.5-1.3-1.2c0-0.7,0.6-1.2,1.3-1.2
										C448,469.9,448.6,470.4,448.6,471.1z"/>
								</g>
								<rect x="447.3" y="471.9" class="st18" width="27.5" height="15.5"/>
							</g>
						</g>
					</g>
				</g>
			</g>
			<g>
				<g>
					<rect x="88.9" y="274.2" class="st15" width="128.7" height="228"/>
					<polyline class="st7" points="221.2,274.2 221.2,282.8 85.3,282.8 85.3,274.2 					"/>
					<rect x="97.2" y="297.6" class="st8" width="26.1" height="49.3"/>
					<rect x="140.2" y="297.6" class="st8" width="26.1" height="49.3"/>
					<rect x="183.2" y="297.6" class="st8" width="26.1" height="49.3"/>
					<rect x="97.2" y="362.4" class="st8" width="26.1" height="49.3"/>
					<rect x="140.2" y="362.4" class="st8" width="26.1" height="49.3"/>
					<rect x="183.2" y="362.4" class="st8" width="26.1" height="49.3"/>
					<rect x="97.2" y="427.2" class="st8" width="26.1" height="49.3"/>
					<rect x="140.2" y="427.2" class="st8" width="26.1" height="49.3"/>
					<rect x="183.2" y="427.2" class="st8" width="26.1" height="49.3"/>
					<g>
						<g>
							<g>
								<path class="st17" d="M97.2,328.8V348h26.1v-19.3H97.2z M101.7,346.8h-2.3V330h2.3V346.8z M105.4,346.8h-2.3V330h2.3V346.8z
									 M109.2,346.8h-2.3V330h2.3V346.8z M113,346.8h-2.3V330h2.3V346.8z M116.9,346.8h-2.3V330h2.3V346.8z M121.1,346.8h-2.3V330
									h2.3V346.8z"/>
							</g>
							<rect x="94.4" y="327.5" class="st17" width="31.7" height="2.5"/>
							<rect x="94.4" y="346.8" class="st17" width="31.7" height="2.5"/>
						</g>
						<g>
							<g>
								<path class="st17" d="M140.2,328.8V348h26.1v-19.3H140.2z M144.7,346.8h-2.3V330h2.3V346.8z M148.4,346.8h-2.3V330h2.3
									V346.8z M152.2,346.8h-2.3V330h2.3V346.8z M156,346.8h-2.3V330h2.3V346.8z M159.9,346.8h-2.3V330h2.3V346.8z M164.1,346.8
									h-2.3V330h2.3V346.8z"/>
							</g>
							<rect x="137.4" y="327.5" class="st17" width="31.7" height="2.5"/>
							<rect x="137.4" y="346.8" class="st17" width="31.7" height="2.5"/>
						</g>
						<g>
							<g>
								<path class="st17" d="M183.1,328.8V348h26.1v-19.3H183.1z M187.7,346.8h-2.3V330h2.3V346.8z M191.3,346.8H189V330h2.3V346.8
									z M195.1,346.8h-2.3V330h2.3V346.8z M198.9,346.8h-2.3V330h2.3V346.8z M202.9,346.8h-2.3V330h2.3V346.8z M207.1,346.8h-2.3
									V330h2.3V346.8z"/>
							</g>
							<rect x="180.4" y="327.5" class="st17" width="31.7" height="2.5"/>
							<rect x="180.4" y="346.8" class="st17" width="31.7" height="2.5"/>
						</g>
						<g>
							<g>
								<path class="st17" d="M97.2,393.6v19.3h26.1v-19.3H97.2z M101.7,411.6h-2.3v-16.8h2.3V411.6z M105.4,411.6h-2.3v-16.8h2.3
									V411.6z M109.2,411.6h-2.3v-16.8h2.3V411.6z M113,411.6h-2.3v-16.8h2.3V411.6z M116.9,411.6h-2.3v-16.8h2.3V411.6z
									 M121.1,411.6h-2.3v-16.8h2.3V411.6z"/>
							</g>
							<rect x="94.4" y="392.3" class="st17" width="31.7" height="2.5"/>
							<rect x="94.4" y="411.6" class="st17" width="31.7" height="2.5"/>
						</g>
						<g>
							<g>
								<path class="st17" d="M140.2,393.6v19.3h26.1v-19.3H140.2z M144.7,411.6h-2.3v-16.8h2.3V411.6z M148.4,411.6h-2.3v-16.8h2.3
									V411.6z M152.2,411.6h-2.3v-16.8h2.3V411.6z M156,411.6h-2.3v-16.8h2.3V411.6z M159.9,411.6h-2.3v-16.8h2.3V411.6z
									 M164.1,411.6h-2.3v-16.8h2.3V411.6z"/>
							</g>
							<rect x="137.4" y="392.3" class="st17" width="31.7" height="2.5"/>
							<rect x="137.4" y="411.6" class="st17" width="31.7" height="2.5"/>
						</g>
						<g>
							<g>
								<path class="st17" d="M183.1,393.6v19.3h26.1v-19.3H183.1z M187.7,411.6h-2.3v-16.8h2.3V411.6z M191.3,411.6H189v-16.8h2.3
									V411.6z M195.1,411.6h-2.3v-16.8h2.3V411.6z M198.9,411.6h-2.3v-16.8h2.3V411.6z M202.9,411.6h-2.3v-16.8h2.3V411.6z
									 M207.1,411.6h-2.3v-16.8h2.3V411.6z"/>
							</g>
							<rect x="180.4" y="392.3" class="st17" width="31.7" height="2.5"/>
							<rect x="180.4" y="411.6" class="st17" width="31.7" height="2.5"/>
						</g>
						<g>
							<g>
								<path class="st17" d="M97.2,458.4v19.3h26.1v-19.3H97.2z M101.7,476.4h-2.3v-16.8h2.3V476.4z M105.4,476.4h-2.3v-16.8h2.3
									V476.4z M109.2,476.4h-2.3v-16.8h2.3V476.4z M113,476.4h-2.3v-16.8h2.3V476.4z M116.9,476.4h-2.3v-16.8h2.3V476.4z
									 M121.1,476.4h-2.3v-16.8h2.3V476.4z"/>
							</g>
							<rect x="94.4" y="457" class="st17" width="31.7" height="2.5"/>
							<rect x="94.4" y="476.4" class="st17" width="31.7" height="2.5"/>
						</g>
						<g>
							<g>
								<path class="st17" d="M140.2,458.4v19.3h26.1v-19.3H140.2z M144.7,476.4h-2.3v-16.8h2.3V476.4z M148.4,476.4h-2.3v-16.8h2.3
									V476.4z M152.2,476.4h-2.3v-16.8h2.3V476.4z M156,476.4h-2.3v-16.8h2.3V476.4z M159.9,476.4h-2.3v-16.8h2.3V476.4z
									 M164.1,476.4h-2.3v-16.8h2.3V476.4z"/>
							</g>
							<rect x="137.4" y="457" class="st17" width="31.7" height="2.5"/>
							<rect x="137.4" y="476.4" class="st17" width="31.7" height="2.5"/>
						</g>
						<g>
							<g>
								<path class="st17" d="M183.1,458.4v19.3h26.1v-19.3H183.1z M187.7,476.4h-2.3v-16.8h2.3V476.4z M191.3,476.4H189v-16.8h2.3
									V476.4z M195.1,476.4h-2.3v-16.8h2.3V476.4z M198.9,476.4h-2.3v-16.8h2.3V476.4z M202.9,476.4h-2.3v-16.8h2.3V476.4z
									 M207.1,476.4h-2.3v-16.8h2.3V476.4z"/>
							</g>
							<rect x="180.4" y="457" class="st17" width="31.7" height="2.5"/>
							<rect x="180.4" y="476.4" class="st17" width="31.7" height="2.5"/>
						</g>
					</g>
				</g>
				<line class="st19" x1="88.9" y1="355.7" x2="217.6" y2="355.7"/>
				<line class="st19" x1="88.9" y1="422.1" x2="217.6" y2="422.1"/>
			</g>
		</g>
		<g>
			<g>
				<path class="st20" d="M176.3,313.8l-0.1-29.2l1.5-1l-3.9-1.9l5.3-2.9l-3-1.1l-0.2-48.9c-3.4-1.3-11.8-5.5-14.7-17.6
					c-0.5-2.1-0.8-4.4-0.8-6.6c0-10.8,6.2-20.3,15.9-24.4c1.2-0.5,2.5-1,3.9-1.3c1.8-0.4,3.7-0.7,5.7-0.7c0,0,0,0,0,0
					c1.7,0,3.3,0.2,4.9,0.5c1.4,0.3,2.8,0.7,4.2,1.2c9.9,3.8,16.5,13.6,16.6,24.5c0.1,11.8-7.4,22-18.3,25.3l-0.7,83.1l-8.1,12.1
					L176.3,313.8z M184.9,187c-0.9,0.1-1.6,1-1.6,1.9c0,0.5,0.2,1.1,0.6,1.4c0.2,0.2,0.6,0.5,1.2,0.5c0.5,0,1-0.2,1.4-0.7
					c0.3-0.4,0.4-0.8,0.4-1.3c0-0.8-0.5-1.5-1.2-1.8c-0.2-0.1-0.4-0.1-0.7-0.1C185.1,187,185,187,184.9,187z"/>
				<path class="st21" d="M209.7,204.5c0-10.4-6.4-19.3-15.4-22.8c-1.2-0.5-2.5-0.9-3.9-1.1c-1.5-0.3-3-0.4-4.5-0.4
					c-1.8,0-3.6,0.2-5.2,0.6c-1.3,0.3-2.5,0.7-3.6,1.2c-8.7,3.7-14.8,12.5-14.7,22.7c0,2.1,0.3,4.2,0.8,6.1
					c3.3,14,14.7,16.7,14.7,16.7c0,0,0,0,0,0c0,0,0,0,0,0c0,0,0,0,0,0v0l0.1,21.5l0,1l0,1.1l0.1,25.3l5.6,2.1l-5.7,3.1l3.6,1.7
					l-3.4,2.2l0.1,27.6l6.2,8.4l6.3-9.4l0.7-83.9c0,0,0,0,0,0C201.9,225.8,209.7,216.1,209.7,204.5z M187.9,191.4
					c-0.7,0.8-1.7,1.3-2.8,1.3c-1,0-1.8-0.4-2.5-1c-0.7-0.7-1.2-1.7-1.2-2.8c0-2,1.4-3.6,3.3-3.8c0,0,0,0,0,0c0.1,0,0.3,0,0.4,0
					c0.5,0,1,0.1,1.4,0.3c1.3,0.6,2.3,1.9,2.3,3.5C188.8,189.8,188.5,190.7,187.9,191.4z"/>
			</g>
			<path class="st5" d="M182.7,191c-0.8-0.7-1.4-1.8-1.4-3c-0.1-2.2,1.5-4,3.5-4.3c0,0,0,0,0,0c0.6,0.1,1.2,0.2,2,0.2
				c0,0,0.1,0,0.1,0c4.2,0.3,4.4-3.2,4.1-5.4c-0.1-1.1-0.4-1.8-0.4-1.8c-1.2-4-2.5-7.5-3.9-10.7c-3.6,6.3-6.1,11.3-6.4,12.6
				c0,0.1-0.1,0.2-0.1,0.4c-1.4,0.4-2.7,0.8-4,1.4c0.9-5.5,4.1-12.9,7.8-19.9c-7.8-14.8-24.7-30.7-24.7-30.7l10.2,2.3
				c0,0,8.8,10.3,16.8,24.3c5-9,9.2-16.6,9.2-16.6l8,2.6c-4.7,5.7-10.5,13.2-14.3,19.5c1,2,2.1,4.1,3.1,6.3c2.1,4.6,3,8.5,2.9,11.6
				c-0.1,5.8-3.1,9.4-6.7,10.8C186.7,191.3,184.6,191.4,182.7,191z"/>
		</g>
		<g>
			<path class="st5" d="M97.5,241.7h61.8c3.4,0,6.2,2.8,6.2,6.2v4.7c0,3.4-2.8,6.2-6.2,6.2h-53l-4.3,7.5c-0.6,1-2.1,0.7-2.3-0.4
				l-1.3-7.1h-0.9c-3.4,0-6.2-2.8-6.2-6.2v-4.7C91.3,244.5,94.1,241.7,97.5,241.7z"/>
			<polygon class="st22" points="152.7,253.3 155,252.1 157.3,253.3 156.9,250.7 158.7,248.9 156.1,248.5 154.9,246.2 153.8,248.5 
				151.2,248.9 153.1,250.7 			"/>
			<polygon class="st22" points="137.9,253.3 140.2,252.1 142.5,253.3 142.1,250.7 143.9,248.9 141.3,248.5 140.1,246.2 139,248.5 
				136.4,248.9 138.3,250.7 			"/>
			<polygon class="st1" points="123.7,253.3 126,252.1 128.3,253.3 127.9,250.7 129.7,248.9 127.1,248.5 125.9,246.2 124.8,248.5 
				122.2,248.9 124.1,250.7 			"/>
			<polygon class="st1" points="110.3,253.3 112.6,252.1 115,253.3 114.5,250.7 116.4,248.9 113.8,248.5 112.6,246.2 111.4,248.5 
				108.8,248.9 110.7,250.7 			"/>
			<polygon class="st1" points="97.8,253.3 100.1,252.1 102.4,253.3 102,250.7 103.8,248.9 101.2,248.5 100,246.2 98.9,248.5 
				96.3,248.9 98.2,250.7 			"/>
		</g>
		<g>
			<path class="st5" d="M232.4,137.8h61.3c3.4,0,6.1,2.8,6.1,6.1v4.7c0,3.4-2.8,6.1-6.1,6.1h-52.7l-4.2,7.4c-0.6,1-2,0.7-2.3-0.4
				l-1.3-7.1h-0.9c-3.4,0-6.1-2.8-6.1-6.1V144C226.3,140.6,229,137.8,232.4,137.8z"/>
			<polygon class="st22" points="287.2,149.4 289.5,148.1 291.8,149.3 291.4,146.8 293.2,144.9 290.6,144.6 289.4,142.2 
				288.3,144.6 285.7,145 287.6,146.8 			"/>
			<polygon class="st1" points="272.5,149.4 274.8,148.1 277.1,149.3 276.6,146.8 278.5,144.9 275.9,144.6 274.7,142.2 273.6,144.6 
				271,145 272.9,146.8 			"/>
			<polygon class="st1" points="258.4,149.4 260.7,148.1 263,149.3 262.5,146.8 264.4,144.9 261.8,144.6 260.6,142.2 259.5,144.6 
				256.9,145 258.8,146.8 			"/>
			<polygon class="st1" points="245.1,149.4 247.4,148.1 249.7,149.3 249.3,146.8 251.1,144.9 248.6,144.6 247.4,142.2 246.2,144.6 
				243.7,145 245.6,146.8 			"/>
			<polygon class="st1" points="232.7,149.4 235,148.1 237.3,149.3 236.8,146.8 238.7,144.9 236.1,144.6 234.9,142.2 233.8,144.6 
				231.2,145 233.1,146.8 			"/>
		</g>
	</g>
</g>
<g>
	<path class="st7" d="M123.3,399.5l83.5,83.5c16.3,16.3,42.8,16.3,59.2,0l10-10c3.8-3.8,3.8-9.9,0-13.6c0,0,0,0,0,0l-34.1-34.1
		c-3.8-3.8-9.9-3.8-13.6,0c0,0,0,0,0,0l-17,17c-1.3,1.3-3.5,1.3-4.8,0c0,0,0,0,0,0L165,401.1c-1.3-1.3-1.3-3.4,0-4.8l16.8-16.8
		c3.8-3.8,3.8-9.9,0-13.7l-35-35c-3.7-3.7-9.8-3.8-13.6-0.1l-9.5,9.2c-16.6,16.1-17,42.5-1,59.1C123,399.2,123.1,399.4,123.3,399.5z
		"/>
	<path class="st23" d="M125.9,341.6l46.9,46.9l1.6-1.6l7.4-7.4c3.8-3.8,3.8-9.9,0-13.7l-35-35c-3.7-3.7-9.8-3.8-13.6-0.1l-9.5,9.2
		L125.9,341.6z"/>
	<path class="st24" d="M172.8,389.5l-47.4-47.4l-2.7-2.2l10.1-9.7c4.1-3.9,10.5-3.9,14.6,0.1l35,35c4.1,4.1,4.1,10.6,0,14.7
		L172.8,389.5z M124.9,339.8l1.5,1.2l46.4,46.4l8.5-8.5c3.5-3.5,3.5-9.1,0-12.6l-35-35c-3.4-3.4-9-3.5-12.5-0.1L124.9,339.8z"/>
	<path class="st23" d="M221.4,435.4l46.9,46.9l1.6-1.6l7.4-7.4c3.8-3.8,3.8-9.9,0-13.7l-35-35c-3.7-3.7-9.7-3.8-13.5-0.1l-9.5,9.2
		L221.4,435.4z"/>
	<path class="st24" d="M268.3,483.4L220.9,436l-2.7-2.2l10.1-9.7c4.1-3.9,10.5-3.9,14.6,0.1l35,35c4.1,4,4.1,10.6,0,14.7
		c0,0,0,0,0,0L268.3,483.4z M220.4,433.7l1.5,1.2l46.4,46.4l8.5-8.5c3.5-3.5,3.5-9.1,0-12.6l-35-35c-3.4-3.4-9-3.5-12.5-0.1
		L220.4,433.7z"/>
	<line class="st25" x1="129.5" y1="336" x2="158.1" y2="364.6"/>
	<path class="st24" d="M158.1,365.4c-0.2,0-0.4-0.1-0.5-0.2L129,336.6c-0.2-0.3-0.1-0.8,0.2-1c0.3-0.2,0.6-0.2,0.9,0l28.6,28.6
		c0.3,0.3,0.3,0.8,0,1C158.5,365.3,158.3,365.4,158.1,365.4z"/>
	<line class="st25" x1="243.2" y1="449.7" x2="271.8" y2="478.3"/>
	<path class="st24" d="M271.8,479.1c-0.2,0-0.4-0.1-0.5-0.2l-28.6-28.6c-0.2-0.3-0.1-0.8,0.2-1c0.3-0.2,0.6-0.2,0.9,0l28.6,28.6
		c0.3,0.3,0.3,0.8,0,1.1C272.2,479,272,479.1,271.8,479.1L271.8,479.1z"/>
</g>
<path class="st26" d="M340.8,419.3c-0.9,6-6.4,10.2-12.5,9.3c-6-0.9-10.2-6.4-9.3-12.5c0.9-6,6.4-10.2,12.5-9.3c0,0,0.1,0,0.1,0
	C337.5,407.8,341.6,413.3,340.8,419.3z"/>
<g>
	<path class="st7" d="M389.2,494.9l-105.5,30.3c-11.9,3.4-24.4-3.5-27.8-15.4c0,0,0,0,0,0l-73.5-255.9c-3.4-11.9,3.5-24.4,15.4-27.8
		c0,0,0,0,0,0l105.5-30.3c11.9-3.4,24.4,3.5,27.8,15.4c0,0,0,0,0,0l73.5,255.9C408,479.1,401.1,491.5,389.2,494.9z"/>
	
		<rect x="224.4" y="231.8" transform="matrix(0.9611 -0.2761 0.2761 0.9611 -87.3296 94.6651)" class="st23" width="136.3" height="251.5"/>
	
		<rect x="192.3" y="236.3" transform="matrix(0.9611 -0.2761 0.2761 0.9611 -57.7215 81.4632)" class="st5" width="136.3" height="18.9"/>
	<path class="st23" d="M335.3,501.4c-0.4,0.2-0.8,0.3-1.2,0.4c-4.7,1.3-9.5-1.4-10.8-6c-1.3-4.7,1.4-9.5,6-10.8s9.5,1.4,10.8,6
		C341.3,495.2,339.2,499.6,335.3,501.4z M328.6,486.7c-3.6,1.7-5.2,6-3.5,9.7s6,5.2,9.7,3.5c3.6-1.7,5.2-6,3.5-9.7
		c-1.5-3.3-5.2-4.9-8.6-3.9C329.3,486.4,328.9,486.6,328.6,486.7L328.6,486.7z"/>
	<path class="st23" d="M235,233.6c-0.1,0.1-0.3,0.1-0.4,0.2c-0.7,0.2-1.5,0.1-2.1-0.2c-0.7-0.4-1.1-1-1.3-1.7
		c-0.4-1.5,0.4-3.1,1.9-3.5c0.7-0.2,1.5-0.1,2.1,0.2c0.7,0.4,1.1,1,1.3,1.7l0,0C236.9,231.6,236.3,233,235,233.6z M233.2,229.7
		c-0.6,0.3-0.9,1-0.7,1.6c0.1,0.3,0.3,0.6,0.6,0.8c0.3,0.2,0.7,0.2,1,0.1c0.3-0.1,0.6-0.3,0.8-0.7c0.2-0.3,0.2-0.7,0.1-1l0,0
		c-0.1-0.3-0.3-0.6-0.7-0.8c-0.3-0.2-0.7-0.2-1-0.1L233.2,229.7z"/>
	<path class="st23" d="M277.6,221.4c-0.1,0.1-0.3,0.1-0.4,0.2l-33.4,9.6c-0.7,0.2-1.5,0.1-2.2-0.2c-1.4-0.8-1.9-2.5-1.1-3.8
		c0,0,0,0,0,0c0.4-0.7,1-1.1,1.7-1.4l33.4-9.6c1.5-0.4,3.1,0.4,3.5,1.9C279.5,219.4,278.9,220.8,277.6,221.4L277.6,221.4z
		 M242.4,227.1c-0.6,0.3-0.9,1-0.7,1.6c0.2,0.7,1,1.1,1.7,0.9l33.4-9.6c0.7-0.2,1.1-1,0.9-1.7c-0.1-0.3-0.3-0.6-0.6-0.8
		c-0.3-0.2-0.7-0.2-1-0.1l-33.4,9.6L242.4,227.1z"/>
	<path class="st27" d="M361.9,390l-91.4,26.2c-1.5,0.4-2.3,2-1.9,3.5l6.8,23.7c0.4,1.5,2,2.3,3.5,1.9c0,0,0,0,0,0L357,423l12.3,7
		l-2.8-9.7l3.8-1.1c1.5-0.4,2.3-2,1.9-3.5c0,0,0,0,0,0l-6.8-23.7C364.9,390.5,363.4,389.6,361.9,390C361.9,390,361.9,390,361.9,390z
		"/>
	<path class="st24" d="M357.3,423.6L357.3,423.6L279,446.1c-0.9,0.3-1.9,0.2-2.7-0.3c-0.8-0.5-1.4-1.2-1.7-2.1l-6.8-23.7
		c-0.5-1.9,0.5-3.8,2.4-4.4c0,0,0,0,0,0l21.1-6.1c0.4,0,0.8,0.3,0.8,0.7c0,0.3-0.1,0.6-0.4,0.7l-21.1,6.1c-1.1,0.3-1.7,1.5-1.4,2.6
		l6.8,23.7c0.3,1.1,1.5,1.7,2.6,1.4l78.2-22.4c0.4-0.1,0.8,0.1,1,0.4C357.9,423,357.7,423.5,357.3,423.6L357.3,423.6z"/>
	<path class="st27" d="M333.6,291.8L242.2,318c-1.5,0.4-2.3,2-1.9,3.5l6.8,23.7c0.4,1.5,2,2.3,3.5,1.9c0,0,0,0,0,0l78.2-22.4l12.3,7
		l-2.8-9.7l3.8-1.1c1.5-0.4,2.3-2,1.9-3.5c0,0,0,0,0,0l-6.8-23.7C336.7,292.2,335.2,291.3,333.6,291.8
		C333.7,291.8,333.7,291.8,333.6,291.8z"/>
	<path class="st24" d="M342.2,333.2l-13.6-7.7l-77.8,22.4c-1.9,0.5-3.8-0.5-4.4-2.4c-0.2-0.4,0-0.8,0.4-1c0.4-0.2,0.8,0,1,0.4
		c0,0.1,0.1,0.2,0.1,0.2c0.1,0.5,0.5,1,1,1.2c0.5,0.3,1,0.3,1.6,0.2l78.5-22.5l11,6.2l-2.5-8.7l4.5-1.3c0.5-0.1,1-0.5,1.2-1
		c0.3-0.5,0.3-1,0.2-1.6l-4.5-15.8c-0.1-0.4,0.1-0.8,0.5-0.9c0.4-0.1,0.8,0.1,0.9,0.5l4.5,15.8c0.5,1.9-0.5,3.8-2.4,4.4c0,0,0,0,0,0
		l-3.1,0.9L342.2,333.2z"/>
	<path class="st5" d="M238.2,369.7l91.4-26.3c1.5-0.4,3,0.4,3.5,1.9c0,0,0,0,0,0l6.8,23.7c0.4,1.5-0.4,3-1.9,3.5c0,0,0,0,0,0
		L259.9,395l-6.7,12.4l-2.8-9.7l-3.8,1.1c-1.5,0.4-3-0.4-3.5-1.9c0,0,0,0,0,0l-6.8-23.7C235.9,371.7,236.8,370.1,238.2,369.7z"/>
	<path class="st24" d="M338.7,373.1c-0.2,0.1-0.3,0.1-0.5,0.2l-48.8,14c-0.4,0.1-0.8-0.1-0.9-0.5c-0.1-0.4,0.1-0.8,0.5-0.9l48.8-14
		c1.1-0.3,1.7-1.4,1.4-2.5c0,0,0,0,0,0l-6.8-23.7c-0.3-1.1-1.5-1.7-2.6-1.4c-0.4,0-0.8-0.3-0.8-0.7c0-0.3,0.1-0.6,0.4-0.7
		c1.9-0.5,3.8,0.5,4.4,2.4l6.8,23.7C341.1,370.5,340.3,372.3,338.7,373.1L338.7,373.1z"/>
	
		<rect x="255.9" y="455.7" transform="matrix(0.9611 -0.2761 0.2761 0.9611 -116.3941 107.6252)" class="st1" width="136.3" height="23.1"/>
	<path class="st28" d="M379.3,459c-0.3,0.1-0.7,0.3-1,0.4l-84.9,24.4c-3.9,1-7.9-1.4-8.9-5.3c-1-3.7,1.2-7.6,4.9-8.8l84.9-24.4
		c3.9-1.2,8,1,9.1,4.9C384.4,453.7,382.6,457.5,379.3,459z M377.8,457.9c3.1-0.9,4.9-4.1,4-7.2c-0.9-3.1-4.1-4.9-7.2-4l0,0
		l-84.9,24.4c-3.1,0.9-4.9,4.1-4,7.2c0.9,3.1,4.1,4.9,7.2,4L377.8,457.9z"/>
	<path class="st1" d="M220.9,259.9c-0.1,0.1-0.3,0.1-0.4,0.2c-1.5,0.6-3.2-0.2-3.7-1.7s0.2-3.2,1.7-3.7c1.5-0.6,3.2,0.2,3.7,1.7
		C222.7,257.7,222.1,259.2,220.9,259.9z M219.1,256c-0.3,0.1-0.5,0.3-0.6,0.6c-0.2,0.3-0.2,0.7-0.1,1.1c0.2,0.7,1,1.2,1.7,1
		c0.7-0.2,1.2-1,1-1.7c-0.2-0.7-1-1.2-1.7-1L219.1,256z"/>
	<path class="st24" d="M330.7,236.2L330.7,236.2L209.3,271c-0.4,0.2-0.8,0-1-0.3c-0.2-0.4,0-0.8,0.3-1c0.1,0,0.2-0.1,0.3-0.1
		l121.3-34.8c0.4-0.1,0.8,0.1,1,0.4S331.1,236.1,330.7,236.2L330.7,236.2z"/>
	<path class="st1" d="M348.9,402.1L348.9,402.1l-64.8,18.7c-0.4,0.1-0.8-0.1-0.9-0.5c-0.1-0.4,0.1-0.8,0.5-0.9l64.7-18.6
		c0.4-0.1,0.8,0.2,0.8,0.6C349.3,401.7,349.2,402,348.9,402.1L348.9,402.1z"/>
	<path class="st1" d="M314,420.5l-0.1,0l-27.5,7.9c-0.4,0.2-0.8,0-1-0.3c-0.2-0.4,0-0.8,0.3-1c0.1,0,0.2-0.1,0.3-0.1l27.5-7.9
		c0.4-0.1,0.8,0.1,1,0.4S314.4,420.4,314,420.5L314,420.5z"/>
	<path class="st1" d="M307.8,430.1L307.8,430.1l-19.4,5.6c-0.4,0.1-0.8-0.1-0.9-0.5c-0.1-0.4,0.1-0.8,0.5-0.9l19.3-5.6
		c0.4-0.1,0.8,0.1,0.9,0.5C308.3,429.5,308.2,429.9,307.8,430.1z"/>
	<path class="st1" d="M351.2,409.8L351.2,409.8l-28.6,8.2c-0.4,0.1-0.8-0.1-0.9-0.5c-0.1-0.4,0.1-0.8,0.5-0.9l28.5-8.2
		c0.4-0.1,0.8,0.1,1,0.4C351.8,409.3,351.6,409.7,351.2,409.8L351.2,409.8z"/>
	<path class="st1" d="M318.7,355.1L318.7,355.1l-64.8,18.6c-0.4,0.1-0.8-0.1-0.9-0.5c-0.1-0.4,0.1-0.8,0.5-0.9l64.7-18.6
		c0.4-0.1,0.8,0.1,0.9,0.5C319.2,354.6,319,355,318.7,355.1z"/>
	<path class="st1" d="M283.7,373.5L283.7,373.5l-27.6,8c-0.4,0.1-0.8-0.1-0.9-0.5c-0.1-0.4,0.1-0.8,0.5-0.9l27.5-7.9
		c0.4-0.1,0.8,0.2,0.8,0.6C284.1,373.1,284,373.4,283.7,373.5L283.7,373.5z"/>
	<path class="st1" d="M315.5,372.2l-0.1,0l-56.1,15.7c-0.4,0-0.8-0.3-0.8-0.7c0-0.3,0.1-0.6,0.4-0.7l56-15.7
		c0.4-0.1,0.8,0.2,0.8,0.6C315.8,371.8,315.7,372.1,315.5,372.2L315.5,372.2z"/>
	<path class="st1" d="M320.9,362.8L320.9,362.8l-28.6,8.2c-0.4,0.2-0.8,0-1-0.3c-0.2-0.4,0-0.8,0.3-1c0.1,0,0.2-0.1,0.3-0.1
		l28.5-8.2c0.4-0.1,0.8,0.2,0.8,0.6C321.3,362.4,321.1,362.7,320.9,362.8L320.9,362.8z"/>
	<path class="st5" d="M211.3,281.1l91.4-26.3c1.5-0.4,3,0.4,3.5,1.9c0,0,0,0,0,0l6.8,23.7c0.4,1.5-0.4,3-1.9,3.5c0,0,0,0,0,0
		l-78.1,22.4l-6.7,12.4l-2.8-9.7l-3.8,1.1c-1.5,0.4-3-0.4-3.5-1.9c0,0,0,0,0,0l-6.8-23.7C209,283.1,209.8,281.6,211.3,281.1z"/>
	<path class="st24" d="M313.3,281.2L313.3,281.2c-0.5,0.1-0.9-0.1-1-0.5l-6.8-23.7c-0.3-1.1-1.5-1.7-2.6-1.4c0,0,0,0,0,0l-56.8,16.3
		c-0.4,0.1-0.8-0.1-0.9-0.5c-0.1-0.4,0.1-0.8,0.5-0.9l56.8-16.3c1.9-0.5,3.8,0.5,4.4,2.4l6.8,23.7
		C313.8,280.7,313.6,281,313.3,281.2z"/>
	<path class="st1" d="M291.7,266.6l-0.1,0l-64.7,18.6c-0.4,0-0.8-0.3-0.8-0.7c0-0.3,0.1-0.6,0.4-0.7l64.7-18.6
		c0.4-0.1,0.8,0.1,1,0.4C292.3,266,292.1,266.5,291.7,266.6L291.7,266.6z"/>
	<path class="st1" d="M256.8,285L256.8,285l-27.6,8c-0.4,0-0.8-0.3-0.8-0.7c0-0.3,0.1-0.6,0.4-0.7l27.6-7.9c0.4-0.1,0.8,0.2,0.8,0.6
		C257.1,284.5,257,284.8,256.8,285L256.8,285z"/>
	<path class="st1" d="M288.5,283.7l-0.1,0l-56,15.7c-0.4,0-0.8-0.3-0.8-0.7c0-0.3,0.1-0.6,0.4-0.7l56-15.7c0.4-0.1,0.8,0.2,0.8,0.6
		C288.9,283.2,288.8,283.5,288.5,283.7L288.5,283.7z"/>
	<path class="st1" d="M293.9,274.3l-0.1,0l-28.5,8.2c-0.4,0.1-0.8-0.1-0.9-0.5c-0.1-0.4,0.1-0.8,0.5-0.9l28.5-8.2
		c0.4-0.1,0.8,0.1,1,0.4C294.5,273.8,294.4,274.2,293.9,274.3L293.9,274.3z"/>
	<path class="st1" d="M321.2,304.6l-0.1,0l-64.7,18.6c-0.4,0.1-0.8-0.1-0.9-0.5c-0.1-0.4,0.1-0.8,0.5-0.9l64.7-18.6
		c0.4-0.1,0.8,0.1,1,0.4C321.8,304.1,321.6,304.5,321.2,304.6L321.2,304.6z"/>
	<path class="st1" d="M286.2,323L286.2,323l-27.6,8c-0.4,0.1-0.8-0.1-0.9-0.5c-0.1-0.4,0.1-0.8,0.5-0.9l27.5-7.9
		c0.4-0.1,0.8,0.2,0.8,0.6C286.6,322.6,286.5,322.9,286.2,323L286.2,323z"/>
	<path class="st1" d="M280.1,332.6l-0.1,0l-19.3,5.6c-0.4,0-0.8-0.3-0.8-0.7c0-0.3,0.1-0.6,0.4-0.7l19.3-5.6
		c0.4-0.1,0.8,0.2,0.8,0.6C280.5,332.2,280.3,332.5,280.1,332.6L280.1,332.6z"/>
	<path class="st1" d="M323.4,312.4l-0.1,0l-28.5,8.2c-0.4,0.1-0.8-0.1-0.9-0.5c-0.1-0.4,0.1-0.8,0.5-0.9l28.5-8.2
		c0.4-0.1,0.8,0.1,1,0.4C324,311.8,323.8,312.3,323.4,312.4L323.4,312.4z"/>
</g>
<g>
	<path class="st5" d="M562.9,515.3l-171.1-5c-3.3-0.1-5.9-2.8-5.8-6.1l3.2-109.6c0-0.2,0.2-0.3,0.3-0.3l182.3,5.4
		c0.2,0,0.3,0.2,0.3,0.3L569,509.6C568.9,512.8,566.2,515.4,562.9,515.3z"/>
	<path class="st24" d="M391.1,511c-3.4-0.5-5.9-3.5-5.8-6.9l3.2-109.6c0-0.6,0.5-1.1,1.2-1.1c0,0,0,0,0,0l182.3,5.4
		c0.6,0,1.1,0.5,1.1,1.1c0,0,0,0,0,0l-3.2,109.6c-0.1,3.7-3.2,6.6-6.9,6.5l-171.1-5C391.6,511.1,391.3,511.1,391.1,511z
		 M390.1,395.1l-3.2,109.1c-0.1,2.8,2.1,5.2,5,5.3c0,0,0,0,0,0l171.1,5l0,0.8l0-0.8c2.8,0.1,5.1-2.1,5.2-4.9c0,0,0,0,0,0l3.2-109.1
		L390.1,395.1z"/>
	<path class="st29" d="M555,514.2l-154.9-2.7c-3.3-0.1,56.3-57.6,56.4-60.9l-67.2-56c0-0.2,0.2-0.3,0.3-0.3l182.3,5.4
		c0.2,0,0.3,0.2,0.3,0.3l-70,52C502.1,455.2,558.3,514.3,555,514.2z"/>
	<path class="st5" d="M389.6,394.3l84.6-62.8c5.1-3.8,12-3.6,16.8,0.5l80.4,67.3c0.1,0.1,0.1,0.2,0,0.3c0,0-0.1,0.1-0.1,0.1
		l-182-5.3"/>
	<path class="st24" d="M389.3,395.1l0-1.2l-0.2-0.3l0.2-0.2l0,0l0,0l84.4-62.6c5.4-4,12.8-3.8,17.9,0.5l80.4,67.3
		c0.4,0.4,0.5,1,0.1,1.4c-0.2,0.2-0.5,0.4-0.8,0.4L389.3,395.1z M484.2,329.7c-3.3-0.5-6.7,0.4-9.4,2.4l-82.7,61.4l177.5,5.2
		l-78.9-66.2C488.8,331.1,486.6,330.1,484.2,329.7z"/>
	<path class="st29" d="M389.6,394.3l84.6-62.8c5.1-3.8,12-3.6,16.8,0.5l80.4,67.3c0.1,0.1,0.1,0.2,0,0.3c0,0-0.1,0.1-0.1,0.1
		l-182-5.3"/>
	<path class="st5" d="M467.1,440.6l-66.8,69.6l154.7,4.5l-62.6-73.5c-6.1-7.1-16.8-8-24-1.9C467.9,439.8,467.5,440.2,467.1,440.6z"
		/>
	<path class="st24" d="M398.4,511l68.1-71l0.6,0.6l-0.6-0.6c6.8-7.1,18.1-7.3,25.2-0.5c0.4,0.4,0.8,0.8,1.2,1.3l63.8,74.9L398.4,511
		z M481.6,436.4c-0.6-0.1-1.2-0.1-1.8-0.2c-4.6-0.1-9,1.7-12.2,5l-65.5,68.3l150.9,4.5l-61.4-72
		C489.1,438.9,485.6,436.9,481.6,436.4z"/>
	<path class="st1" d="M406.3,342.4l119.1,3.5c7.8,0.3,14,5.9,13.8,12.7l-2,67.9l-36.9,25.3l-43.8-1.3l-38.8-32.7l1.9-65.8
		L406.3,342.4z"/>
	<path class="st24" d="M456.2,451.4l-39.3-33.1l1.9-65.8l-9.9-10.8l116.4,3.4c3.9,0.1,7.6,1.5,10.4,4.1c2.7,2.4,4.2,5.8,4.2,9.4
		l-2,68.4l-37.4,25.7L456.2,451.4z M418.6,417.5l38.3,32.3l43.2,1.3l36.3-24.9l2-67.5c0.1-3.1-1.3-6.1-3.6-8.2
		c-2.6-2.3-5.9-3.6-9.4-3.7L409,343.3l11.6,8.3L418.6,417.5z"/>
	<path class="st29" d="M468.1,433.9l-67.8,76.3l154.7,4.5l-61.7-80.1c-6.1-7.1-16.8-8-24-1.9C468.9,433.1,468.5,433.5,468.1,433.9z"
		/>
	<path class="st5" d="M467.1,440.6l-66.8,69.6l154.7,4.5l-62.6-73.5c-6.1-7.1-16.8-8-24-1.9C467.9,439.8,467.5,440.2,467.1,440.6z"
		/>
	<path class="st24" d="M398.4,511l68.1-71l0.6,0.6l-0.6-0.6c6.8-7.1,18.1-7.3,25.2-0.5c0.4,0.4,0.8,0.8,1.2,1.3l63.8,74.9L398.4,511
		z M481.6,436.4c-0.6-0.1-1.2-0.1-1.8-0.2c-4.6-0.1-9,1.7-12.2,5l-65.5,68.3l150.9,4.5l-61.4-72
		C489.1,438.9,485.6,436.9,481.6,436.4z"/>
	<path class="st30" d="M470.1,458.5L421,509.7l113.6,3.3l-46-53.9c-4.5-5.2-12.4-5.8-17.6-1.3C470.6,457.9,470.3,458.2,470.1,458.5z
		"/>
	<line class="st25" x1="389.7" y1="394.4" x2="456.5" y2="450.6"/>
	
		<rect x="422.3" y="378.9" transform="matrix(0.6433 -0.7656 0.7656 0.6433 -172.5707 474.6214)" class="st24" width="1.7" height="87.3"/>
	<line class="st25" x1="572.2" y1="399.8" x2="502.2" y2="451.9"/>
	
		<rect x="493.5" y="425" transform="matrix(0.8019 -0.5975 0.5975 0.8019 -148.0199 405.3351)" class="st24" width="87.3" height="1.7"/>
	<path class="st23" d="M418.7,382.4l-20.8-0.6l0.9-29.7c0.2-5.5,4.7-9.8,10.2-9.6l0.9,0c5.5,0.2,9.8,4.7,9.6,10.2c0,0,0,0,0,0
		L418.7,382.4z"/>
	<path class="st24" d="M397,382.6l0.9-30.5c0.2-5.9,5.1-10.6,11.1-10.4l1,0c5.9,0.2,10.6,5.1,10.4,11.1l-0.9,30.5L397,382.6z
		 M410.9,343.4c-0.3,0-0.7-0.1-1-0.1l-0.9,0c-5-0.1-9.2,3.8-9.4,8.8c0,0,0,0,0,0l-0.9,28.9l19.1,0.6l0.8-28.9
		C418.9,348.1,415.5,344.1,410.9,343.4L410.9,343.4z"/>
	<path class="st24" d="M434.8,369.2c-0.5,0-0.8-0.5-0.8-0.9c0-0.5,0.5-0.8,0.9-0.8l86.3,2.5c0.5,0.1,0.7,0.6,0.6,1
		c-0.1,0.3-0.3,0.6-0.7,0.6L434.8,369.2L434.8,369.2z"/>
	<path class="st24" d="M433.9,398.5c-0.4-0.1-0.7-0.6-0.5-1.1c0.1-0.3,0.4-0.5,0.7-0.6l86.3,2.5c0.5-0.1,0.9,0.2,1,0.7
		c0.1,0.5-0.2,0.9-0.7,1c-0.1,0-0.2,0-0.3,0l-86.3-2.5L433.9,398.5z"/>
	<path class="st24" d="M434.3,383.7c-0.5,0-0.8-0.5-0.8-0.9c0-0.5,0.5-0.8,0.9-0.8l37.3,1.1c0.5,0,0.8,0.4,0.8,0.9
		c0,0.5-0.4,0.8-0.9,0.8l-37.3-1.1L434.3,383.7z"/>
	<path class="st24" d="M481.4,385.1c-0.5,0-0.8-0.5-0.8-0.9c0-0.5,0.5-0.8,0.9-0.8l39.2,1.2c0.5-0.1,0.9,0.2,1,0.7
		c0.1,0.5-0.2,0.9-0.7,1c-0.1,0-0.2,0-0.3,0L481.4,385.1L481.4,385.1z"/>
	<path class="st24" d="M433.4,415.2c-0.4-0.1-0.7-0.6-0.6-1.1c0.1-0.3,0.4-0.5,0.7-0.6l37.3,1.1c0.5-0.1,0.9,0.2,1,0.7
		c0.1,0.5-0.2,0.9-0.7,1c-0.1,0-0.2,0-0.3,0L433.4,415.2L433.4,415.2z"/>
</g>
</svg>
