<svg width="338" height="350" viewBox="0 0 338 350" fill="none" xmlns="http://www.w3.org/2000/svg">
<path d="M63.0826 261.514H24.9174C11.1559 261.514 0 272.67 0 286.431V324.596C0 338.358 11.1559 349.514 24.9174 349.514H63.0826C76.8441 349.514 88 338.358 88 324.596V286.431C88 272.67 76.8441 261.514 63.0826 261.514Z" fill="#B5B5B5"/>
<path d="M110.843 349.579C109.785 349.572 108.771 349.149 108.022 348.401C107.66 348.029 107.378 347.587 107.191 347.102C107.005 346.617 106.919 346.1 106.938 345.581V344.527C107.403 337.226 107.299 329.899 106.628 322.614C105.419 316.105 96.4927 313.316 77.7108 313.316C74.4256 313.316 71.5127 313.316 68.9403 313.316H65.1895H64.2913C57.8416 312.875 51.6405 310.654 46.3771 306.9C44.0217 304.855 42.4411 300.701 41.8523 294.503C41.5423 291.558 39.5896 249.995 38.5978 228.423V225.634L13.8033 224.084C13.0516 224.029 12.3307 223.76 11.7262 223.309C2.42828 216.398 0.476074 211.718 0.476074 209.021C0.476074 206.325 5.37269 196.779 43.5563 139.843L44.1768 138.944V137.859C43.5569 130.575 42.4412 116.69 41.9143 105.687C41.4804 96.2031 60.5098 59.1964 84.8394 37.2836C103.001 20.7639 135.513 16.4867 153.273 15.4019C154.298 15.3664 155.297 15.7262 156.064 16.4069C156.831 17.0876 157.307 18.0372 157.394 19.0592C157.428 19.5722 157.36 20.0869 157.194 20.5736C157.029 21.0603 156.768 21.5095 156.429 21.8953C156.089 22.2812 155.676 22.5962 155.214 22.8222C154.752 23.0482 154.25 23.1808 153.737 23.2124C137.001 24.2042 106.472 28.1404 90.0771 43.0795C67.607 63.5355 50.1579 97.195 49.7859 105.067V105.377C50.3438 117.372 51.6456 132.962 52.1725 139.099V139.719C52.2598 140.626 52.0299 141.535 51.5217 142.291C34.3205 167.892 14.3297 198.576 9.43277 207.595L8.41051 209.455L9.80505 211.067C11.3338 212.793 13.0031 214.389 14.7953 215.84L15.5701 216.491L42.7504 218.195C43.7062 218.255 44.6072 218.663 45.2815 219.343C45.9558 220.023 46.3568 220.927 46.4082 221.884C46.4082 222.318 48.7325 269.087 50.1582 289.637C50.5611 295.184 50.7781 298.532 53.2575 301.197C54.9003 302.764 56.85 303.972 58.984 304.746C61.118 305.519 63.3899 305.841 65.6548 305.691H72.6903H79.2605C95.9968 305.691 113.353 307.272 114.159 318.895L114.345 321.002C114.965 326.912 115.276 332.851 115.275 338.793V341.892H257.844V282.291C257.43 274.842 259.78 267.502 264.445 261.68C266.613 259.412 269.149 257.526 271.946 256.101C280.066 251.39 290.169 245.532 295.314 214.166C296.275 208.215 298.135 174.99 298.972 158.377C299.019 157.387 299.444 156.454 300.159 155.768C300.874 155.082 301.824 154.696 302.815 154.689C303.392 154.67 303.966 154.773 304.501 154.992C305.035 155.211 305.516 155.541 305.914 155.959C306.603 156.733 306.959 157.746 306.906 158.78C306.906 159.276 304.457 207.441 303.124 215.561C297.39 250.553 284.528 258.054 275.974 262.982C273.97 263.973 272.138 265.281 270.55 266.856C267.233 271.086 265.541 276.363 265.778 281.733V345.674C265.781 346.704 265.38 347.694 264.662 348.432C263.931 349.165 262.939 349.577 261.904 349.579H111.401H110.843ZM237.233 247.299C231.004 247.309 224.922 245.42 219.795 241.883C214.668 238.347 210.741 233.331 208.539 227.505C206.337 221.679 205.963 215.32 207.468 209.276C208.973 203.233 212.286 197.792 216.964 193.679L220.683 190.363L153.892 162.716L152.498 164.917C150.122 168.656 146.687 171.603 142.63 173.384C138.573 175.164 134.079 175.696 129.718 174.913C125.358 174.13 121.329 172.066 118.146 168.986C114.962 165.905 112.767 161.946 111.841 157.614C110.915 153.282 111.299 148.772 112.945 144.659C114.591 140.545 117.423 137.015 121.082 134.517C124.741 132.02 129.061 130.668 133.491 130.634C137.921 130.6 142.261 131.885 145.958 134.326L148.406 135.968L200.816 64.6823L196.57 63.4426C189.474 61.391 183.293 56.9729 179.055 50.9227C174.816 44.8724 172.777 37.5541 173.273 30.1837C173.769 22.8134 176.772 15.8347 181.783 10.4073C186.794 4.97986 193.511 1.43045 200.819 0.348811C208.126 -0.732826 215.583 0.718398 221.952 4.46141C228.32 8.20443 233.216 14.0139 235.826 20.9244C238.436 27.835 238.603 35.4306 236.3 42.4492C233.996 49.4678 229.36 55.4869 223.162 59.5063L218.978 62.2337L301.823 111.049L303.31 107.95C305.014 104.507 307.783 101.705 311.205 99.9604C314.628 98.216 318.522 97.6222 322.309 98.2673C326.096 98.9123 329.573 100.762 332.226 103.541C334.878 106.32 336.563 109.881 337.03 113.694C337.498 117.507 336.723 121.369 334.821 124.706C332.919 128.044 329.991 130.679 326.472 132.22C322.953 133.761 319.031 134.125 315.288 133.26C311.546 132.394 308.182 130.344 305.697 127.414L303.527 124.873L242.595 185.59L247.305 187.201C254.18 189.547 259.998 194.259 263.723 200.495C267.447 206.732 268.836 214.089 267.641 221.254C266.446 228.419 262.746 234.927 257.2 239.617C251.653 244.308 244.621 246.877 237.357 246.865L237.233 247.299ZM237.233 193.772C236.123 193.779 235.015 193.862 233.917 194.02H233.607H232.987C227.267 195.156 222.203 198.452 218.849 203.222C215.494 207.993 214.104 213.872 214.97 219.64C215.835 225.407 218.889 230.62 223.496 234.196C228.103 237.772 233.91 239.436 239.712 238.843C245.514 238.25 250.865 235.446 254.653 231.012C258.442 226.578 260.378 220.855 260.059 215.032C259.74 209.209 257.191 203.732 252.94 199.738C248.69 195.745 243.064 193.542 237.233 193.586V193.772ZM153.273 142.508L153.985 144.151C155.227 146.974 155.87 150.024 155.876 153.108V155.185L157.797 156.083L226.912 184.474L206.27 70.5711L153.273 142.508ZM234.568 182.8L298.909 118.705L213.864 68.4325L234.568 182.8ZM133.561 138.51C130.692 138.51 127.887 139.361 125.502 140.954C123.117 142.548 121.258 144.814 120.16 147.464C119.062 150.115 118.775 153.031 119.334 155.845C119.894 158.659 121.276 161.243 123.305 163.272C125.333 165.3 127.917 166.682 130.731 167.242C133.544 167.801 136.461 167.514 139.112 166.416C141.762 165.318 144.027 163.459 145.621 161.074C147.215 158.688 148.066 155.884 148.066 153.015C148.074 151.105 147.705 149.212 146.979 147.445C146.254 145.678 145.187 144.072 143.839 142.718C142.491 141.365 140.89 140.291 139.126 139.558C137.362 138.825 135.471 138.448 133.561 138.448V138.51ZM319.179 106.183C317.192 106.177 315.247 106.761 313.592 107.86C311.936 108.96 310.644 110.526 309.88 112.361C309.115 114.195 308.912 116.215 309.296 118.165C309.679 120.115 310.633 121.907 312.036 123.315C313.439 124.722 315.229 125.682 317.178 126.072C319.126 126.462 321.147 126.265 322.984 125.506C324.82 124.747 326.39 123.46 327.495 121.807C328.6 120.155 329.19 118.213 329.19 116.225C329.198 114.904 328.945 113.594 328.446 112.37C327.947 111.147 327.211 110.034 326.281 109.095C325.351 108.157 324.246 107.411 323.027 106.9C321.808 106.39 320.5 106.125 319.179 106.121V106.183ZM205.465 8.08728C199.109 8.31321 193.09 10.9967 188.674 15.5726C184.258 20.1485 181.791 26.2597 181.791 32.619C181.791 38.9784 184.258 45.0895 188.674 49.6654C193.09 54.2413 199.109 56.9248 205.465 57.1507C206.27 57.1507 207.076 57.1507 207.851 57.1507H208.348C214.583 56.447 220.311 53.379 224.353 48.5785C228.394 43.7779 230.441 37.6103 230.071 31.3458C229.702 25.0814 226.945 19.1971 222.367 14.9049C217.789 10.6126 211.74 8.23907 205.465 8.27323V8.08728Z" fill="#C79B70"/>
</svg>
