<svg width="402" height="352" viewBox="0 0 402 352" fill="none" xmlns="http://www.w3.org/2000/svg">
<path d="M355.082 248.778H316.916C303.155 248.778 291.999 259.934 291.999 273.695V311.861C291.999 325.622 303.155 336.778 316.916 336.778H355.082C368.843 336.778 379.999 325.622 379.999 311.861V273.695C379.999 259.934 368.843 248.778 355.082 248.778Z" fill="#B5B5B5"/>
<path d="M200.849 351.778C200.541 351.825 200.227 351.825 199.919 351.778C176.277 340.733 153.701 327.536 132.478 312.354C87.3517 279.686 64.2928 247.049 64.2928 215.374V185.681L51.2448 177.406L50.3769 178.088C47.5989 180.265 44.1743 181.454 40.645 181.466C37.9485 181.465 35.2992 180.76 32.9587 179.421L7.76124 164.853C5.99482 163.836 4.44642 162.48 3.20496 160.863C1.96349 159.246 1.05322 157.4 0.526347 155.43C-0.000523443 153.461 -0.133437 151.407 0.134771 149.386C0.402978 147.365 1.06731 145.417 2.08963 143.654L49.509 61.3955C50.8388 59.029 52.7673 57.0533 55.1007 55.6663C57.4342 54.2792 60.0909 53.5295 62.8051 53.4921H64.3548V2.66201C64.3555 2.15588 64.5002 1.66036 64.7721 1.23347C65.044 0.806589 65.4317 0.465953 65.8901 0.251385C66.3485 0.0368169 66.8587 -0.042809 67.3607 0.0218245C67.8626 0.086458 68.3359 0.292706 68.7249 0.616393C73.4591 4.08475 78.6814 6.83179 84.2215 8.76782C116.502 19.9672 151.614 19.9672 183.895 8.76782C189.444 6.83675 194.668 4.07808 199.392 0.585368C199.854 0.232642 200.422 0.0469678 201.004 0.0585239C201.596 0.0672877 202.171 0.262466 202.646 0.616393C207.736 4.06375 213.246 6.8448 219.042 8.89173C250.738 20.0917 285.315 20.0917 317.011 8.89173C322.792 6.845 328.291 4.07494 333.376 0.647417C333.808 0.305877 334.343 0.120193 334.894 0.120478H335.545C336.027 0.240127 336.474 0.473993 336.847 0.802349C337.351 1.31654 337.639 2.00404 337.652 2.72396V53.4921H339.171C341.865 53.5192 344.505 54.2481 346.832 55.6069C349.158 56.9656 351.089 58.9074 352.436 61.2406L399.856 143.468C400.878 145.231 401.542 147.179 401.81 149.2C402.079 151.221 401.946 153.275 401.419 155.244C400.892 157.214 399.982 159.06 398.741 160.677C397.499 162.294 395.95 163.65 394.184 164.667L368.956 179.235C366.624 180.568 363.987 181.273 361.301 181.28C357.726 181.274 354.26 180.05 351.475 177.809L350.639 177.127L337.652 184.659V215.157C337.652 246.832 314.749 279.469 269.468 312.137C248.244 327.311 225.681 340.518 202.058 351.592C201.675 351.749 201.261 351.813 200.849 351.778ZM69.6235 215.219C69.6235 252.411 105.421 286.164 135.453 307.891C155.82 322.488 177.47 335.207 200.136 345.889L200.787 346.168L201.5 345.92C224.206 335.282 245.871 322.55 266.213 307.891C296.246 286.195 332.043 252.442 332.043 215.219V188.223L313.447 202.139L314.687 203.41C318.224 206.999 320.207 211.837 320.207 216.877C320.207 221.917 318.224 226.754 314.687 230.344C312.922 232.122 310.821 233.531 308.506 234.489C306.192 235.446 303.709 235.934 301.204 235.923C300.333 235.922 299.464 235.86 298.601 235.737L296.587 235.458L296.866 237.472C297.237 240.171 297.027 242.917 296.249 245.528C295.471 248.138 294.144 250.552 292.356 252.607C290.568 254.662 288.361 256.311 285.883 257.443C283.406 258.574 280.715 259.163 277.991 259.168C277.109 259.169 276.229 259.106 275.356 258.982L273.342 258.703L273.621 260.718C273.998 263.42 273.79 266.171 273.013 268.786C272.235 271.401 270.905 273.818 269.113 275.875C267.321 277.932 265.108 279.58 262.624 280.708C260.14 281.836 257.443 282.418 254.715 282.414C253.845 282.408 252.976 282.357 252.111 282.259L250.097 281.98L250.376 283.994C250.926 287.958 250.217 291.994 248.349 295.533C246.481 299.072 243.547 301.934 239.964 303.716C236.381 305.497 232.328 306.107 228.38 305.461C224.431 304.814 220.785 302.943 217.957 300.111L201.531 283.653L191.768 293.416C188.936 296.239 185.29 298.101 181.343 298.74C177.397 299.38 173.35 298.764 169.772 296.98C166.194 295.196 163.266 292.334 161.402 288.798C159.537 285.261 158.83 281.229 159.38 277.269L159.628 275.254L157.613 275.533C156.751 275.657 155.881 275.719 155.01 275.719C152.284 275.718 149.591 275.134 147.111 274.004C144.63 272.874 142.422 271.225 140.633 269.169C138.844 267.112 137.517 264.697 136.741 262.084C135.965 259.471 135.758 256.722 136.135 254.023L136.383 251.978L134.368 252.256C133.516 252.381 132.657 252.443 131.796 252.442C129.068 252.446 126.371 251.865 123.887 250.737C121.403 249.609 119.19 247.961 117.398 245.904C115.605 243.847 114.276 241.43 113.498 238.815C112.721 236.2 112.513 233.449 112.89 230.747L113.169 228.732L111.154 228.98C110.292 229.104 109.422 229.166 108.551 229.166C106.042 229.174 103.556 228.686 101.236 227.728C98.917 226.771 96.8105 225.363 95.0381 223.587C92.4815 221.004 90.7085 217.75 89.9242 214.201C89.1398 210.652 89.3761 206.954 90.6059 203.534L91.0399 202.356L69.7166 188.874L69.6235 215.219ZM131.61 167.116C134.338 167.112 137.035 167.694 139.519 168.822C142.003 169.95 144.216 171.598 146.008 173.654C147.8 175.711 149.13 178.129 149.908 180.744C150.686 183.358 150.893 186.11 150.516 188.812L150.268 190.547H154.855C157.583 190.543 160.28 191.125 162.764 192.253C165.248 193.381 167.461 195.029 169.253 197.086C171.045 199.143 172.375 201.56 173.153 204.175C173.931 206.79 174.138 209.541 173.761 212.243L173.513 213.979H178.1C180.826 213.98 183.521 214.565 186.002 215.695C188.484 216.824 190.695 218.472 192.486 220.528C194.277 222.583 195.607 224.999 196.387 227.612C197.166 230.224 197.378 232.974 197.006 235.675L196.758 237.441H201.313C203.821 237.424 206.307 237.905 208.627 238.857C210.947 239.81 213.055 241.214 214.827 242.989C218.402 246.584 220.409 251.448 220.409 256.518C220.409 261.588 218.402 266.452 214.827 270.047L205.095 279.81L221.552 296.268C224.168 298.713 227.633 300.046 231.214 299.982C234.795 299.919 238.21 298.466 240.739 295.929C243.267 293.393 244.709 289.973 244.761 286.392C244.813 282.811 243.47 279.35 241.016 276.742L240.551 276.308L231.067 266.824C230.683 266.454 230.419 265.979 230.308 265.458C230.196 264.936 230.244 264.394 230.444 263.9C230.644 263.407 230.988 262.984 231.43 262.688C231.873 262.391 232.394 262.234 232.927 262.237C233.647 262.247 234.336 262.536 234.848 263.042L244.828 273.022C247.413 275.603 250.918 277.052 254.571 277.049C258.224 277.046 261.726 275.592 264.307 273.007C266.888 270.422 268.337 266.917 268.334 263.264C268.331 259.611 266.877 256.108 264.292 253.527L254.467 243.702C254.089 243.331 253.828 242.857 253.718 242.339C253.608 241.821 253.653 241.281 253.847 240.789C254.017 240.379 254.286 240.017 254.63 239.736C254.973 239.455 255.38 239.263 255.816 239.178C256.251 239.092 256.701 239.115 257.125 239.244C257.549 239.374 257.935 239.606 258.248 239.921L268.073 249.746C270.658 252.327 274.163 253.775 277.816 253.773C281.469 253.77 284.971 252.316 287.552 249.73C290.133 247.145 291.582 243.641 291.579 239.987C291.576 236.334 290.122 232.832 287.537 230.251L277.278 219.961C276.737 219.464 276.414 218.773 276.379 218.039C276.377 217.676 276.447 217.317 276.585 216.982C276.724 216.646 276.928 216.342 277.185 216.086C277.68 215.595 278.347 215.317 279.045 215.312C279.409 215.315 279.77 215.391 280.105 215.535C280.44 215.678 280.743 215.887 280.997 216.148L291.318 226.469C292.598 227.747 294.117 228.761 295.789 229.452C297.461 230.143 299.252 230.497 301.061 230.496C302.869 230.495 304.66 230.137 306.331 229.443C308.001 228.75 309.519 227.734 310.797 226.454C312.075 225.174 313.089 223.655 313.779 221.983C314.47 220.311 314.825 218.52 314.824 216.711C314.822 214.902 314.465 213.111 313.771 211.441C313.078 209.77 312.062 208.252 310.782 206.974L233.299 129.489L163.378 148.644C161.518 149.146 159.602 149.407 157.675 149.418C152.367 149.415 147.242 147.481 143.254 143.979C139.265 140.477 136.686 135.644 135.996 130.382C135.306 125.119 136.552 119.784 139.503 115.372C142.453 110.96 146.907 107.771 152.035 106.399L199.454 93.6913L198.4 91.9246C197.132 89.7597 195.377 87.9207 193.273 86.554C191.169 85.1873 188.775 84.3306 186.282 84.0521V83.1534H185.011H184.206C182.78 83.1512 181.361 83.3495 179.991 83.7422L118.593 100.262H117.725H117.539H116.175L101.144 91.5527L54.4371 172.54L92.9925 196.932H94.418L94.914 196.002L118.128 172.757C119.904 170.963 122.018 169.541 124.349 168.573C126.679 167.604 129.179 167.109 131.703 167.116H131.61ZM201.344 242.803C199.532 242.806 197.739 243.169 196.068 243.871C194.397 244.574 192.883 245.601 191.613 246.894L168.368 270.171C165.783 272.752 164.329 276.254 164.326 279.908C164.323 283.561 165.772 287.065 168.353 289.651C170.934 292.236 174.436 293.69 178.089 293.693C181.742 293.696 185.246 292.247 187.831 289.666L211.076 266.39C212.988 264.453 214.288 261.996 214.812 259.325C215.336 256.654 215.062 253.888 214.024 251.373C212.986 248.857 211.23 246.702 208.975 245.178C206.72 243.654 204.066 242.828 201.344 242.803ZM178.1 219.527C176.287 219.529 174.494 219.893 172.823 220.595C171.152 221.297 169.638 222.325 168.368 223.618L145.123 246.894C143.843 248.172 142.827 249.69 142.134 251.361C141.44 253.031 141.083 254.822 141.081 256.631C141.08 258.44 141.434 260.231 142.125 261.903C142.816 263.575 143.83 265.094 145.108 266.374C146.386 267.654 147.903 268.67 149.574 269.364C151.244 270.057 153.035 270.415 154.844 270.416C156.653 270.418 158.444 270.063 160.116 269.372C161.788 268.681 163.307 267.668 164.587 266.39L187.831 243.113C189.743 241.176 191.043 238.719 191.567 236.049C192.091 233.378 191.817 230.612 190.779 228.096C189.741 225.58 187.985 223.426 185.73 221.902C183.475 220.378 180.821 219.552 178.1 219.527ZM154.855 196.25C153.043 196.256 151.25 196.621 149.58 197.323C147.91 198.025 146.395 199.051 145.123 200.342L121.878 223.618C120.598 224.896 119.582 226.414 118.889 228.084C118.195 229.755 117.838 231.546 117.836 233.355C117.833 237.008 119.282 240.512 121.863 243.098C124.444 245.683 127.946 247.137 131.599 247.14C135.252 247.143 138.757 245.694 141.342 243.113L164.587 219.868C166.509 217.932 167.817 215.473 168.347 212.797C168.877 210.121 168.606 207.348 167.567 204.826C166.527 202.304 164.767 200.145 162.505 198.619C160.244 197.093 157.582 196.269 154.855 196.25ZM131.61 172.974C129.798 172.98 128.005 173.345 126.335 174.047C124.665 174.749 123.15 175.775 121.878 177.065L98.6334 200.342C97.2831 201.604 96.2 203.125 95.449 204.814C94.698 206.503 94.2944 208.326 94.2618 210.174C94.2292 212.022 94.5685 213.858 95.2594 215.572C95.9504 217.287 96.9789 218.845 98.2839 220.154C99.5888 221.463 101.143 222.497 102.856 223.193C104.568 223.89 106.403 224.235 108.251 224.208C110.099 224.181 111.923 223.783 113.615 223.038C115.306 222.292 116.83 221.214 118.097 219.868L141.342 196.591C143.254 194.654 144.553 192.197 145.077 189.527C145.601 186.856 145.327 184.09 144.289 181.574C143.251 179.058 141.495 176.904 139.24 175.38C136.985 173.856 134.331 173.03 131.61 173.005V172.974ZM309.603 197.769L330.958 181.745H331.206L331.764 181.59H332.073L332.787 181.218C333.034 181.005 333.317 180.837 333.623 180.722L347.043 173.005L300.399 92.1106L285.677 100.603C285.163 101.083 284.49 101.359 283.787 101.378H283.445L228.805 92.8235L227.348 92.5445H226.759C225.282 92.5315 223.81 92.7298 222.389 93.1334L153.615 111.73C149.744 112.761 146.379 115.16 144.143 118.484C141.906 121.807 140.951 125.829 141.455 129.803C141.958 133.777 143.886 137.434 146.88 140.095C149.874 142.756 153.732 144.24 157.737 144.273C159.184 144.149 160.61 143.847 161.983 143.375L232.803 123.972C233.224 123.779 233.674 123.653 234.136 123.6C234.783 123.614 235.401 123.868 235.871 124.313L236.336 124.747L309.603 197.769ZM352.994 172.106C353.122 172.243 353.227 172.4 353.304 172.571C354.244 173.625 355.395 174.47 356.681 175.052C357.968 175.634 359.361 175.939 360.773 175.949C362.594 175.939 364.38 175.447 365.95 174.524L391.147 159.956C392.313 159.295 393.335 158.408 394.155 157.347C394.975 156.286 395.576 155.073 395.922 153.777C396.268 152.482 396.353 151.131 396.172 149.803C395.99 148.474 395.546 147.195 394.866 146.04L347.447 63.7821C346.14 61.4759 343.981 59.7736 341.433 59.04C340.626 58.674 339.748 58.4939 338.862 58.5131H336.599V58.7611C336.277 58.8222 335.964 58.9264 335.669 59.071H335.39C334.63 59.2518 333.92 59.6014 333.314 60.0938L308.333 74.506C306.289 75.6488 304.709 77.4701 303.866 79.6547C303.022 81.8393 302.969 84.25 303.715 86.4697C303.866 86.7466 303.991 87.0372 304.087 87.3376V87.6784L304.304 88.0194V88.2054L351.848 170.618C352.044 171.224 352.424 171.754 352.933 172.137L352.994 172.106ZM60.2328 59.133C57.6825 59.8605 55.5218 61.5645 54.22 63.8751L6.80065 146.133C6.11322 147.293 5.66543 148.58 5.48442 149.916C5.30341 151.252 5.39258 152.611 5.74661 153.913C6.082 155.215 6.67795 156.435 7.4983 157.501C8.31865 158.566 9.34651 159.454 10.5197 160.111L35.7171 174.679C37.2865 175.602 39.0723 176.094 40.8931 176.104C42.3005 176.094 43.6898 175.788 44.9712 175.206C46.2526 174.624 47.3973 173.779 48.3312 172.726V172.571C48.4589 172.355 48.6154 172.157 48.7962 171.982C49.1135 171.692 49.3577 171.331 49.509 170.928L96.8976 88.6703C97.1116 88.344 97.2786 87.9893 97.3936 87.6165C97.4331 87.3854 97.5172 87.1643 97.6414 86.9655C98.4446 84.7263 98.4347 82.2758 97.6131 80.0433C96.7915 77.8107 95.2107 75.9383 93.1476 74.7539L67.9501 60.1868L67.6403 60.0009C67.1509 59.6671 66.6047 59.4255 66.0286 59.288C65.6799 59.1366 65.316 59.0224 64.9435 58.9471L63.084 58.792C62.0974 58.7049 61.1038 58.8317 60.1708 59.164L60.2328 59.133ZM226.294 87.0276C227.425 87.0232 228.554 87.1061 229.672 87.2755L283.322 95.6748L298.477 86.9036V85.8498C297.999 82.7503 298.461 79.5786 299.803 76.7443C301.146 73.91 303.307 71.5433 306.008 69.9499L330.803 55.5997H331.95L332.26 54.05V7.37305L329.966 8.58187C326.401 10.5806 322.693 12.3107 318.871 13.7578C285.952 25.453 250.009 25.453 217.089 13.7578C211.803 11.8495 206.733 9.38733 201.965 6.41225L201.19 6.10229L200.229 6.41225C195.761 9.43407 190.943 11.9007 185.879 13.7578C152.332 25.4522 115.816 25.4522 82.269 13.7578C78.7654 12.3517 75.3679 10.6943 72.1031 8.79875L69.8096 7.46603V55.6307H71.2352L96.0297 69.9809C98.7489 71.5552 100.925 73.9189 102.27 76.7585C103.615 79.5981 104.066 82.7795 103.561 85.8808V86.9036L118.593 95.6129L179.061 79.2791C180.756 78.7511 182.523 78.4897 184.298 78.5043C188.475 78.481 192.575 79.6305 196.131 81.8222C199.687 84.014 202.556 87.1598 204.413 90.9018L204.971 92.0796L221.242 87.7404C222.861 87.2613 224.544 87.0314 226.232 87.0585L226.294 87.0276Z" fill="#C79B70"/>
</svg>
