<svg width="273" height="295" viewBox="0 0 273 295" fill="none" xmlns="http://www.w3.org/2000/svg">
<path d="M204.26 289.26C239.369 289.26 267.83 260.799 267.83 225.69C267.83 190.581 239.369 162.12 204.26 162.12C169.151 162.12 140.69 190.581 140.69 225.69C140.69 260.799 169.151 289.26 204.26 289.26Z" stroke="#C79B70" stroke-width="10" stroke-miterlimit="10"/>
<path d="M121.02 135.06C144.851 135.06 164.17 115.741 164.17 91.91C164.17 68.0789 144.851 48.76 121.02 48.76C97.189 48.76 77.8701 68.0789 77.8701 91.91C77.8701 115.741 97.189 135.06 121.02 135.06Z" stroke="#C79B70" stroke-width="10" stroke-miterlimit="10"/>
<path d="M235.87 157.02V48.32C235.859 40.2686 232.904 32.4991 227.563 26.4746C222.222 20.45 214.862 16.5859 206.87 15.61L120.95 5.12C119.48 4.93817 117.991 4.97187 116.53 5.22001L32.53 19.3C24.8452 20.5965 17.8672 24.571 12.832 30.5195C7.79686 36.468 5.0295 44.0066 5.02002 51.8L7.02002 165.35C7.03472 166.267 7.13509 167.181 7.31995 168.08C8.31995 172.95 8.73 179.75 12.5 187.31C20.39 203.16 27.77 207.19 49.6 229.53C55.6 235.69 78.37 259.21 93.86 274.12C97.9285 278.111 102.508 281.544 107.48 284.33C109.366 285.385 111.306 286.343 113.29 287.2C115.35 288.095 117.58 288.531 119.825 288.475C122.071 288.42 124.277 287.876 126.29 286.88L147.29 276.51" stroke="#C79B70" stroke-width="10" stroke-miterlimit="10"/>
<path d="M125.53 211.14C125.53 211.14 83.32 217.27 54.72 181.53L64.9301 151.53C64.9301 151.53 69.02 138.25 90.13 147.1C90.13 147.1 102.72 157.83 124.85 155.78C124.85 155.78 149.19 154.25 155.32 147.1C155.32 147.1 170.98 136.04 180.17 153.91" stroke="#C79B70" stroke-width="10" stroke-miterlimit="10"/>
<path d="M175.22 227.73L195.13 247.64L233.09 201.18" stroke="#C79B70" stroke-width="10" stroke-miterlimit="10"/>
</svg>
