<svg width="125" height="95" viewBox="0 0 125 95" fill="none" xmlns="http://www.w3.org/2000/svg">
<path d="M5.61001 93.93C8.2168 93.93 10.33 91.8168 10.33 89.21C10.33 86.6032 8.2168 84.49 5.61001 84.49C3.00323 84.49 0.890015 86.6032 0.890015 89.21C0.890015 91.8168 3.00323 93.93 5.61001 93.93Z" stroke="#C99D72" stroke-width="1.78" stroke-miterlimit="10"/>
<path d="M28.18 93.93C30.7867 93.93 32.9 91.8168 32.9 89.21C32.9 86.6032 30.7867 84.49 28.18 84.49C25.5732 84.49 23.46 86.6032 23.46 89.21C23.46 91.8168 25.5732 93.93 28.18 93.93Z" stroke="#C99D72" stroke-width="1.78" stroke-miterlimit="10"/>
<path d="M50.76 93.93C53.3668 93.93 55.48 91.8168 55.48 89.21C55.48 86.6032 53.3668 84.49 50.76 84.49C48.1533 84.49 46.04 86.6032 46.04 89.21C46.04 91.8168 48.1533 93.93 50.76 93.93Z" stroke="#C99D72" stroke-width="1.78" stroke-miterlimit="10"/>
<path d="M73.33 93.93C75.9368 93.93 78.05 91.8168 78.05 89.21C78.05 86.6032 75.9368 84.49 73.33 84.49C70.7232 84.49 68.61 86.6032 68.61 89.21C68.61 91.8168 70.7232 93.93 73.33 93.93Z" stroke="#C99D72" stroke-width="1.78" stroke-miterlimit="10"/>
<path d="M95.9099 93.93C98.5167 93.93 100.63 91.8168 100.63 89.21C100.63 86.6032 98.5167 84.49 95.9099 84.49C93.3032 84.49 91.1899 86.6032 91.1899 89.21C91.1899 91.8168 93.3032 93.93 95.9099 93.93Z" stroke="#C99D72" stroke-width="1.78" stroke-miterlimit="10"/>
<path d="M118.48 93.93C121.087 93.93 123.2 91.8168 123.2 89.21C123.2 86.6032 121.087 84.49 118.48 84.49C115.873 84.49 113.76 86.6032 113.76 89.21C113.76 91.8168 115.873 93.93 118.48 93.93Z" stroke="#C99D72" stroke-width="1.78" stroke-miterlimit="10"/>
<path d="M5.61001 73.03C8.2168 73.03 10.33 70.9167 10.33 68.31C10.33 65.7032 8.2168 63.59 5.61001 63.59C3.00323 63.59 0.890015 65.7032 0.890015 68.31C0.890015 70.9167 3.00323 73.03 5.61001 73.03Z" stroke="#C99D72" stroke-width="1.78" stroke-miterlimit="10"/>
<path d="M28.18 73.03C30.7867 73.03 32.9 70.9167 32.9 68.31C32.9 65.7032 30.7867 63.59 28.18 63.59C25.5732 63.59 23.46 65.7032 23.46 68.31C23.46 70.9167 25.5732 73.03 28.18 73.03Z" stroke="#C99D72" stroke-width="1.78" stroke-miterlimit="10"/>
<path d="M50.76 73.03C53.3668 73.03 55.48 70.9167 55.48 68.31C55.48 65.7032 53.3668 63.59 50.76 63.59C48.1533 63.59 46.04 65.7032 46.04 68.31C46.04 70.9167 48.1533 73.03 50.76 73.03Z" stroke="#C99D72" stroke-width="1.78" stroke-miterlimit="10"/>
<path d="M73.33 73.03C75.9368 73.03 78.05 70.9167 78.05 68.31C78.05 65.7032 75.9368 63.59 73.33 63.59C70.7232 63.59 68.61 65.7032 68.61 68.31C68.61 70.9167 70.7232 73.03 73.33 73.03Z" stroke="#C99D72" stroke-width="1.78" stroke-miterlimit="10"/>
<path d="M95.9099 73.03C98.5167 73.03 100.63 70.9167 100.63 68.31C100.63 65.7032 98.5167 63.59 95.9099 63.59C93.3032 63.59 91.1899 65.7032 91.1899 68.31C91.1899 70.9167 93.3032 73.03 95.9099 73.03Z" stroke="#C99D72" stroke-width="1.78" stroke-miterlimit="10"/>
<path d="M118.48 73.03C121.087 73.03 123.2 70.9167 123.2 68.31C123.2 65.7032 121.087 63.59 118.48 63.59C115.873 63.59 113.76 65.7032 113.76 68.31C113.76 70.9167 115.873 73.03 118.48 73.03Z" stroke="#C99D72" stroke-width="1.78" stroke-miterlimit="10"/>
<path d="M5.61001 52.1299C8.2168 52.1299 10.33 50.0167 10.33 47.4099C10.33 44.8032 8.2168 42.6899 5.61001 42.6899C3.00323 42.6899 0.890015 44.8032 0.890015 47.4099C0.890015 50.0167 3.00323 52.1299 5.61001 52.1299Z" stroke="#C99D72" stroke-width="1.78" stroke-miterlimit="10"/>
<path d="M28.18 52.1299C30.7867 52.1299 32.9 50.0167 32.9 47.4099C32.9 44.8032 30.7867 42.6899 28.18 42.6899C25.5732 42.6899 23.46 44.8032 23.46 47.4099C23.46 50.0167 25.5732 52.1299 28.18 52.1299Z" stroke="#C99D72" stroke-width="1.78" stroke-miterlimit="10"/>
<path d="M50.76 52.1299C53.3668 52.1299 55.48 50.0167 55.48 47.4099C55.48 44.8032 53.3668 42.6899 50.76 42.6899C48.1533 42.6899 46.04 44.8032 46.04 47.4099C46.04 50.0167 48.1533 52.1299 50.76 52.1299Z" stroke="#C99D72" stroke-width="1.78" stroke-miterlimit="10"/>
<path d="M73.33 52.1299C75.9368 52.1299 78.05 50.0167 78.05 47.4099C78.05 44.8032 75.9368 42.6899 73.33 42.6899C70.7232 42.6899 68.61 44.8032 68.61 47.4099C68.61 50.0167 70.7232 52.1299 73.33 52.1299Z" stroke="#C99D72" stroke-width="1.78" stroke-miterlimit="10"/>
<path d="M95.9099 52.1299C98.5167 52.1299 100.63 50.0167 100.63 47.4099C100.63 44.8032 98.5167 42.6899 95.9099 42.6899C93.3032 42.6899 91.1899 44.8032 91.1899 47.4099C91.1899 50.0167 93.3032 52.1299 95.9099 52.1299Z" stroke="#C99D72" stroke-width="1.78" stroke-miterlimit="10"/>
<path d="M118.48 52.1299C121.087 52.1299 123.2 50.0167 123.2 47.4099C123.2 44.8032 121.087 42.6899 118.48 42.6899C115.873 42.6899 113.76 44.8032 113.76 47.4099C113.76 50.0167 115.873 52.1299 118.48 52.1299Z" stroke="#C99D72" stroke-width="1.78" stroke-miterlimit="10"/>
<path d="M5.61001 31.23C8.2168 31.23 10.33 29.1168 10.33 26.51C10.33 23.9033 8.2168 21.79 5.61001 21.79C3.00323 21.79 0.890015 23.9033 0.890015 26.51C0.890015 29.1168 3.00323 31.23 5.61001 31.23Z" stroke="#C99D72" stroke-width="1.78" stroke-miterlimit="10"/>
<path d="M28.18 31.23C30.7867 31.23 32.9 29.1168 32.9 26.51C32.9 23.9033 30.7867 21.79 28.18 21.79C25.5732 21.79 23.46 23.9033 23.46 26.51C23.46 29.1168 25.5732 31.23 28.18 31.23Z" stroke="#C99D72" stroke-width="1.78" stroke-miterlimit="10"/>
<path d="M50.76 31.23C53.3668 31.23 55.48 29.1168 55.48 26.51C55.48 23.9033 53.3668 21.79 50.76 21.79C48.1533 21.79 46.04 23.9033 46.04 26.51C46.04 29.1168 48.1533 31.23 50.76 31.23Z" stroke="#C99D72" stroke-width="1.78" stroke-miterlimit="10"/>
<path d="M73.33 31.23C75.9368 31.23 78.05 29.1168 78.05 26.51C78.05 23.9033 75.9368 21.79 73.33 21.79C70.7232 21.79 68.61 23.9033 68.61 26.51C68.61 29.1168 70.7232 31.23 73.33 31.23Z" stroke="#C99D72" stroke-width="1.78" stroke-miterlimit="10"/>
<path d="M95.9099 31.23C98.5167 31.23 100.63 29.1168 100.63 26.51C100.63 23.9033 98.5167 21.79 95.9099 21.79C93.3032 21.79 91.1899 23.9033 91.1899 26.51C91.1899 29.1168 93.3032 31.23 95.9099 31.23Z" stroke="#C99D72" stroke-width="1.78" stroke-miterlimit="10"/>
<path d="M118.48 31.23C121.087 31.23 123.2 29.1168 123.2 26.51C123.2 23.9033 121.087 21.79 118.48 21.79C115.873 21.79 113.76 23.9033 113.76 26.51C113.76 29.1168 115.873 31.23 118.48 31.23Z" stroke="#C99D72" stroke-width="1.78" stroke-miterlimit="10"/>
<path d="M5.61001 10.33C8.2168 10.33 10.33 8.2168 10.33 5.61001C10.33 3.00323 8.2168 0.890015 5.61001 0.890015C3.00323 0.890015 0.890015 3.00323 0.890015 5.61001C0.890015 8.2168 3.00323 10.33 5.61001 10.33Z" stroke="#C99D72" stroke-width="1.78" stroke-miterlimit="10"/>
<path d="M28.18 10.33C30.7867 10.33 32.9 8.2168 32.9 5.61001C32.9 3.00323 30.7867 0.890015 28.18 0.890015C25.5732 0.890015 23.46 3.00323 23.46 5.61001C23.46 8.2168 25.5732 10.33 28.18 10.33Z" stroke="#C99D72" stroke-width="1.78" stroke-miterlimit="10"/>
<path d="M50.76 10.33C53.3668 10.33 55.48 8.2168 55.48 5.61001C55.48 3.00323 53.3668 0.890015 50.76 0.890015C48.1533 0.890015 46.04 3.00323 46.04 5.61001C46.04 8.2168 48.1533 10.33 50.76 10.33Z" stroke="#C99D72" stroke-width="1.78" stroke-miterlimit="10"/>
<path d="M73.33 10.33C75.9368 10.33 78.05 8.2168 78.05 5.61001C78.05 3.00323 75.9368 0.890015 73.33 0.890015C70.7232 0.890015 68.61 3.00323 68.61 5.61001C68.61 8.2168 70.7232 10.33 73.33 10.33Z" stroke="#C99D72" stroke-width="1.78" stroke-miterlimit="10"/>
<path d="M95.9099 10.33C98.5167 10.33 100.63 8.2168 100.63 5.61001C100.63 3.00323 98.5167 0.890015 95.9099 0.890015C93.3032 0.890015 91.1899 3.00323 91.1899 5.61001C91.1899 8.2168 93.3032 10.33 95.9099 10.33Z" stroke="#C99D72" stroke-width="1.78" stroke-miterlimit="10"/>
<path d="M118.48 10.33C121.087 10.33 123.2 8.2168 123.2 5.61001C123.2 3.00323 121.087 0.890015 118.48 0.890015C115.873 0.890015 113.76 3.00323 113.76 5.61001C113.76 8.2168 115.873 10.33 118.48 10.33Z" stroke="#C99D72" stroke-width="1.78" stroke-miterlimit="10"/>
</svg>
