<svg width="39" height="35" viewBox="0 0 39 35" fill="none" xmlns="http://www.w3.org/2000/svg">
<path d="M31.6298 0.820068C31.5467 0.822183 31.4663 0.850224 31.3998 0.900146C30.9354 1.21825 30.431 1.47379 29.8998 1.66016C26.9487 2.70009 23.7309 2.70009 20.7798 1.66016C20.2499 1.47072 19.746 1.21538 19.2798 0.900146C19.209 0.847391 19.1231 0.818848 19.0348 0.818848C18.9465 0.818848 18.8606 0.847391 18.7898 0.900146C18.36 1.21928 17.8847 1.4721 17.3798 1.65015C14.3773 2.69025 11.1123 2.69025 8.10984 1.65015C7.60496 1.4721 7.12963 1.21928 6.6998 0.900146C6.64112 0.853164 6.57037 0.823572 6.4957 0.814941C6.42103 0.806311 6.34547 0.81896 6.27762 0.851318C6.20977 0.883677 6.15239 0.934343 6.11209 0.997803C6.0718 1.06126 6.0502 1.13479 6.04978 1.20996V5.8501C5.77095 5.84978 5.4971 5.92361 5.25632 6.06421C5.01554 6.20481 4.81653 6.40716 4.67978 6.65015L0.219821 14.3801C0.00532243 14.7489 -0.0540862 15.1876 0.0546598 15.6001C0.163406 16.0126 0.431373 16.365 0.799777 16.5801L3.16983 17.95C3.45101 18.11 3.77369 18.1824 4.09629 18.1575C4.41888 18.1325 4.72661 18.0115 4.97983 17.8101L6.04978 18.49V21.21C6.04978 24.94 9.3198 28.14 12.5098 30.45C14.5141 31.8862 16.6465 33.135 18.8798 34.1802C18.9827 34.2203 19.0969 34.2203 19.1998 34.1802C21.4344 33.1375 23.567 31.8886 25.5698 30.45C28.7598 28.14 32.0398 24.94 32.0398 21.21V18.4202L33.0998 17.8101C33.3524 18.0127 33.6603 18.1344 33.9832 18.1594C34.3061 18.1844 34.629 18.1114 34.9098 17.95L37.2798 16.5801C37.4627 16.4754 37.6231 16.3356 37.7519 16.1687C37.8806 16.0018 37.9751 15.8112 38.0299 15.6077C38.0847 15.4042 38.0988 15.1919 38.0713 14.9829C38.0439 14.774 37.9753 14.5725 37.8698 14.3901L33.4098 6.65015C33.27 6.40986 33.0703 6.20978 32.8302 6.06958C32.5901 5.92938 32.3178 5.85381 32.0398 5.8501V1.20996C32.0372 1.10296 31.9928 1.00125 31.9162 0.926514C31.8396 0.851773 31.7368 0.810027 31.6298 0.810059V0.820068ZM19.0498 1.68994C19.5065 1.97755 19.9926 2.21578 20.4998 2.40015C23.6316 3.50656 27.048 3.50656 30.1798 2.40015C30.5443 2.25842 30.8985 2.09135 31.2398 1.90015V6.06006L28.8598 7.43018C28.5789 7.59227 28.3539 7.83578 28.2146 8.12866C28.0753 8.42155 28.0283 8.74987 28.0798 9.07007L26.7898 9.82007L21.7898 9.04004C21.4997 8.99256 21.2026 9.00968 20.9198 9.09009L19.4998 9.46997C19.3444 9.1403 19.1096 8.85438 18.8163 8.63794C18.5231 8.4215 18.1806 8.28134 17.8198 8.22998C17.5258 8.18029 17.2243 8.20091 16.9398 8.29004L11.3098 9.80005L10.0398 9.07007C10.0907 8.74851 10.0434 8.41908 9.90427 8.12476C9.76514 7.83043 9.54055 7.58498 9.2598 7.42017L6.8898 6.05005V1.92017C7.20864 2.10876 7.54323 2.26934 7.8898 2.40015C11.0795 3.50891 14.5501 3.50891 17.7398 2.40015C18.2259 2.21815 18.6891 1.97966 19.1198 1.68994H19.0498ZM6.04978 6.64014C6.12585 6.62668 6.20374 6.62668 6.27982 6.64014C6.33482 6.65076 6.38631 6.67463 6.42978 6.70996L8.79978 8.08008C8.96372 8.16922 9.09082 8.31342 9.15854 8.4873C9.22627 8.66119 9.2303 8.85349 9.16983 9.03003C9.16607 9.05991 9.16607 9.09024 9.16983 9.12012C9.1715 9.14342 9.1715 9.16664 9.16983 9.18994L4.70981 16.9202C4.71359 16.94 4.71359 16.9602 4.70981 16.98L4.6398 17.0701C4.51588 17.2064 4.34873 17.2957 4.16654 17.323C3.98434 17.3503 3.79827 17.3139 3.6398 17.22L1.26981 15.8501C1.17676 15.7973 1.09525 15.7264 1.03006 15.6416C0.964879 15.5568 0.91733 15.4599 0.890292 15.3564C0.863255 15.253 0.85728 15.1449 0.872653 15.0391C0.888026 14.9332 0.924472 14.8315 0.979831 14.74L5.43979 7C5.49066 6.90616 5.56052 6.82396 5.64487 6.75854C5.72922 6.69313 5.82623 6.64603 5.92978 6.62012C6.00515 6.60019 6.08445 6.60019 6.15982 6.62012L6.04978 6.64014ZM31.9598 6.64014C32.0353 6.62109 32.1143 6.62109 32.1898 6.64014C32.3983 6.70019 32.5745 6.84032 32.6798 7.03003L37.1398 14.77C37.1938 14.8619 37.2292 14.9635 37.2438 15.0691C37.2585 15.1747 37.2521 15.2821 37.2252 15.3853C37.1983 15.4884 37.1512 15.5853 37.0868 15.6702C37.0224 15.7551 36.9419 15.8264 36.8498 15.8801L34.4798 17.25C34.3203 17.3428 34.1335 17.3776 33.9513 17.3484C33.769 17.3192 33.6025 17.228 33.4798 17.0901L33.4198 17.01C33.4198 17.01 33.4198 17.01 33.4198 16.95L28.9498 9.20996C28.9536 9.19014 28.9536 9.16997 28.9498 9.15015V9.06006C28.8792 8.87798 28.8767 8.67643 28.9428 8.49268C29.009 8.30892 29.1393 8.15534 29.3098 8.06006L31.6898 6.68994C31.7309 6.65689 31.7787 6.6332 31.8298 6.62012C31.9019 6.60104 31.9777 6.60104 32.0498 6.62012L31.9598 6.64014ZM17.5198 9.02002C17.7525 9.02459 17.98 9.08975 18.1799 9.20898C18.3798 9.32822 18.5452 9.49736 18.6598 9.69995L14.3898 10.8401C14.1101 10.9149 13.8479 11.044 13.6181 11.2202C13.3883 11.3964 13.1955 11.6162 13.0506 11.8669C12.9058 12.1177 12.8117 12.3946 12.7738 12.6816C12.736 12.9687 12.755 13.2603 12.8298 13.54C12.9047 13.8198 13.0339 14.082 13.2101 14.3118C13.3863 14.5415 13.606 14.7343 13.8567 14.8792C14.1074 15.024 14.3842 15.1181 14.6713 15.156C14.9584 15.1939 15.2501 15.175 15.5298 15.1001L22.0298 13.3201L29.2498 20.55C29.3571 20.6569 29.4423 20.784 29.5005 20.9238C29.5586 21.0637 29.5885 21.2135 29.5885 21.365C29.5885 21.5164 29.5586 21.6665 29.5005 21.8064C29.4423 21.9463 29.3571 22.0733 29.2498 22.1802C29.1436 22.2887 29.0169 22.375 28.8769 22.4338C28.737 22.4927 28.5866 22.5229 28.4348 22.5229C28.2829 22.5229 28.1327 22.4927 27.9927 22.4338C27.8528 22.375 27.726 22.2887 27.6198 22.1802L26.6198 21.1802C26.582 21.1417 26.5369 21.111 26.4871 21.0903C26.4373 21.0697 26.3837 21.0595 26.3298 21.0601C26.2259 21.0599 26.1258 21.0993 26.0498 21.1702C26.0113 21.2079 25.9808 21.2529 25.9602 21.3027C25.9396 21.3526 25.9292 21.406 25.9298 21.46C25.93 21.5132 25.9418 21.5659 25.9642 21.6143C25.9866 21.6626 26.0192 21.7054 26.0598 21.74L27.0598 22.74C27.1683 22.8462 27.2546 22.9731 27.3135 23.113C27.3724 23.253 27.4027 23.4033 27.4027 23.5552C27.4027 23.707 27.3724 23.8571 27.3135 23.9971C27.2546 24.137 27.1683 24.264 27.0598 24.3701C26.9552 24.4796 26.8295 24.5667 26.6903 24.6262C26.5511 24.6858 26.4012 24.7166 26.2498 24.7166C26.0984 24.7166 25.9485 24.6858 25.8093 24.6262C25.6701 24.5667 25.5444 24.4796 25.4398 24.3701L24.5098 23.45C24.4747 23.4107 24.4315 23.3796 24.3832 23.3589C24.3348 23.3382 24.2824 23.3284 24.2298 23.3301C24.1511 23.3281 24.0736 23.35 24.0076 23.3928C23.9416 23.4357 23.8901 23.4974 23.8598 23.5701C23.8317 23.6444 23.8251 23.7251 23.841 23.803C23.857 23.8809 23.8947 23.9527 23.9498 24.01L24.8698 24.9302C24.9783 25.0363 25.0646 25.163 25.1235 25.303C25.1824 25.4429 25.2127 25.5933 25.2127 25.7451C25.2127 25.897 25.1824 26.0473 25.1235 26.1873C25.0646 26.3272 24.9783 26.4539 24.8698 26.5601C24.7652 26.6696 24.6395 26.7568 24.5003 26.8164C24.3611 26.876 24.2112 26.9065 24.0598 26.9065C23.9084 26.9065 23.7585 26.876 23.6193 26.8164C23.4801 26.7568 23.3544 26.6696 23.2498 26.5601L22.3098 25.6201C22.2348 25.5465 22.1349 25.5035 22.0298 25.5C21.9515 25.5011 21.8753 25.5253 21.8105 25.5693C21.7458 25.6134 21.6954 25.6754 21.6656 25.7478C21.6357 25.8202 21.6278 25.8997 21.6428 25.9766C21.6578 26.0534 21.695 26.1243 21.7498 26.1802L22.6798 27.1201C22.8959 27.3363 23.0174 27.6294 23.0174 27.9351C23.0174 28.2407 22.8959 28.5338 22.6798 28.75C22.4636 28.9662 22.1705 29.0876 21.8648 29.0876C21.5591 29.0876 21.2659 28.9662 21.0498 28.75L19.6098 27.3L20.4198 26.49C20.689 26.2174 20.8719 25.8716 20.9457 25.4956C21.0195 25.1197 20.981 24.7304 20.8348 24.3762C20.6887 24.0221 20.4414 23.7186 20.1239 23.5042C19.8065 23.2897 19.4329 23.1736 19.0498 23.1702H18.8298C18.872 22.8729 18.8443 22.5696 18.7488 22.2849C18.6533 22.0002 18.4928 21.7418 18.2798 21.53C18.101 21.3484 17.8877 21.2046 17.6524 21.1067C17.4172 21.0088 17.1647 20.9588 16.9098 20.96H16.6498C16.6867 20.6629 16.6564 20.3615 16.5613 20.0776C16.4661 19.7938 16.3084 19.5348 16.0998 19.3201C15.7307 18.959 15.2362 18.7547 14.7198 18.75H14.4598C14.4984 18.4752 14.4777 18.1955 14.3989 17.9294C14.3201 17.6634 14.1852 17.4172 14.0032 17.2078C13.8212 16.9983 13.5964 16.8303 13.344 16.7151C13.0915 16.5999 12.8173 16.5402 12.5398 16.54C12.0235 16.5448 11.529 16.7491 11.1598 17.1101L8.97983 19.3L6.6998 17.8601L5.5098 17.1101L9.7598 9.72998L11.0798 10.5H11.3798L17.1598 8.93994C17.2969 8.90416 17.4382 8.88753 17.5798 8.89014L17.5198 9.02002ZM21.5198 9.82007H21.6498L26.7698 10.6201C26.8233 10.6261 26.8774 10.6212 26.929 10.6057C26.9805 10.5902 27.0284 10.5644 27.0698 10.53L28.3298 9.80005L32.5698 17.1602L31.4498 17.8101H31.3498L31.2698 17.8601H31.1998L29.2598 19.3201L22.4298 12.48C22.3539 12.4166 22.2586 12.3814 22.1598 12.3801C22.1069 12.371 22.0527 12.371 21.9998 12.3801L15.3398 14.21C14.9778 14.3068 14.5921 14.2559 14.2677 14.0684C13.9432 13.8808 13.7066 13.572 13.6098 13.21C13.513 12.8479 13.564 12.4624 13.7515 12.1379C13.939 11.8135 14.2478 11.5768 14.6098 11.48L19.3298 10.22L21.0798 9.76001C21.2158 9.71881 21.3579 9.70184 21.4998 9.70996L21.5198 9.82007ZM12.5198 17.3901C12.7525 17.3881 12.9804 17.456 13.1739 17.5852C13.3675 17.7144 13.5177 17.8988 13.605 18.1145C13.6924 18.3302 13.7128 18.5672 13.6637 18.7947C13.6146 19.0221 13.4983 19.2297 13.3298 19.3901L11.1398 21.5801C11.0344 21.6937 10.9072 21.7847 10.7657 21.8479C10.6242 21.9111 10.4714 21.9451 10.3165 21.9478C10.1616 21.9504 10.0077 21.9218 9.86417 21.8635C9.7206 21.8052 9.59028 21.7185 9.48105 21.6086C9.37183 21.4987 9.28595 21.3678 9.22855 21.2239C9.17115 21.08 9.14345 20.9259 9.14707 20.771C9.15069 20.6161 9.18555 20.4636 9.24961 20.3225C9.31366 20.1814 9.40557 20.0546 9.51981 19.95L11.6998 17.76C11.8068 17.6514 11.9345 17.5655 12.0754 17.5071C12.2162 17.4487 12.3673 17.4191 12.5198 17.4202V17.3901ZM31.2198 18.97V21.22C31.2198 24.47 28.2198 27.5701 25.0898 29.8201C23.1809 31.1919 21.1489 32.3838 19.0198 33.3801C16.8959 32.38 14.8675 31.1884 12.9598 29.8201C9.84981 27.5701 6.8198 24.47 6.8198 21.22V19L8.5098 20.0701C8.39487 20.3838 8.36295 20.722 8.41709 21.0518C8.47123 21.3815 8.60959 21.6916 8.81882 21.9521C9.02805 22.2127 9.30103 22.4148 9.6113 22.5388C9.92157 22.6629 10.2586 22.7047 10.5898 22.6602C10.5482 22.9575 10.5762 23.2603 10.6715 23.5449C10.7669 23.8296 10.927 24.0883 11.1393 24.3005C11.3516 24.5128 11.6103 24.673 11.8949 24.7683C12.1796 24.8637 12.4825 24.8917 12.7798 24.8501C12.7384 25.1474 12.7665 25.4503 12.8619 25.7349C12.9573 26.0194 13.1175 26.2778 13.3298 26.49C13.5446 26.6986 13.8034 26.8562 14.0873 26.9514C14.3711 27.0466 14.6727 27.077 14.9698 27.04C14.9145 27.4421 14.9866 27.8515 15.1761 28.2104C15.3656 28.5694 15.663 28.8597 16.0262 29.0408C16.3895 29.2218 16.8003 29.2845 17.201 29.2197C17.6017 29.155 17.972 28.9664 18.2598 28.6802L19.0798 27.8601L20.5198 29.3101C20.7001 29.4912 20.9143 29.6348 21.1503 29.7329C21.3863 29.831 21.6393 29.8816 21.8948 29.8816C22.1503 29.8816 22.4034 29.831 22.6393 29.7329C22.8753 29.6348 23.0895 29.4912 23.2698 29.3101C23.4784 29.0953 23.6361 28.8363 23.7313 28.5525C23.8265 28.2686 23.8567 27.9673 23.8198 27.6702C24.1171 27.7116 24.4199 27.6833 24.7045 27.5879C24.9891 27.4925 25.2476 27.3324 25.4598 27.1201C25.6684 26.9053 25.8261 26.6464 25.9213 26.3625C26.0165 26.0787 26.0467 25.7771 26.0098 25.48C26.3056 25.5222 26.6071 25.4944 26.8902 25.3989C27.1733 25.3034 27.4301 25.143 27.6398 24.9302C27.5982 24.6329 27.6262 24.3298 27.7216 24.0452C27.8169 23.7605 27.977 23.5018 28.1893 23.2896C28.4016 23.0773 28.6603 22.9171 28.9449 22.8218C29.2296 22.7264 29.5325 22.6984 29.8298 22.74C30.1786 22.3691 30.3727 21.8792 30.3727 21.3701C30.3727 20.861 30.1786 20.3709 29.8298 20L31.2198 18.97ZM14.6998 19.5801C14.9333 19.576 15.1627 19.6426 15.3578 19.771C15.5529 19.8994 15.7047 20.0837 15.7933 20.2998C15.8819 20.5159 15.9032 20.7538 15.8544 20.9822C15.8056 21.2106 15.689 21.419 15.5198 21.5801L13.3298 23.77C13.1137 23.9862 12.8205 24.1077 12.5148 24.1077C12.2091 24.1077 11.916 23.9862 11.6998 23.77C11.4837 23.5539 11.3622 23.2608 11.3622 22.9551C11.3622 22.6494 11.4837 22.3563 11.6998 22.1401L13.8898 19.95C13.9956 19.8425 14.1217 19.7573 14.2607 19.699C14.3998 19.6406 14.549 19.6104 14.6998 19.6101V19.5801ZM16.8898 21.77C17.0408 21.7692 17.1904 21.799 17.3296 21.8574C17.4688 21.9158 17.5947 22.0018 17.6998 22.1101C17.8083 22.2163 17.8946 22.343 17.9535 22.4829C18.0123 22.6229 18.0427 22.7732 18.0427 22.925C18.0427 23.0769 18.0123 23.2272 17.9535 23.3672C17.8946 23.5071 17.8083 23.6338 17.6998 23.74L15.5198 25.9302C15.4128 26.0372 15.2857 26.122 15.1459 26.1799C15.0061 26.2379 14.8562 26.2676 14.7048 26.2676C14.5534 26.2676 14.4035 26.2379 14.2637 26.1799C14.1239 26.122 13.9968 26.0372 13.8898 25.9302C13.7828 25.8231 13.6979 25.696 13.64 25.5562C13.5821 25.4163 13.5522 25.2663 13.5522 25.115C13.5522 24.9636 13.5821 24.8139 13.64 24.6741C13.6979 24.5342 13.7828 24.4071 13.8898 24.3L16.0798 22.1101C16.1873 21.9993 16.3164 21.9118 16.4593 21.8533C16.6021 21.7948 16.7555 21.7664 16.9098 21.77H16.8898ZM19.0798 23.96C19.3125 23.9579 19.5404 24.0261 19.7339 24.1553C19.9275 24.2845 20.0777 24.4689 20.165 24.6846C20.2524 24.9003 20.2728 25.1373 20.2237 25.3647C20.1746 25.5922 20.0583 25.7995 19.8898 25.96L17.6998 28.1501C17.5944 28.2637 17.4672 28.3548 17.3257 28.418C17.1842 28.4812 17.0314 28.5152 16.8765 28.5178C16.7216 28.5205 16.5677 28.4919 16.4242 28.4336C16.2806 28.3753 16.1503 28.2886 16.041 28.1787C15.9318 28.0688 15.8459 27.9379 15.7885 27.7939C15.7311 27.65 15.7034 27.496 15.7071 27.3411C15.7107 27.1862 15.7455 27.0337 15.8096 26.8926C15.8737 26.7515 15.9656 26.6247 16.0798 26.52L18.2598 24.3301C18.3668 24.2214 18.4945 24.1353 18.6353 24.0769C18.7762 24.0185 18.9273 23.9889 19.0798 23.99V23.96Z" fill="#C99D72"/>
</svg>
