<svg width="31" height="33" viewBox="0 0 31 33" fill="none" xmlns="http://www.w3.org/2000/svg">
<path d="M29.1602 3.39014L26.9502 1.18994C26.9034 1.13999 26.847 1.10022 26.7842 1.073C26.7214 1.04577 26.6536 1.03174 26.5852 1.03174C26.5168 1.03174 26.449 1.04577 26.3862 1.073C26.3234 1.10022 26.267 1.13999 26.2202 1.18994L25.6002 1.78003C25.2788 1.6187 24.9442 1.48499 24.6002 1.38013V0.560059C24.5977 0.422948 24.542 0.292281 24.4451 0.195312C24.3481 0.0983437 24.2173 0.0426025 24.0802 0.0400391H20.9602C20.8223 0.0400391 20.69 0.0948639 20.5925 0.192383C20.495 0.289902 20.4402 0.422146 20.4402 0.560059V1.42017C20.0958 1.52821 19.7613 1.66529 19.4402 1.83008L18.8402 1.21997C18.7412 1.12346 18.6085 1.06958 18.4702 1.06958C18.332 1.06958 18.1992 1.12346 18.1002 1.21997L15.9002 3.43018C15.8043 3.52747 15.7505 3.65857 15.7505 3.79517C15.7505 3.93176 15.8043 4.06286 15.9002 4.16016L16.5002 4.78003C16.3343 5.10062 16.1971 5.43526 16.0902 5.78003H15.2402C15.1023 5.78003 14.97 5.83485 14.8725 5.93237C14.775 6.02989 14.7202 6.16214 14.7202 6.30005V9.41016C14.7202 9.54807 14.775 9.68031 14.8725 9.77783C14.97 9.87535 15.1023 9.93018 15.2402 9.93018H16.1002C16.2029 10.275 16.3368 10.6097 16.5002 10.9302L15.9002 11.53C15.8037 11.629 15.7497 11.7619 15.7497 11.9001C15.7497 12.0384 15.8037 12.171 15.9002 12.27L18.1002 14.47C18.1992 14.5665 18.332 14.6206 18.4702 14.6206C18.6085 14.6206 18.7412 14.5665 18.8402 14.47L19.4502 13.8701C19.7716 14.0342 20.1061 14.1712 20.4502 14.28V15.1301C20.4502 15.268 20.505 15.4003 20.6025 15.4978C20.7 15.5953 20.8323 15.6501 20.9702 15.6501H24.0902C24.2281 15.6501 24.3604 15.5953 24.4579 15.4978C24.5554 15.4003 24.6102 15.268 24.6102 15.1301V14.28C24.9523 14.1656 25.2863 14.0287 25.6102 13.8701L26.2102 14.47C26.3075 14.5659 26.4386 14.6196 26.5752 14.6196C26.7118 14.6196 26.8429 14.5659 26.9402 14.47L29.1501 12.27C29.246 12.1727 29.2998 12.0416 29.2998 11.905C29.2998 11.7684 29.246 11.6373 29.1501 11.54L28.5502 10.9202C28.7128 10.5993 28.8467 10.2647 28.9502 9.92017H29.8102C29.9481 9.92017 30.0803 9.86534 30.1779 9.76782C30.2754 9.6703 30.3302 9.53806 30.3302 9.40015V6.29004C30.3302 6.15213 30.2754 6.01988 30.1779 5.92236C30.0803 5.82484 29.9481 5.77002 29.8102 5.77002H28.9502C28.8426 5.42549 28.7054 5.09091 28.5402 4.77002L29.1501 4.16016C29.246 4.06286 29.2998 3.93176 29.2998 3.79517C29.2998 3.65857 29.246 3.52747 29.1501 3.43018L29.1602 3.39014ZM28.9602 6.75H29.3002V8.83008H28.9602C28.738 8.83161 28.522 8.90295 28.3425 9.03394C28.1631 9.16493 28.0294 9.34893 27.9602 9.56006C27.871 9.84132 27.7608 10.1155 27.6302 10.3801C27.5221 10.5733 27.481 10.7969 27.5135 11.0159C27.5461 11.2348 27.6505 11.4368 27.8102 11.5901L28.0502 11.8301L26.5802 13.3L26.3402 13.0601C26.1862 12.898 25.9824 12.7921 25.7612 12.7595C25.5401 12.7269 25.3145 12.7695 25.1202 12.8801C24.8593 13.0139 24.5884 13.1274 24.3102 13.22C24.0939 13.2805 23.9043 13.4121 23.7719 13.5935C23.6394 13.7749 23.5719 13.9955 23.5802 14.22V14.55H21.5002V14.22C21.5085 13.9955 21.441 13.7749 21.3086 13.5935C21.1762 13.4121 20.9865 13.2805 20.7702 13.22C20.4894 13.1256 20.2154 13.0122 19.9502 12.8801C19.757 12.772 19.5334 12.7309 19.3145 12.7634C19.0955 12.796 18.8935 12.9003 18.7402 13.0601L18.5002 13.3L17.0302 11.8301L17.2702 11.6001C17.4322 11.4461 17.5381 11.2421 17.5707 11.021C17.6033 10.7999 17.5609 10.5743 17.4502 10.3801C17.3206 10.1138 17.2071 9.83992 17.1102 9.56006C17.0424 9.34811 16.909 9.16319 16.7292 9.03198C16.5495 8.90077 16.3328 8.83009 16.1102 8.83008H15.8302V6.75H16.1602C16.3847 6.7583 16.6053 6.69078 16.7867 6.55835C16.9682 6.42592 17.0997 6.23632 17.1602 6.02002C17.2571 5.74341 17.3706 5.47286 17.5002 5.20996C17.6109 5.01575 17.6533 4.79023 17.6207 4.56909C17.588 4.34795 17.4822 4.14397 17.3202 3.98999L17.0802 3.75L18.5502 2.29004L18.7902 2.52002C18.9423 2.68135 19.1437 2.78763 19.3627 2.82202C19.5818 2.85641 19.806 2.81691 20.0002 2.70996C20.2626 2.572 20.5371 2.45836 20.8202 2.37012C21.0365 2.30963 21.2262 2.17799 21.3586 1.99658C21.491 1.81518 21.5585 1.59456 21.5502 1.37012V1.03003H23.6302V1.37012C23.622 1.59456 23.6894 1.81518 23.8218 1.99658C23.9542 2.17799 24.1439 2.30963 24.3602 2.37012C24.6401 2.4584 24.9111 2.57206 25.1702 2.70996C25.3654 2.81942 25.5918 2.86038 25.813 2.82593C26.0342 2.79148 26.2375 2.68367 26.3903 2.52002L26.6302 2.29004L28.1002 3.75L27.8602 3.98999C27.7051 4.14801 27.6033 4.35077 27.5692 4.56958C27.5351 4.78839 27.5704 5.01224 27.6702 5.20996C27.8081 5.46898 27.922 5.74018 28.0103 6.02002C28.0707 6.23632 28.2023 6.42592 28.3837 6.55835C28.5651 6.69078 28.7858 6.7583 29.0103 6.75H28.9602Z" fill="#C99D72"/>
<path d="M22.5499 11.6901C24.7038 11.6901 26.4499 9.94405 26.4499 7.79014C26.4499 5.63623 24.7038 3.89014 22.5499 3.89014C20.396 3.89014 18.6499 5.63623 18.6499 7.79014C18.6499 9.94405 20.396 11.6901 22.5499 11.6901Z" fill="#C99D72"/>
<path d="M24.0898 32.8199H10.7198C10.5506 32.8185 10.3888 32.7503 10.2698 32.6299C10.2116 32.5705 10.1657 32.5001 10.1348 32.4229C10.1039 32.3457 10.0887 32.2632 10.0898 32.18C10.1439 31.5144 10.1439 30.8456 10.0898 30.18C9.93984 29.34 6.95983 29.6199 6.57983 29.5899C5.95186 29.5414 5.34961 29.3197 4.83984 28.9498C4.5203 28.5958 4.34231 28.1368 4.33984 27.66C4.33984 27.33 4.0498 21.7798 4.0498 21.7798L2.0498 21.66C1.93066 21.6521 1.81625 21.6103 1.71985 21.5399C0.979849 20.9865 0.609863 20.4865 0.609863 20.0399C0.609863 19.8199 0.609859 19.5198 4.47986 13.7498C4.47986 13.2298 4.32985 11.9199 4.27985 10.8799C4.22985 9.83994 6.03981 6.5399 8.17981 4.5799C9.85981 3.0599 12.8198 2.6699 14.4298 2.5799C14.5112 2.57464 14.5929 2.58557 14.6702 2.61188C14.7474 2.63818 14.8187 2.67936 14.8799 2.73322C14.9412 2.78707 14.9913 2.85239 15.0273 2.9256C15.0634 2.99881 15.0846 3.07855 15.0898 3.15997C15.0951 3.24139 15.0842 3.32298 15.0579 3.40021C15.0316 3.47744 14.9904 3.54864 14.9365 3.60992C14.8827 3.67121 14.8173 3.72137 14.7441 3.75739C14.6709 3.7934 14.5912 3.81463 14.5098 3.81989C13.0598 3.90989 10.4098 4.24983 9.01984 5.50983C7.4449 6.98203 6.24486 8.8096 5.51984 10.8399C5.58984 12.1299 5.73981 13.8399 5.73981 13.8399C5.75228 13.9807 5.71709 14.1215 5.63983 14.2398C4.03983 16.6098 2.31985 19.2398 1.90985 20.0198C2.03714 20.1594 2.17412 20.2898 2.31982 20.41L4.64984 20.5499C4.80144 20.5617 4.94363 20.628 5.05023 20.7364C5.15683 20.8448 5.22066 20.9882 5.22986 21.14C5.22986 21.14 5.42981 25.31 5.55981 27.14C5.55981 27.63 5.61984 27.8298 5.76984 27.9898C5.88774 28.1021 6.02778 28.1886 6.18103 28.2437C6.33428 28.2988 6.4974 28.3214 6.65985 28.3099C8.25985 28.3099 11.1098 28.0598 11.2398 29.7198C11.2398 30.0098 11.3498 30.7198 11.3398 31.5198H23.4498V26.5198C23.4209 25.7953 23.6554 25.0848 24.1099 24.5198C24.3175 24.2934 24.5649 24.1069 24.8398 23.9698C25.5098 23.5798 26.3498 23.09 26.8398 20.43C26.9098 19.95 27.0698 17.2198 27.1598 15.4998C27.1623 15.4179 27.1813 15.3374 27.2156 15.263C27.2499 15.1886 27.299 15.122 27.3596 15.067C27.4203 15.0119 27.4914 14.9694 27.5687 14.9424C27.6461 14.9155 27.7281 14.9046 27.8098 14.91C27.8913 14.9138 27.9712 14.9336 28.0449 14.9683C28.1187 15.0031 28.1848 15.052 28.2396 15.1124C28.2944 15.1727 28.3369 15.2434 28.3644 15.3201C28.3919 15.3969 28.4038 15.4784 28.3998 15.5599C28.3998 15.9999 28.1798 19.9299 28.0598 20.6299C27.5298 23.8699 26.3198 24.6299 25.5198 25.0399C25.3728 25.117 25.2353 25.211 25.1099 25.3199C24.8581 25.6411 24.7303 26.0421 24.7499 26.4498V32.15C24.7499 32.3144 24.6845 32.4719 24.5682 32.5882C24.452 32.7045 24.2943 32.7698 24.1299 32.7698L24.0898 32.8199Z" fill="#C99D72"/>
</svg>
