<svg width="34" height="40" viewBox="0 0 34 40" fill="none" xmlns="http://www.w3.org/2000/svg">
<path d="M26.1599 15.1899C26.1619 13.3857 25.6287 11.6217 24.6278 10.1206C23.6268 8.6195 22.2032 7.44887 20.5369 6.75706C18.8707 6.06526 17.0366 5.88335 15.2668 6.23411C13.497 6.58488 11.8711 7.45271 10.5946 8.72777C9.31816 10.0028 8.44861 11.6278 8.0959 13.3972C7.74319 15.1666 7.9232 17.0007 8.61317 18.6677C9.30315 20.3348 10.4721 21.7599 11.9721 22.7624C13.4721 23.765 15.2357 24.3 17.0399 24.3C19.4562 24.2974 21.7728 23.337 23.4823 21.6294C25.1917 19.9218 26.1546 17.6062 26.1599 15.1899ZM17.0399 22.28C15.6377 22.28 14.2669 21.8642 13.1009 21.0852C11.935 20.3061 11.0262 19.1988 10.4896 17.9033C9.95295 16.6078 9.81257 15.1822 10.0861 13.8069C10.3597 12.4315 11.035 11.1683 12.0265 10.1767C13.0181 9.18519 14.2814 8.50988 15.6567 8.23631C17.032 7.96274 18.4576 8.10301 19.7531 8.63963C21.0487 9.17626 22.156 10.085 22.935 11.251C23.7141 12.4169 24.1299 13.7877 24.1299 15.1899C24.1273 17.0695 23.3794 18.8714 22.0504 20.2004C20.7213 21.5295 18.9195 22.2774 17.0399 22.28Z" fill="#C99D72"/>
<path d="M22.0498 13.91C21.9926 13.7336 21.8875 13.5765 21.7462 13.4564C21.605 13.3363 21.4331 13.2579 21.2498 13.2298L18.9798 12.88L17.9798 10.7098C17.8988 10.5347 17.7688 10.3867 17.6055 10.2838C17.4423 10.1809 17.2527 10.1276 17.0598 10.13C16.8685 10.1295 16.6811 10.1839 16.5199 10.2867C16.3586 10.3895 16.2301 10.5362 16.1498 10.7098L15.1498 12.88L12.8798 13.2298C12.6929 13.2536 12.5166 13.3297 12.371 13.4493C12.2255 13.5689 12.1167 13.7269 12.0571 13.9056C11.9976 14.0843 11.9897 14.2763 12.0344 14.4593C12.0791 14.6423 12.1745 14.8087 12.3098 14.9398L13.9798 16.65L13.5798 19.0799C13.5435 19.2689 13.5625 19.4642 13.6345 19.6427C13.7066 19.8211 13.8285 19.9752 13.9858 20.086C14.1431 20.1969 14.329 20.2599 14.5213 20.2677C14.7136 20.2755 14.904 20.2277 15.0698 20.13L17.0698 19.0098L19.0698 20.13C19.2202 20.2112 19.3889 20.2524 19.5598 20.2498C19.7067 20.252 19.8523 20.2217 19.9862 20.1612C20.1201 20.1007 20.2391 20.0114 20.3345 19.8997C20.43 19.788 20.4997 19.6567 20.5387 19.515C20.5776 19.3733 20.5848 19.2247 20.5598 19.0799L20.1598 16.65L21.8298 14.9398C21.9549 14.8094 22.0423 14.6478 22.0828 14.4718C22.1233 14.2957 22.1153 14.1117 22.0598 13.9398L22.0498 13.91ZM18.3398 15.5999C18.2291 15.7132 18.1469 15.851 18.1 16.0023C18.0531 16.1535 18.0427 16.3138 18.0698 16.4698L18.2098 17.3399L17.5298 16.9698C17.3795 16.8871 17.2113 16.8426 17.0398 16.8399C16.8685 16.8441 16.7006 16.8886 16.5498 16.9698L15.8698 17.3399L16.0198 16.4698C16.0456 16.313 16.0337 16.1524 15.985 16.0011C15.9363 15.8498 15.8522 15.7123 15.7398 15.5999L15.0898 14.9398L15.9398 14.8099C16.1056 14.7869 16.2629 14.7227 16.3975 14.6231C16.532 14.5235 16.6394 14.3917 16.7098 14.2398L17.0398 13.5199L17.3798 14.2298C17.4493 14.3804 17.5551 14.5114 17.6878 14.6109C17.8204 14.7104 17.9758 14.7753 18.1398 14.7999L18.9898 14.9398L18.3398 15.5999Z" fill="#C99D72"/>
<path d="M33.1198 34.9599L27.6398 24.9L28.8499 24.4799C29.0469 24.4133 29.2182 24.287 29.3401 24.1186C29.462 23.9501 29.5283 23.7479 29.5299 23.5399L29.6099 19.2699L32.0498 15.7699C32.1704 15.6006 32.2352 15.3977 32.2352 15.1898C32.2352 14.9819 32.1704 14.7794 32.0498 14.61L29.6099 11.1L29.5299 6.82998C29.5263 6.62376 29.459 6.42371 29.3372 6.25722C29.2155 6.09073 29.0453 5.96601 28.8499 5.90005L24.8499 4.4999L22.2698 1.08999C22.1465 0.923339 21.9743 0.799261 21.7772 0.734763C21.5802 0.670266 21.3679 0.668432 21.1699 0.729881L17.0798 1.97988L12.9898 0.729881C12.7918 0.668432 12.5795 0.670266 12.3825 0.734763C12.1854 0.799261 12.0132 0.923339 11.8898 1.08999L9.31984 4.4999L5.31984 5.90005C5.12442 5.96601 4.9542 6.09073 4.83247 6.25722C4.71074 6.42371 4.64345 6.62376 4.63984 6.82998L4.54982 11.1L2.10987 14.61C1.98929 14.7794 1.92445 14.9819 1.92445 15.1898C1.92445 15.3977 1.98929 15.6006 2.10987 15.7699L4.54982 19.2699L4.63984 23.5499C4.64345 23.7562 4.71074 23.9562 4.83247 24.1227C4.9542 24.2892 5.12442 24.4139 5.31984 24.4799L6.52986 24.9L1.03987 34.9599C0.928348 35.1427 0.878452 35.3564 0.897533 35.5697C0.916615 35.783 1.00363 35.9846 1.14582 36.1447C1.28802 36.3048 1.47791 36.4152 1.68745 36.4594C1.89699 36.5035 2.11512 36.4792 2.30983 36.39L6.23982 34.81L7.01985 38.6801C7.05803 38.8875 7.16077 39.0773 7.31343 39.2228C7.46609 39.3683 7.66083 39.4617 7.86982 39.4899H8.00984C8.19726 39.4903 8.38104 39.438 8.54017 39.339C8.6993 39.24 8.8274 39.0984 8.90986 38.9301L13.6499 29.4499L17.1198 28.39L20.5899 29.4499L25.3298 38.9301C25.413 39.0999 25.5427 39.2426 25.7038 39.3417C25.8649 39.4408 26.0507 39.4922 26.2398 39.4899H26.3698C26.5806 39.4637 26.7776 39.3711 26.9323 39.2255C27.0869 39.0799 27.1911 38.8889 27.2299 38.6801L27.9998 34.81L31.9398 36.39C32.1328 36.4683 32.3455 36.4843 32.5481 36.4359C32.7507 36.3875 32.9331 36.2771 33.0698 36.12C33.2102 35.9646 33.2983 35.7691 33.3217 35.5609C33.345 35.3528 33.3024 35.1425 33.1998 34.9599H33.1198ZM8.33986 35.39L7.90986 33.2199C7.88138 33.0742 7.82083 32.9369 7.73262 32.8175C7.6444 32.6982 7.53074 32.5999 7.39985 32.5299C7.26553 32.466 7.11864 32.4328 6.96986 32.4328C6.82108 32.4328 6.67419 32.466 6.53987 32.5299L4.08985 33.5299L8.38984 25.64L9.27986 25.9499L11.5698 28.9499L8.33986 35.39ZM17.0399 26.33C16.9438 26.3146 16.8459 26.3146 16.7498 26.33L13.0399 27.4599L10.7099 24.37C10.5846 24.2119 10.4187 24.0908 10.2299 24.0199L6.56984 22.7599L6.48982 18.89C6.48732 18.6895 6.42461 18.4944 6.30983 18.33L4.09986 15.15L6.30983 11.9699C6.42819 11.8073 6.49127 11.6112 6.48982 11.4101L6.56984 7.53994L10.2299 6.26992C10.4216 6.20457 10.589 6.08266 10.7099 5.92007L13.0399 2.82998L16.7498 3.95986C16.942 4.0192 17.1477 4.0192 17.3399 3.95986L21.0399 2.82998L23.3798 5.93008C23.4988 6.09236 23.6673 6.2115 23.8599 6.26992L27.5198 7.53994L27.5899 11.4101C27.5974 11.6097 27.6597 11.8032 27.7698 11.9699L29.9898 15.15L27.7698 18.33C27.6551 18.4944 27.5924 18.6895 27.5899 18.89L27.5098 22.7599L23.8499 24.0299C23.6613 24.0909 23.4967 24.21 23.3798 24.37L21.0399 27.4599L17.3399 26.33C17.2404 26.3149 17.1393 26.3149 17.0399 26.33ZM27.5498 32.4799C27.4155 32.4159 27.2686 32.3827 27.1198 32.3827C26.971 32.3827 26.8242 32.4159 26.6898 32.4799C26.5589 32.5498 26.4453 32.6481 26.3571 32.7675C26.2689 32.8868 26.2083 33.0244 26.1798 33.1701L25.7398 35.34L22.5098 28.87L24.8098 25.87L25.6898 25.56L29.9998 33.4499L27.5498 32.4799Z" fill="#C99D72"/>
</svg>
