<svg width="176" height="130" viewBox="0 0 176 130" fill="none" xmlns="http://www.w3.org/2000/svg">
<g clip-path="url(#clip0_39_8)">
<path d="M139.493 130C135 129.935 130.563 128.984 126.436 127.2C122.309 125.416 118.573 122.834 115.441 119.603C101.271 105.318 101.353 78.6713 106.09 58.4509C111.531 36.8881 122.512 17.1305 137.942 1.14607C138.321 0.762419 138.773 0.457925 139.271 0.250119C139.768 0.0423122 140.302 -0.0646973 140.841 -0.0646973C141.38 -0.0646973 141.914 0.0423122 142.411 0.250119C142.909 0.457925 143.361 0.762419 143.74 1.14607C144.501 1.91298 144.928 2.95042 144.928 4.03178C144.928 5.11315 144.501 6.15058 143.74 6.91749C129.321 21.815 119.032 40.2275 113.89 60.3337C109.806 77.5661 109.275 101.921 121.077 113.832C124.237 117.267 128.309 119.727 132.816 120.923C137.322 122.119 142.075 122.002 146.517 120.586C165.179 113.791 170.569 87.0214 166.2 70.8123C165.477 67.7852 164.158 64.9333 162.321 62.424C160.484 59.9147 158.165 57.7985 155.501 56.1996C153.039 54.8086 150.317 53.9449 147.505 53.663C144.694 53.3812 141.854 53.6874 139.167 54.5623C138.127 54.8523 137.015 54.718 136.074 54.1888C135.133 53.6596 134.439 52.7785 134.144 51.738C133.995 51.2193 133.949 50.6761 134.01 50.1397C134.071 49.6033 134.237 49.0842 134.499 48.6125C134.761 48.1407 135.113 47.7255 135.536 47.3909C135.959 47.0562 136.443 46.8086 136.962 46.6624C140.675 45.5435 144.573 45.1771 148.43 45.5847C152.286 45.9923 156.022 47.1657 159.421 49.0365C163.021 51.184 166.16 54.0265 168.655 57.3991C171.151 60.7718 172.953 64.6075 173.958 68.6839C179.798 90.5006 171.1 120.34 149.171 128.281C146.064 129.391 142.792 129.972 139.493 130Z" fill="white"/>
<path d="M36.3025 130C27.2146 129.871 18.5495 126.131 12.2099 119.603C-1.91913 105.318 -1.87842 78.6713 2.89931 58.4509C8.32194 36.881 19.3061 17.119 34.7508 1.14606C35.5159 0.383696 36.5509 -0.0441895 37.6297 -0.0441895C38.7085 -0.0441895 39.7436 0.383696 40.5087 1.14606C41.2692 1.91297 41.6961 2.95041 41.6961 4.03177C41.6961 5.11314 41.2692 6.15057 40.5087 6.91748C26.0897 21.815 15.8003 40.2275 10.6581 60.3337C6.57459 77.5661 6.04377 101.921 17.8452 113.832C21.0054 117.267 25.0776 119.727 29.5838 120.923C34.0901 122.119 38.8433 122.002 43.2855 120.586C61.9472 113.791 67.3375 87.0214 62.9681 70.8123C62.2453 67.7852 60.9267 64.9333 59.0894 62.424C57.2522 59.9147 54.9335 57.7985 52.2693 56.1996C49.8079 54.8086 47.085 53.9449 44.2734 53.663C41.4618 53.3812 38.6226 53.6874 35.9352 54.5623C35.4177 54.7121 34.8757 54.7577 34.3405 54.6966C33.8054 54.6356 33.2876 54.4689 32.8169 54.2064C32.3463 53.9439 31.932 53.5907 31.5982 53.167C31.2643 52.7434 31.0175 52.2577 30.8716 51.738C30.7222 51.2193 30.6766 50.6761 30.7375 50.1397C30.7985 49.6032 30.9646 49.0842 31.2265 48.6124C31.4884 48.1407 31.841 47.7255 32.2636 47.3908C32.6863 47.0562 33.1708 46.8086 33.6893 46.6624C37.4026 45.5434 41.3011 45.1771 45.1572 45.5847C49.0134 45.9923 52.7499 47.1657 56.1487 49.0365C59.7543 51.1768 62.8974 54.0172 65.3937 57.3909C67.89 60.7647 69.6892 64.604 70.686 68.6839C76.5663 90.5006 67.8275 120.34 45.899 128.281C42.8183 129.387 39.5746 129.968 36.3025 130Z" fill="white"/>
</g>
<defs>
<clipPath id="clip0_39_8">
<rect width="176" height="130" fill="white"/>
</clipPath>
</defs>
</svg>
