<svg width="176" height="130" viewBox="0 0 176 130" fill="none" xmlns="http://www.w3.org/2000/svg">
<g clip-path="url(#clip0_39_8)">
<path d="M36.5066 2.08987e-05C41.0004 0.0649262 45.4374 1.01649 49.5643 2.80037C53.6911 4.58425 57.4271 7.16552 60.5587 10.3967C74.7285 24.682 74.6467 51.3287 69.9099 71.5491C64.4693 93.1119 53.4876 112.869 38.0584 128.854C37.6788 129.238 37.2271 129.542 36.7295 129.75C36.2318 129.958 35.6981 130.065 35.159 130.065C34.6199 130.065 34.0862 129.958 33.5886 129.75C33.0909 129.542 32.6395 129.238 32.2599 128.854C31.4993 128.087 31.0722 127.05 31.0722 125.968C31.0722 124.887 31.4993 123.849 32.2599 123.083C46.6788 108.185 56.9682 89.7725 62.1104 69.6663C66.194 52.4339 66.7248 28.0794 54.9234 16.1682C51.7632 12.7331 47.6907 10.2731 43.1845 9.07681C38.6782 7.88051 33.9253 7.99761 29.4831 9.41437C10.8214 16.2091 5.43109 42.9786 9.80046 59.1877C10.5232 62.2148 11.8419 65.0667 13.6791 67.576C15.5163 70.0853 17.8351 72.2015 20.4993 73.8004C22.9607 75.1914 25.6832 76.0551 28.4949 76.337C31.3065 76.6188 34.1459 76.3126 36.8334 75.4377C37.873 75.1477 38.9848 75.282 39.9259 75.8112C40.8671 76.3404 41.561 77.2215 41.8561 78.262C42.0054 78.7807 42.0511 79.3239 41.9901 79.8603C41.9292 80.3967 41.763 80.9158 41.5011 81.3875C41.2392 81.8593 40.8867 82.2745 40.4641 82.6091C40.0414 82.9438 39.5569 83.1914 39.0384 83.3376C35.3251 84.4565 31.4266 84.8229 27.5704 84.4153C23.7143 84.0077 19.9778 82.8343 16.579 80.9635C12.9792 78.816 9.84045 75.9735 7.34497 72.6009C4.84949 69.2282 3.04694 65.3925 2.04167 61.3161C-3.79777 39.4994 4.90016 9.65998 26.8287 1.71917C29.9364 0.608866 33.2076 0.0277823 36.5066 2.08987e-05V2.08987e-05Z" fill="white"/>
<path d="M139.697 3.02951e-05C148.785 0.129269 157.45 3.86857 163.79 10.3968C177.919 24.682 177.878 51.3287 173.101 71.5491C167.678 93.119 156.694 112.881 141.249 128.854C140.484 129.616 139.449 130.044 138.37 130.044C137.291 130.044 136.256 129.616 135.491 128.854C134.731 128.087 134.304 127.05 134.304 125.968C134.304 124.887 134.731 123.849 135.491 123.083C149.91 108.185 160.2 89.7725 165.342 69.6663C169.425 52.4339 169.956 28.0794 158.155 16.1682C154.995 12.7332 150.922 10.2731 146.416 9.07682C141.91 7.88052 137.157 7.99762 132.715 9.41438C114.053 16.2091 108.663 42.9786 113.032 59.1877C113.755 62.2148 115.073 65.0667 116.911 67.576C118.748 70.0853 121.067 72.2015 123.731 73.8004C126.192 75.1914 128.915 76.0551 131.727 76.337C134.538 76.6188 137.377 76.3126 140.065 75.4377C140.582 75.2879 141.124 75.2423 141.659 75.3034C142.195 75.3644 142.712 75.5311 143.183 75.7936C143.654 76.0561 144.068 76.4093 144.402 76.833C144.736 77.2566 144.983 77.7423 145.128 78.262C145.278 78.7807 145.323 79.3239 145.262 79.8603C145.202 80.3968 145.035 80.9158 144.773 81.3876C144.512 81.8593 144.159 82.2745 143.736 82.6092C143.314 82.9438 142.829 83.1914 142.311 83.3376C138.597 84.4566 134.699 84.8229 130.843 84.4153C126.987 84.0077 123.25 82.8343 119.851 80.9635C116.246 78.8232 113.103 75.9828 110.606 72.6091C108.11 69.2353 106.311 65.396 105.314 61.3161C99.4337 39.4994 108.172 9.65999 130.101 1.71918C133.182 0.613386 136.425 0.0323 139.697 3.02951e-05V3.02951e-05Z" fill="white"/>
</g>
<defs>
<clipPath id="clip0_39_8">
<rect width="176" height="130" fill="white" transform="translate(176 130) rotate(-180)"/>
</clipPath>
</defs>
</svg>
